{
.appVersion = "3195";
.formatVersion = 3;
DisplayStrings = (
Hello,
K,
H,
B,
R,
S,
M
);
axes = (
{
name = Height;
tag = HGHT;
}
);
customParameters = (
{
name = glyphOrder;
value = (
A,
B,
C,
D,
E,
F,
G,
H,
I,
J,
K,
L,
M,
N,
O,
P,
Q,
R,
S,
T,
U,
V,
W,
X,
Y,
Z,
a,
b,
c,
d,
e,
f,
g,
h,
i,
j,
k,
l,
m,
n,
o,
p,
q,
r,
s,
t,
u,
v,
w,
x,
y,
z,
n.001,
n.002,
o.001,
"ha-ethiopic",
"ma-ethiopic",
"aPharyngeal-ethiopic",
"za-ethiopic",
"za-ethiopic.001",
"za-ethiopic.002",
"za-ethiopic.003",
space,
"za-ethiopic.alt",
a.alt,
a.alt1,
a.alt2,
a.alt3,
a.alt4,
a.alt5,
H.alt,
a.alt6,
H.alt1,
A.alt
);
},
{
name = backdropGlyphLib;
value = {
AE = (
(
A,
1,
0
),
(
E,
1,
0
),
(
OE,
1,
0
)
);
B = (
(
D,
1,
0
),
(
E,
1,
0
),
(
H,
0,
0
),
(
P,
1,
0
),
(
R,
0,
0
),
(
Germandbls,
0,
0
),
(
germandbls,
0,
0
),
(
three,
0,
0
),
(
eight,
0,
0
)
);
C = (
(
D,
0,
0
),
(
G,
1,
0
),
(
O,
1,
0
),
(
Q,
0,
0
)
);
D = (
(
B,
0,
0
),
(
C,
0,
0
),
(
E,
0,
0
),
(
G,
0,
0
),
(
O,
1,
0
),
(
Q,
0,
0
)
);
E = (
(
B,
1,
0
),
(
D,
0,
0
),
(
F,
1,
0
),
(
H,
0,
0
)
);
Eng = (
(
N,
1,
0
),
(
j,
1,
0
)
);
F = (
(
E,
1,
0
),
(
H,
0,
0
)
);
G = (
(
A,
0,
0
),
(
C,
0,
0
),
(
D,
0,
0
),
(
H,
0,
0
),
(
O,
1,
0
),
(
Q,
0,
0
),
(
x,
0,
0
)
);
Germandbls = (
(
B,
1,
0
),
(
S,
1,
0
),
(
T,
0,
0
),
(
germandbls,
0,
0
)
);
H = (
(
B,
0,
0
),
(
D,
0,
0
),
(
E,
0,
0
),
(
F,
0,
0
),
(
I,
0,
0
),
(
J,
0,
0
),
(
K,
0,
0
),
(
L,
0,
0
),
(
M,
0,
0
),
(
N,
1,
0
),
(
P,
0,
0
),
(
R,
0,
0
),
(
U,
1,
0
)
);
I = (
(
B,
0,
0
),
(
D,
0,
0
),
(
E,
0,
0
),
(
F,
0,
0
),
(
H,
0,
0
),
(
J,
0,
0
),
(
K,
0,
0
),
(
L,
0,
0
),
(
M,
0,
0
),
(
N,
0,
0
),
(
P,
0,
0
),
(
R,
0,
0
),
(
T,
1,
0
),
(
U,
0,
0
),
(
Y,
1,
0
),
(
i,
0,
0
),
(
l,
1,
0
),
(
one,
1,
0
)
);
IJ = (
(
I,
0,
0
),
(
J,
1,
0
),
(
U,
1,
0
)
);
J = (
(
I,
1,
0
),
(
U,
0,
0
)
);
K = (
(
B,
0,
0
),
(
H,
0,
0
),
(
I,
1,
0
),
(
R,
0,
0
),
(
X,
0,
0
),
(
Y,
0,
0
)
);
L = (
(
E,
0,
0
),
(
H,
0,
0
),
(
I,
1,
0
)
);
M = (
(
H,
1,
0
),
(
I,
0,
0
),
(
O,
0,
0
),
(
N,
0,
0
),
(
V,
0,
0
),
(
W,

glyphs = (
{
glyphname = A;
lastChange = "2023-05-26 13:34:10 +0000";
layers = (
{
background = {
shapes = (
{
closed = 1;
nodes = (
(429.352,391.082,o),
(464.851,473.816,o),
(424.461,541.132,c),
(424.461,547.75,l),
(504.976,638.191,o),
(618.432,615.029,o),
(618.432,491.5,cs),
(618.432,357.86,o),
(506.094,108.642,o),
(594.01,108.642,cs),
(606.474,108.642,o),
(621.083,119.552,o),
(634.976,138.971,c),
(651.52,108.088,l),
(631.165,45.827,o),
(578.609,0.286,o),
(512.956,0.284,cs),
(391.404,0.279,o),
(386.44,137.185,o),
(401.43,225.876,cs)
);
},
{
closed = 1;
nodes = (
(432.402,385.112,l),
(408.521,442.347,o),
(380.886,474.827,o),
(354.358,474.802,cs),
(298.122,474.747,o),
(246.856,373.563,o),
(246.855,287.918,cs),
(246.853,190.699,o),
(271.504,142.543,o),
(303.891,142.523,cs),
(344.689,142.498,o),
(397.763,218.856,o),
(429.301,369.746,c),
(444.314,280.141,l),
(404.72,100.82,o),
(304.119,0.488,o),
(216.575,0.475,cs),
(-18.098,0.44,o),
(33.845,594.869,o),
(298.982,594.779,cs),
(370.562,594.754,o),
(437.524,527.247,o),
(464.167,394.721,c)
);
}
);
};
layerId = "CDFC0212-EC7A-4000-86F8-EA19B9E6D7F9";
shapes = (
{
closed = 1;
nodes = (
(145,0,o),
(207,13,o),
(224,48,c),
(226,53,l),
(224,61,o),
(223,70,o),
(223,79,cs),
(223,185,o),
(329,332,o),
(356,435,c),
(341,432,l),
(368,371,o),
(351,282,o),
(362,188,cs),
(371,116,o),
(388,1,o),
(512,1,cs),
(579,1,o),
(634,41,o),
(638,92,c),
(613,117,l),
(604,102,o),
(592,93,o),
(579,93,cs),
(490,93,o),
(536,352,o),
(500,461,cs),
(481,519,o),
(422,546,o),
(357,546,cs),
(279,546,o),
(192,508,o),
(156,439,c),
(166,427,l),
(189,455,o),
(225,475,o),
(245,475,cs),
(255,475,o),
(263,470,o),
(263,458,cs),
(263,455,o),
(262,450,o),
(260,445,cs),
(240,382,o),
(67,201,o),
(38,109,cs),
(33,91,o),
(30,76,o),
(30,62,cs),
(30,18,o),
(59,0,o),
(95,0,cs)
);
},
{
closed = 1;
nodes = (
(173,130,o),
(218,135,o),
(280,135,cs),
(326,135,o),
(380,131,o),
(449,125,c),
(457,142,o),
(464,165,o),
(464,185,cs),
(464,193,o),
(462,201,o),
(459,208,c),
(423,211,o),
(389,212,o),
(359,212,cs),
(255,212,o),
(186,193,o),
(126,128,c),
(128,121,l)
);
}
);
width = 653.52;
},
{
background = {
shapes = (
{
closed = 1;
nodes = (
(101.745,223.068,l),
(163,213,o),
(219,207,o),
(272,207,cs),
(345,207,o),
(414,218,o),
(485.323,243.068,c),
(485.323,161.068,l),
(410,135,o),
(338,117,o),
(260,117,cs),
(210,117,o),
(159,124,o),
(101.745,141.068,c)
);
},
{
closed = 1;
nodes = (
(156,488,l),
(192,564,o),
(279,607,o),
(357,607,cs),
(422,607,o),
(481,577,o),
(500,512,cs),
(536,391,o),
(489.594,102.997,o),
(579.258,102.997,cs),
(591.97,102.997,o),
(603.956,112.888,o),
(612.939,130.494,c),
(638.059,102.494,l),
(633.925,46.044,o),
(579.087,0.754,o),
(512.131,0.751,cs),
(388.164,0.747,o),
(370.667,128.876,o),
(362.272,209.288,cs),
(351.413,313.303,o),
(368,412,o),
(341,480,c),
(356,483,l),
(329,369,o),
(223,205,o),
(223,88,cs),
(223,78,o),
(224,68,o),
(225.652,59,c),
(224.26,52.956,l),
(207,14,o),
(145,0,o),
(95,0,cs),
(59,0,o),
(30,20,o),
(30,69,cs),
(30,84,o),
(33,101,o),
(38.227,121.472,cs),
(66.861,223.486,o),
(240,424,o),
(260,494,cs),
(262,500,o),
(263,505,o),
(263,509,cs),
(263,522,o),
(255,528,o),
(245,528,cs),
(225,528,o),
(189,505,o),
(166,474,c)
);
}
);
};
layerId = m002;
shapes = (
{
closed = 1;
nodes = (
(145,0,o),
(207,14,o),
(224.26,52.956,c),
(225.652,59,l),
(224,68,o),
(223,78,o),
(223,88,cs),
(223,205,o),
(329,369,o),
(356,483,c),
(341,480,l),
(368,412,o),
(351.413,313.303,o),
(362.272,209.288,cs),
(370.667,128.876,o),
(388.164,0.747,o),
(512.131,0.751,cs),
(579.087,0.754,o),
(633.925,46.044,o),
(638.059,102.494,c),
(612.939,130.494,l),
(603.956,112.888,o),
(591.97,102.997,o),
(579.258,102.997,cs),
(489.594,102.997,o),
(536,391,o),
(500,512,cs),
(481,577,o),
(422,607,o),
(357,607,cs),
(279,607,o),
(192,564,o),
(156,488,c),
(166,474,l),
(189,505,o),
(225,528,o),
(245,528,cs),
(255,528,o),
(263,522,o),
(263,509,cs),
(263,505,o),
(262,500,o),
(260,494,cs),
(240,424,o),
(66.861,223.486,o),
(38.227,121.472,cs),
(33,101,o),
(30,84,o),
(30,69,cs),
(30,20,o),
(59,0,o),
(95,0,cs)
);
},
{
closed = 1;
nodes = (
(173,144,o),
(218,150,o),
(280,150,cs),
(326,150,o),
(380,146,o),
(449,139,c),
(457,158,o),
(464,183,o),
(464,205,cs),
(464,214,o),
(462,223,o),
(459,231,c),
(423,234,o),
(389,236,o),
(359,236,cs),
(255,236,o),
(186,214,o),
(126,142,c),
(128,134,l)
);
}
);
width = 653.52;
},
{
background = {
shapes = (
{
closed = 1;
nodes = (
(429.352,391.082,o),
(464.851,473.816,o),
(424.461,541.132,c),
(424.461,547.75,l),
(504.976,638.191,o),
(618.432,615.029,o),
(618.432,491.5,cs),
(618.432,357.86,o),
(506.094,108.642,o),
(594.01,108.642,cs),
(606.474,108.642,o),
(621.083,119.552,o),
(634.976,138.971,c),
(651.52,108.088,l),
(631.165,45.827,o),
(578.609,0.286,o),
(512.956,0.284,cs),
(391.404,0.279,o),
(386.44,137.185,o),
(401.43,225.876,cs)
);
},
{
closed = 1;
nodes = (
(432.402,385.112,l),
(408.521,442.347,o),
(380.886,474.827,o),
(354.358,474.802,cs),
(298.122,474.747,o),
(246.856,373.563,o),
(246.855,287.918,cs),
(246.853,190.699,o),
(271.504,142.543,o),
(303.891,142.523,cs),
(344.689,142.498,o),
(397.763,218.856,o),
(429.301,369.746,c),
(444.314,280.141,l),
(404.72,100.82,o),
(304.119,0.488,o),
(216.575,0.475,cs),
(-18.098,0.44,o),
(33.845,594.869,o),
(298.982,594.779,cs),
(370.562,594.754,o),
(437.524,527.247,o),
(464.167,394.721,c)
);
}
);
};
layerId = m003;
shapes = (
{
closed = 1;
nodes = (
(126,0,o),
(194,17,o),
(213,63,c),
(215,70,l),
(213,81,o),
(212,93,o),
(212,105,cs),
(212,244,o),
(328,439,o),
(358,575,c),
(342,571,l),
(371,490,o),
(353,373,o),
(365,249,cs),
(374,153,o),
(394,1,o),
(530,1,cs),
(604,1,o),
(665,55,o),
(669,122,c),
(642,155,l),
(632,134,o),
(618,123,o),
(604,123,cs),
(506,123,o),
(557,465,o),
(517,609,cs),
(496,687,o),
(431,722,o),
(359,722,cs),
(273,722,o),
(177,671,o),
(138,581,c),
(149,564,l),
(174,601,o),
(214,628,o),
(236,628,cs),
(247,628,o),
(256,621,o),
(256,606,cs),
(256,601,o),
(255,595,o),
(252,588,cs),
(230,505,o),
(39,266,o),
(8,145,cs),
(2,120,o),
(-1,100,o),
(-1,82,cs),
(-1,24,o),
(31,0,o),
(71,0,cs)
);
},
{
closed = 1;
nodes = (
(156,171,o),
(206,178,o),
(274,178,cs),
(325,178,o),
(385,174,o),
(461,165,c),
(470,188,o),
(477,218,o),
(477,244,cs),
(477,255,o),
(475,265,o),
(472,275,c),
(432,278,o),
(395,281,o),
(362,281,cs),
(247,281,o),
(171,255,o),
(105,169,c),
(107,159,l)
);
}
);
width = 653.52;
}
);
unicode = 65;
},
{
color = 9;
glyphname = B;
lastChange = "2023-05-26 13:50:51 +0000";
layers = (
{
layerId = "CDFC0212-EC7A-4000-86F8-EA19B9E6D7F9";
shapes = (
{
closed = 1;
nodes = (
(485,-6,o),
(600,66,o),
(600,186,cs),
(600,279,o),
(537,328,o),
(433,328,cs),
(418,328,o),
(403,327,o),
(387,323,c),
(329,248,l),
(354,241,o),
(403,239,o),
(403,185,cs),
(403,125,o),
(366,63,o),
(298,63,cs),
(261,63,o),
(228,90,o),
(226,138,c),
(194,134,l),
(193,41,o),
(268,-6,o),
(351,-6,cs)
);
},
{
closed = 1;
nodes = (
(185,-1,o),
(240,35,o),
(240,71,cs),
(240,74,o),
(240,77,o),
(239,80,c),
(216,80,o),
(208,101,o),
(208,133,cs),
(208,215,o),
(261,371,o),
(261,449,cs),
(261,509,o),
(219,540,o),
(169,540,cs),
(135,540,o),
(98,525,o),
(68,495,c),
(68,490,l),
(80,472,o),
(84,447,o),
(84,418,cs),
(84,325,o),
(40,191,o),
(40,115,cs),
(40,29,o),
(86,-1,o),
(134,-1,cs)
);
},
{
closed = 1;
nodes = (
(448,245,o),
(553,305,o),
(553,426,cs),
(553,507,o),
(500,546,o),
(406,546,cs),
(319,546,o),
(213,484,o),
(173,350,c),
(217,334,l),
(242,432,o),
(294,480,o),
(329,480,cs),
(359,480,o),
(374,453,o),
(374,420,cs),
(374,370,o),
(340,302,o),
(278,302,cs),
(244,302,o),
(218,312,o),
(194,339,c),
(163,293,l),
(205,255,o),
(250,245,o),
(326,245,cs)
);
}
);
width = 620;
},
{
layerId = m002;
shapes = (
{
closed = 1;
nodes = (
(485,-6,o),
(597,77,o),
(597,210,cs),
(597,312,o),
(534,366,o),
(430,366,cs),
(415,366,o),
(400,365,o),
(384,361,c),
(326,278,l),
(351,270,o),
(400,268,o),
(400,209,cs),
(400,142,o),
(366,70,o),
(298,70,cs),
(261,70,o),
(228,100,o),
(226,153,c),
(194,148,l),
(193,46,o),
(268,-6,o),
(351,-6,cs)
);
},
{
closed = 1;
nodes = (
(185,0,o),
(240,39,o),
(240,79,cs),
(240,82,o),
(240,86,o),
(239,89,c),
(216,89,o),
(209,112,o),
(208,147,cs),
(205,242,o),
(258,414,o),
(258,500,cs),
(258,566,o),
(216,600,o),
(166,600,cs),
(132,600,o),
(95,583,o),
(65,550,c),
(65,545,l),
(77,525,o),
(81,497,o),
(81,465,cs),
(81,363,o),
(37,215,o),
(40,127,cs),
(43,33,o),
(86,0,o),
(134,0,cs)
);
},
{
closed = 1;
nodes = (
(445,275,o),
(550,341,o),
(550,474,cs),
(550,564,o),
(497,607,o),
(403,607,cs),
(316,607,o),
(210,538,o),
(170,390,c),
(214,373,l),
(239,481,o),
(291,534,o),
(326,534,cs),
(356,534,o),
(371,504,o),
(371,468,cs),
(371,413,o),
(337,338,o),
(275,338,cs),
(241,338,o),
(215,349,o),
(191,378,c),
(160,328,l),
(202,286,o),
(247,275,o),
(323,275,cs)
);
}
);
width = 600;
},
{
layerId = m003;
shapes = (
{
closed = 1;
nodes = (
(493,-6,o),
(614,90,o),
(614,251,cs),
(614,376,o),
(548,442,o),
(439,442,cs),
(423,442,o),
(407,440,o),
(390,435,c),
(329,334,l),
(356,325,o),
(407,322,o),
(407,250,cs),
(407,170,o),
(368,86,o),
(297,86,cs),
(258,86,o),
(223,123,o),
(221,187,c),
(188,182,l),
(187,57,o),
(265,-6,o),
(353,-6,cs)
);
},
{
closed = 1;
nodes = (
(178,1,o),
(236,49,o),
(236,97,cs),
(236,101,o),
(236,105,o),
(235,109,c),
(211,109,o),
(202,137,o),
(202,180,cs),
(202,290,o),
(258,494,o),
(258,599,cs),
(258,679,o),
(214,721,o),
(161,721,cs),
(126,721,o),
(87,701,o),
(55,660,c),
(55,654,l),
(68,630,o),
(72,596,o),
(72,562,cs),
(72,438,o),
(26,258,o),
(26,156,cs),
(26,41,o),
(74,1,o),
(125,1,cs)
);
},
{
closed = 1;
nodes = (
(455,330,o),
(565,406,o),
(565,568,cs),
(565,676,o),
(509,729,o),
(410,729,cs),
(319,729,o),
(208,646,o),
(166,471,c),
(212,450,l),
(238,576,o),
(293,640,o),
(329,640,cs),
(361,640,o),
(377,604,o),
(377,565,cs),
(377,498,o),
(341,407,o),
(276,407,cs),
(240,407,o),
(213,420,o),
(188,456,c),
(155,395,l),
(199,344,o),
(246,330,o),
(326,330,cs)
);
}
);
width = 600;
}
);
unicode = 66;
},
{
color = 9;
glyphname = C;
lastChange = "2023-05-26 13:34:10 +0000";
layers = (
{
layerId = "CDFC0212-EC7A-4000-86F8-EA19B9E6D7F9";
shapes = (
{
closed = 1;
nodes = (
(352,-4,o),
(502,55,o),
(502,205,c),
(491,209,l),
(467,153,o),
(407,122,o),
(350,122,cs),
(284,122,o),
(222,164,o),
(222,262,cs),
(222,395,o),
(284,459,o),
(328,459,cs),
(361,459,o),
(372,434,o),
(372,405,cs),
(372,384,o),
(367,361,o),
(362,340,c),
(462,340,o),
(514,394,o),
(514,447,cs),
(514,497,o),
(464,546,o),
(361,546,cs),
(152,546,o),
(35,377,o),
(35,224,cs),
(35,104,o),
(108,-5,o),
(269,-4,cs)
);
}
);
width = 533;
},
{
layerId = m002;
shapes = (
{
closed = 1;
nodes = (
(352,-4,o),
(502,62,o),
(502,228,c),
(491,233,l),
(467,171,o),
(407,136,o),
(350,136,cs),
(284,136,o),
(222,183,o),
(222,292,cs),
(222,439,o),
(284,510,o),
(328,510,cs),
(361,510,o),
(372,483,o),
(372,450,cs),
(372,427,o),
(367,402,o),
(362,378,c),
(462,378,o),
(514,438,o),
(514,497,cs),
(514,553,o),
(464,607,o),
(361,607,cs),
(152,607,o),
(35,419,o),
(35,249,cs),
(35,116,o),
(108,-5,o),
(269,-4,cs)
);
}
);
width = 600;
},
{
layerId = m003;
shapes = (
{
closed = 1;
nodes = (
(356,-4,o),
(521,75,o),
(521,272,c),
(509,278,l),
(483,204,o),
(417,163,o),
(354,163,cs),
(280,163,o),
(212,219,o),
(212,348,cs),
(212,523,o),
(280,608,o),
(330,608,cs),
(366,608,o),
(378,575,o),
(378,536,cs),
(378,509,o),
(373,480,o),
(367,451,c),
(477,451,o),
(535,522,o),
(535,592,cs),
(535,659,o),
(479,724,o),
(366,724,cs),
(136,724,o),
(6,500,o),
(6,297,cs),
(6,139,o),
(87,-5,o),
(265,-4,cs)
);
}
);
width = 596;
}
);
metricLeft = O;
unicode = 67;
},
{
glyphname = D;
lastChange = "2023-05-26 13:34:10 +0000";
layers = (
{
background = {
shapes = (
{
closed = 1;
nodes = (
(578.499,111.89,o),
(541.321,583.989,o),
(69,497,c),
(51.909,576.885,l),
(1005.68,700,o),
(570,-86.04,o),
(145.436,0.284,c),
(-18.535,42.925,o),
(149.506,326.858,o),
(86.941,431.132,c),
(86.941,437.75,l),
(167.456,528.191,o),
(280.912,505.029,o),
(280.912,381.5,cs),
(280.912,285.262,o),
(192.655,186.132,o),
(192.878,138.182,cs),
(192.896,134.304,o),
(193.297,130.761,o),
(194.142,127.581,c)
);
}
);
};
layerId = "CDFC0212-EC7A-4000-86F8-EA19B9E6D7F9";
shapes = (
{
closed = 1;
nodes = (
(426,-6,o),
(623,189,o),
(623,341,cs),
(623,451,o),
(519,546,o),
(239,546,cs),
(184,546,o),
(122,542,o),
(52,534,c),
(69,462,l),
(109,468,o),
(146,472,o),
(179,472,cs),
(364,472,o),
(456,381,o),
(456,278,cs),
(456,191,o),
(368,107,o),
(194,114,c),
(193,117,o),
(193,120,o),
(193,124,cs),
(193,167,o),
(281,271,o),
(281,359,cs),
(281,424,o),
(241,458,o),
(192,458,cs),
(158,458,o),
(120,442,o),
(87,409,c),
(87,403,l),
(98,386,o),
(102,366,o),
(102,342,cs),
(102,277,o),
(71,173,o),
(71,105,cs),
(71,53,o),
(88,13,o),
(145,0,c),
(168,-4,o),
(190,-6,o),
(212,-6,cs)
);
}
);
width = 600;
},
{
background = {
shapes = (
{
closed = 1;
nodes = (
(578.499,111.89,o),
(541.321,583.989,o),
(69,497,c),
(51.909,576.885,l),
(1005.68,700,o),
(570,-86.04,o),
(145.436,0.284,c),
(-18.535,42.925,o),
(149.506,326.858,o),
(86.941,431.132,c),
(86.941,437.75,l),
(167.456,528.191,o),
(280.912,505.029,o),
(280.912,381.5,cs),
(280.912,285.262,o),
(192.655,186.132,o),
(192.878,138.182,cs),
(192.896,134.304,o),
(193.297,130.761,o),
(194.142,127.581,c)
);
}
);
};
layerId = m002;
shapes = (
{
closed = 1;
nodes = (
(426,-6,o),
(623,211,o),
(623,379,cs),
(623,502,o),
(519,607,o),
(239,607,cs),
(184,607,o),
(122,603,o),
(52,594,c),
(69,514,l),
(109,521,o),
(146,525,o),
(179,525,cs),
(364,525,o),
(456,424,o),
(456,309,cs),
(456,213,o),
(368,120,o),
(194.142,127.581,c),
(193.297,130.761,o),
(192.896,134.304,o),
(192.878,138.182,cs),
(192.655,186.132,o),
(281,302,o),
(281,399,cs),
(281,472,o),
(241,510,o),
(192,510,cs),
(158,510,o),
(120,492,o),
(87,455,c),
(87,448,l),
(98,430,o),
(102,407,o),
(102,381,cs),
(102,308,o),
(71,193,o),
(71,117,cs),
(71,60,o),
(88,15,o),
(145.436,0.284,c),
(168,-4,o),
(190,-6,o),
(212,-6,cs)
);
}
);
width = 600;
},
{
background = {
shapes = (
{
closed = 1;
nodes = (
(578.499,111.89,o),
(541.321,583.989,o),
(69,497,c),
(51.909,576.885,l),
(1005.68,700,o),
(570,-86.04,o),
(145.436,0.284,c),
(-18.535,42.925,o),
(149.506,326.858,o),
(86.941,431.132,c),
(86.941,437.75,l),
(167.456,528.191,o),
(280.912,505.029,o),
(280.912,381.5,cs),
(280.912,285.262,o),
(192.655,186.132,o),
(192.878,138.182,cs),
(192.896,134.304,o),
(193.297,130.761,o),
(194.142,127.581,c)
);
}
);
};
layerId = m003;
shapes = (
{
closed = 1;
nodes = (
(435,-6,o),
(652,252,o),
(652,452,cs),
(652,598,o),
(538,723,o),
(229,723,cs),
(168,723,o),
(100,719,o),
(23,708,c),
(41,613,l),
(86,621,o),
(126,626,o),
(163,626,cs),
(367,626,o),
(468,506,o),
(468,369,cs),
(468,255,o),
(371,144,o),
(179,153,c),
(179,157,o),
(178,161,o),
(178,166,cs),
(178,223,o),
(275,360,o),
(275,476,cs),
(275,563,o),
(231,608,o),
(177,608,cs),
(140,608,o),
(98,587,o),
(61,543,c),
(61,534,l),
(73,513,o),
(78,485,o),
(78,454,cs),
(78,368,o),
(44,231,o),
(44,140,cs),
(44,73,o),
(62,19,o),
(126,1,c),
(151,-4,o),
(175,-6,o),
(199,-6,cs)
);
}
);
width = 600;
}
);
unicode = 68;
},
{
color = 9;
glyphname = G;
lastChange = "2023-05-26 13:34:10 +0000";
layers = (
{
layerId = "CDFC0212-EC7A-4000-86F8-EA19B9E6D7F9";
shapes = (
{
closed = 1;
nodes = (
(352,-4,o),
(502,55,o),
(502,205,c),
(491,209,l),
(467,153,o),
(407,122,o),
(350,122,cs),
(284,122,o),
(222,164,o),
(222,262,cs),
(222,395,o),
(284,459,o),
(328,459,cs),
(361,459,o),
(372,434,o),
(372,405,cs),
(372,384,o),
(367,361,o),
(362,340,c),
(462,340,o),
(514,394,o),
(514,447,cs),
(514,497,o),
(464,546,o),
(361,546,cs),
(152,546,o),
(35,377,o),
(35,224,cs),
(35,104,o),
(108,-5,o),
(269,-4,cs)
);
},
{
closed = 1;
nodes = (
(368,174,o),
(395,180,o),
(431,180,cs),
(459,180,o),
(530,184,o),
(571,178,c),
(576,195,o),
(582,224,o),
(582,259,cs),
(582,280,o),
(571,279,o),
(565,279,c),
(539,279,o),
(433,279,o),
(415,279,cs),
(354,279,o),
(333,224,o),
(333,187,c),
(341,165,l)
);
}
);
width = 600;
},
{
layerId = m002;
shapes = (
{
closed = 1;
nodes = (
(352,-4,o),
(502,62,o),
(502,228,c),
(491,233,l),
(467,171,o),
(407,136,o),
(350,136,cs),
(284,136,o),
(222,183,o),
(222,292,cs),
(222,439,o),
(284,510,o),
(328,510,cs),
(361,510,o),
(372,483,o),
(372,450,cs),
(372,427,o),
(367,402,o),
(362,378,c),
(462,378,o),
(514,438,o),
(514,497,cs),
(514,553,o),
(464,607,o),
(361,607,cs),
(152,607,o),
(35,419,o),
(35,249,cs),
(35,116,o),
(108,-5,o),
(269,-4,cs)
);
},
{
closed = 1;
nodes = (
(368,194,o),
(395,200,o),
(431,200,cs),
(459,200,o),
(530,205,o),
(571,198,c),
(576,217,o),
(582,249,o),
(582,288,cs),
(582,312,o),
(571,310,o),
(565,310,c),
(539,310,o),
(433,311,o),
(415,311,cs),
(354,311,o),
(333,249,o),
(333,208,c),
(341,184,l)
);
}
);
width = 600;
},
{
layerId = m003;
shapes = (
{
closed = 1;
nodes = (
(356,-16,o),
(520,63,o),
(520,261,c),
(509,266,l),
(482,192,o),
(415,151,o),
(352,151,cs),
(280,151,o),
(212,206,o),
(212,336,cs),
(212,512,o),
(280,596,o),
(328,596,cs),
(365,596,o),
(378,564,o),
(378,524,cs),
(378,497,o),
(371,467,o),
(366,438,c),
(476,438,o),
(534,509,o),
(534,581,cs),
(534,646,o),
(478,711,o),
(365,711,cs),
(135,711,o),
(6,487,o),
(6,285,cs),
(6,126,o),
(86,-19,o),
(263,-17,cs)
);
},
{
closed = 1;
nodes = (
(372,220,o),
(403,226,o),
(443,226,cs),
(473,226,o),
(551,232,o),
(597,224,c),
(602,247,o),
(609,285,o),
(609,331,cs),
(609,360,o),
(597,358,o),
(590,358,c),
(561,358,o),
(445,359,o),
(425,359,cs),
(358,359,o),
(335,285,o),
(335,236,c),
(343,207,l)
);
}
);
width = 604;
}
);
metricLeft = O;
unicode = 71;
},
{
glyphname = H;
lastChange = "2023-05-26 13:39:06 +0000";
layers = (
{
background = {
shapes = (
{
closed = 1;
nodes = (
(182.377,345.905,l),
(238,336,o),
(285,330,o),
(329,330,cs),
(390,330,o),
(445,341,o),
(510.546,365.905,c),
(509.115,283.905,l),
(444,259,o),
(388,248,o),
(327,248,cs),
(283,248,o),
(236,254,o),
(180.946,263.905,c)
);
},
{
closed = 1;
nodes = (
(38,460,l),
(38,530,o),
(140,605,o),
(213,605,cs),
(266,605,o),
(309,571,o),
(309,482,cs),
(309,383,o),
(253,262,o),
(253,159,cs),
(253,132,o),
(258,105,o),
(268.109,79,c),
(268.1,72.956,l),
(259,34,o),
(204,0,o),
(154,0,cs),
(109,0,o),
(68,30,o),
(68,109,cs),
(68,212,o),
(151,377,o),
(151,448,cs),
(151,475,o),
(134,489,o),
(114,489,cs),
(93,489,o),
(69,474,o),
(56,446,c)
);
},
{
closed = 1;
nodes = (
(418,308,o),
(440,409,o),
(440,475,cs),
(440,506,o),
(435,531,o),
(425,550,c),
(425,556,l),
(457,589,o),
(497,606,o),
(531,606,cs),
(580,606,o),
(620,574,o),
(620,513,cs),
(620,428,o),
(556,239,o),
(556,150,cs),
(556,119,o),
(564,99,o),
(586.219,98.503,cs),
(597.747,98.503,o),
(611.781,108.394,o),
(625.563,126,c),
(639.378,98,l),
(617.558,41.55,o),
(548.266,0.26,o),
(487.552,0.257,cs),
(408,0,o),
(386,62,o),
(386,126,cs),
(386,153,o),
(390,181,o),
(395.266,204.794,cs)
);
}
);
};
layerId = "CDFC0212-EC7A-4000-86F8-EA19B9E6D7F9";
shapes = (
{
closed = 1;
nodes = (
(204,0,o),
(259,31,o),
(268,66,c),
(268,71,l),
(258,95,o),
(253,119,o),
(253,143,cs),
(253,236,o),
(309,345,o),
(309,434,cs),
(309,514,o),
(266,545,o),
(213,545,cs),
(140,545,o),
(38,477,o),
(38,414,c),
(56,401,l),
(69,427,o),
(93,440,o),
(114,440,cs),
(134,440,o),
(151,428,o),
(151,403,cs),
(151,339,o),
(68,191,o),
(68,98,cs),
(68,27,o),
(109,0,o),
(154,0,cs)
);
},
{
closed = 1;
nodes = (
(222,237,o),
(267,242,o),
(329,242,cs),
(375,242,o),
(429,239,o),
(498,232,c),
(506,249,o),
(513,272,o),
(513,292,cs),
(513,300,o),
(511,308,o),
(508,315,c),
(472,318,o),
(438,320,o),
(408,320,cs),
(304,320,o),
(235,300,o),
(175,235,c),
(177,228,l)
);
},
{
closed = 1;
nodes = (
(548,0,o),
(618,37,o),
(639,88,c),
(626,113,l),
(612,98,o),
(598,89,o),
(586,89,cs),
(564,89,o),
(556,107,o),
(556,135,cs),
(556,215,o),
(620,385,o),
(620,462,cs),
(620,517,o),
(580,545,o),
(531,545,cs),
(497,545,o),
(457,530,o),
(425,500,c),
(425,495,l),
(435,478,o),
(440,455,o),
(440,428,cs),
(440,368,o),
(418,277,o),
(395,184,cs),
(390,163,o),
(386,138,o),
(386,113,cs),
(386,56,o),
(408,0,o),
(488,0,cs)
);
}
);
width = 653.45;
},
{
background = {
shapes = (
{
closed = 1;
nodes = (
(182.377,345.905,l),
(238,336,o),
(285,330,o),
(329,330,cs),
(390,330,o),
(445,341,o),
(510.546,365.905,c),
(509.115,283.905,l),
(444,259,o),
(388,248,o),
(327,248,cs),
(283,248,o),
(236,254,o),
(180.946,263.905,c)
);
},
{
closed = 1;
nodes = (
(38,460,l),
(38,530,o),
(140,605,o),
(213,605,cs),
(266,605,o),
(309,571,o),
(309,482,cs),
(309,383,o),
(253,262,o),
(253,159,cs),
(253,132,o),
(258,105,o),
(268.109,79,c),
(268.1,72.956,l),
(259,34,o),
(204,0,o),
(154,0,cs),
(109,0,o),
(68,30,o),
(68,109,cs),
(68,212,o),
(151,377,o),
(151,448,cs),
(151,475,o),
(134,489,o),
(114,489,cs),
(93,489,o),
(69,474,o),
(56,446,c)
);
},
{
closed = 1;
nodes = (
(418,308,o),
(440,409,o),
(440,475,cs),
(440,506,o),
(435,531,o),
(425,550,c),
(425,556,l),
(457,589,o),
(497,606,o),
(531,606,cs),
(580,606,o),
(620,574,o),
(620,513,cs),
(620,428,o),
(556,239,o),
(556,150,cs),
(556,119,o),
(564,99,o),
(586.219,98.503,cs),
(597.747,98.503,o),
(611.781,108.394,o),
(625.563,126,c),
(639.378,98,l),
(617.558,41.55,o),
(548.266,0.26,o),
(487.552,0.257,cs),
(408,0,o),
(386,62,o),
(386,126,cs),
(386,153,o),
(390,181,o),
(395.266,204.794,cs)
);
}
);
};
layerId = m002;
shapes = (
{
closed = 1;
nodes = (
(204,0,o),
(259,34,o),
(268.1,72.956,c),
(268.109,79,l),
(258,105,o),
(253,132,o),
(253,159,cs),
(253,262,o),
(309,383,o),
(309,482,cs),
(309,572,o),
(266,605,o),
(213,605,cs),
(140,605,o),
(38,535,o),
(38,460,c),
(56,446,l),
(69,474,o),
(93,489,o),
(114,489,cs),
(134,489,o),
(151,475,o),
(151,448,cs),
(151,377,o),
(68,212,o),
(68,109,cs),
(68,30,o),
(109,0,o),
(154,0,cs)
);
},
{
closed = 1;
nodes = (
(222,263,o),
(267,269,o),
(329,269,cs),
(375,269,o),
(429,265,o),
(498,258,c),
(506,277,o),
(513,302,o),
(513,324,cs),
(513,333,o),
(511,342,o),
(508,350,c),
(472,353,o),
(438,355,o),
(408,355,cs),
(304,355,o),
(235,333,o),
(175,261,c),
(177,253,l)
);
},
{
closed = 1;
nodes = (
(548.266,0.26,o),
(617.558,41.55,o),
(639.378,98,c),
(625.563,126,l),
(611.781,108.394,o),
(597.747,98.503,o),
(586.219,98.503,cs),
(564,99,o),
(556,119,o),
(556,150,cs),
(556,239,o),
(620,428,o),
(620,513,cs),
(620,575,o),
(580,605,o),
(531,605,cs),
(497,605,o),
(457,590,o),
(425,561,c),
(425,555,l),
(435,536,o),
(440,506,o),
(440,475,cs),
(440,409,o),
(418,308,o),
(395.266,204.794,cs),
(390,181,o),
(386,153,o),
(386,126,cs),
(386,62,o),
(408,0,o),
(487.552,0.257,cs)
);
}
);
width = 653.45;
},
{
background = {
shapes = (
{
closed = 1;
nodes = (
(182.377,345.905,l),
(238,336,o),
(285,330,o),
(329,330,cs),
(390,330,o),
(445,341,o),
(510.546,365.905,c),
(509.115,283.905,l),
(444,259,o),
(388,248,o),
(327,248,cs),
(283,248,o),
(236,254,o),
(180.946,263.905,c)
);
},
{
closed = 1;
nodes = (
(38,460,l),
(38,530,o),
(140,605,o),
(213,605,cs),
(266,605,o),
(309,571,o),
(309,482,cs),
(309,383,o),
(253,262,o),
(253,159,cs),
(253,132,o),
(258,105,o),
(268.109,79,c),
(268.1,72.956,l),
(259,34,o),
(204,0,o),
(154,0,cs),
(109,0,o),
(68,30,o),
(68,109,cs),
(68,212,o),
(151,377,o),
(151,448,cs),
(151,475,o),
(134,489,o),
(114,489,cs),
(93,489,o),
(69,474,o),
(56,446,c)
);
},
{
closed = 1;
nodes = (
(418,308,o),
(440,409,o),
(440,475,cs),
(440,506,o),
(435,531,o),
(425,550,c),
(425,556,l),
(457,589,o),
(497,606,o),
(531,606,cs),
(580,606,o),
(620,574,o),
(620,513,cs),
(620,428,o),
(556,239,o),
(556,150,cs),
(556,119,o),
(564,99,o),
(586.219,98.503,cs),
(597.747,98.503,o),
(611.781,108.394,o),
(625.563,126,c),
(639.378,98,l),
(617.558,41.55,o),
(548.266,0.26,o),
(487.552,0.257,cs),
(408,0,o),
(386,62,o),
(386,126,cs),
(386,153,o),
(390,181,o),
(395.266,204.794,cs)
);
}
);
};
layerId = m003;
shapes = (
{
closed = 1;
nodes = (
(190,0,o),
(251,40,o),
(261,87,c),
(261,94,l),
(250,125,o),
(244,157,o),
(244,189,cs),
(244,312,o),
(306,456,o),
(306,574,cs),
(306,679,o),
(259,720,o),
(200,720,cs),
(120,720,o),
(7,631,o),
(7,547,c),
(27,531,l),
(41,564,o),
(68,582,o),
(91,582,cs),
(113,582,o),
(132,565,o),
(132,533,cs),
(132,449,o),
(40,252,o),
(40,130,cs),
(40,36,o),
(85,0,o),
(135,0,cs)
);
},
{
closed = 1;
nodes = (
(210,313,o),
(260,320,o),
(328,320,cs),
(379,320,o),
(438,315,o),
(514,307,c),
(523,330,o),
(531,359,o),
(531,386,cs),
(531,396,o),
(529,407,o),
(525,416,c),
(486,420,o),
(448,422,o),
(415,422,cs),
(300,422,o),
(224,396,o),
(158,311,c),
(160,301,l)
);
},
{
closed = 1;
nodes = (
(570,0,o),
(646,49,o),
(670,117,c),
(655,150,l),
(640,129,o),
(624,117,o),
(612,117,cs),
(587,118,o),
(578,142,o),
(578,178,cs),
(578,284,o),
(649,509,o),
(649,610,cs),
(649,683,o),
(605,721,o),
(551,721,cs),
(513,721,o),
(469,701,o),
(434,662,c),
(434,654,l),
(445,632,o),
(450,602,o),
(450,565,cs),
(450,487,o),
(426,366,o),
(401,244,cs),
(395,215,o),
(391,182,o),
(391,150,cs),
(391,74,o),
(415,0,o),
(503,0,cs)
);
}
);
width = 653.45;
}
);
unicode = 72;
},
{
glyphname = I;
lastChange = "2023-05-26 13:34:10 +0000";
layers = (
{
background = {
shapes = (
{
closed = 1;
nodes = (
(68.01,546,l),
(141.01,628,o),
(261.01,607,o),
(261.01,495,cs),
(261.01,373.833,o),
(159.157,89.764,o),
(238.868,89.764,c),
(238.928,9.794,o),
(39.691,-81.335,o),
(40.002,128.791,cs),
(40.166,239.741,o),
(116.907,458.504,o),
(68.01,540,c)
);
}
);
};
layerId = "CDFC0212-EC7A-4000-86F8-EA19B9E6D7F9";
shapes = (
{
closed = 1;
nodes = (
(185,0,o),
(240,35,o),
(240,71,cs),
(240,75,o),
(240,77,o),
(239,81,c),
(216,81,o),
(208,102,o),
(208,133,cs),
(208,215,o),
(261,372,o),
(261,450,cs),
(261,509,o),
(219,541,o),
(169,541,cs),
(135,541,o),
(98,526,o),
(68,496,c),
(68,491,l),
(80,473,o),
(84,447,o),
(84,419,cs),
(84,326,o),
(40,192,o),
(40,116,cs),
(40,30,o),
(86,0,o),
(134,0,cs)
);
}
);
width = 281.01;
},
{
background = {
shapes = (
{
closed = 1;
nodes = (
(68.01,546,l),
(141.01,628,o),
(261.01,607,o),
(261.01,495,cs),
(261.01,373.833,o),
(159.157,89.764,o),
(238.868,89.764,c),
(238.928,9.794,o),
(39.691,-81.335,o),
(40.002,128.791,cs),
(40.166,239.741,o),
(116.907,458.504,o),
(68.01,540,c)
);
}
);
};
layerId = m002;
shapes = (
{
closed = 1;
nodes = (
(185,0,o),
(240,39,o),
(240,79,cs),
(240,83,o),
(240,86,o),
(238.868,89.764,c),
(216,90,o),
(208,113,o),
(208,148,cs),
(208,239,o),
(261,419,o),
(261,506,cs),
(261,572,o),
(219,607,o),
(169,607,cs),
(135,607,o),
(98,590,o),
(68,557,c),
(68,551,l),
(80,531,o),
(84,503,o),
(84,471,cs),
(84,368,o),
(40,213,o),
(40.002,128.791,cs),
(40,33,o),
(86,0,o),
(134,0,cs)
);
}
);
width = 281.01;
},
{
background = {
shapes = (
{
closed = 1;
nodes = (
(68.01,546,l),
(141.01,628,o),
(261.01,607,o),
(261.01,495,cs),
(261.01,373.833,o),
(159.157,89.764,o),
(238.868,89.764,c),
(238.928,9.794,o),
(39.691,-81.335,o),
(40.002,128.791,cs),
(40.166,239.741,o),
(116.907,458.504,o),
(68.01,540,c)
);
}
);
};
layerId = m003;
shapes = (
{
closed = 1;
nodes = (
(187,-89,o),
(248,-43,o),
(248,5,cs),
(248,9,o),
(248,13,o),
(246,17,c),
(221,18,o),
(212,45,o),
(212,87,cs),
(212,195,o),
(271,409,o),
(271,513,cs),
(271,591,o),
(225,633,o),
(169,633,cs),
(132,633,o),
(91,613,o),
(58,573,c),
(58,566,l),
(71,542,o),
(76,509,o),
(76,471,cs),
(76,348,o),
(27,164,o),
(27,64,cs),
(27,-50,o),
(78,-89,o),
(131,-89,cs)
);
}
);
width = 281.01;
}
);
unicode = 73;
},
{
glyphname = J;
lastChange = "2023-05-26 13:34:10 +0000";
layers = (
{
associatedMasterId = "CDFC0212-EC7A-4000-86F8-EA19B9E6D7F9";
layerId = "77F7902B-74CE-4438-ACBB-76A9E4BB1F8F";
name = "May 25, 23, 12:00";
shapes = (
{
closed = 1;
nodes = (
(-128.279,-151.174,o),
(-113.902,39.183,o),
(42.256,39.183,c),
(12.774,-23.286,o),
(19.029,-99.459,o),
(33.638,-99.459,cs),
(114.255,-99.459,o),
(53.437,303.945,o),
(110.969,576.906,c),
(161.375,611.33,o),
(269.135,606.31,o),
(292.135,556.338,c),
(213.917,230.018,o),
(261.084,-151.174,o),
(44.622,-151.174,cs)
);
}
);
width = 322.13;
},
{
associatedMasterId = "CDFC0212-EC7A-4000-86F8-EA19B9E6D7F9";
layerId = "F744FF66-811C-4F77-A15D-3E9EBD8A25D3";
name = "May 25, 23, 12:26";
shapes = (
{
closed = 1;
nodes = (
(-92.164,-80.216,l),
(-77.981,-92.637,o),
(-64.589,-98.362,o),
(-52.151,-98.362,cs),
(5.888,-98.362,o),
(43.17,26.286,o),
(43.17,176.936,cs),
(43.17,305.223,o),
(38.134,474.903,o),
(63.849,596.906,c),
(114.255,631.33,o),
(222.015,626.31,o),
(245.015,576.338,c),
(221.609,478.692,o),
(219.431,356.132,o),
(208.057,260.344,cs),
(191.33,119.485,o),
(192.044,-150.595,o),
(-11.804,-150.595,cs),
(-39.617,-150.595,o),
(-94.972,-134.253,o),
(-100.005,-86.708,c)
);
}
);
width = 255.01;
},
{
layerId = "CDFC0212-EC7A-4000-86F8-EA19B9E6D7F9";
name = Regular;
shapes = (
{
closed = 1;
nodes = (
(246,-158,o),
(314,-81,o),
(314,114,cs),
(314,172,o),
(303,261,o),
(303,315,cs),
(303,344,o),
(306,369,o),
(315,387,c),
(332,382,o),
(346,380,o),
(360,380,cs),
(415,380,o),
(440,421,o),
(440,459,cs),
(440,497,o),
(417,530,o),
(375,530,cs),
(348,530,o),
(313,524,o),
(271,484,c),
(209,517,o),
(156,531,o),
(112,531,cs),
(26,531,o),
(-21,478,o),
(-21,426,cs),
(-21,376,o),
(25,318,o),
(118,318,c),
(110,336,o),
(106,353,o),
(106,369,cs),
(106,414,o),
(137,441,o),
(176,441,cs),
(190,441,o),
(205,438,o),
(219,430,c),
(169,377,o),
(146,308,o),
(146,129,cs),
(146,-1,o),
(112,-55,o),
(41,-55,cs),
(19,-55,o),
(-3,-45,o),
(-19,-27,c),
(-30,-35,l),
(-30,-102,o),
(22,-158,o),
(121,-158,cs)
);
}
);
width = 439.51;
},
{
associatedMasterId = "CDFC0212-EC7A-4000-86F8-EA19B9E6D7F9";
layerId = "5F7887A7-0944-4B5F-B72C-0609E905FA7D";
name = "May 25, 23, 12:33";
shapes = (
{
closed = 1;
nodes = (
(167.615,-114.383,o),
(51.984,346.836,o),
(246.661,483.448,c),
(220.581,481.419,o),
(185.904,493.1,o),
(162.025,493.1,cs),
(114.14,493.1,o),
(82.646,439.505,o),
(134.558,374.369,c),
(43.957,324.64,o),
(-30.003,409.248,o),
(-30.003,486.683,cs),
(-30.003,547.893,o),
(13.133,606.619,o),
(111.363,606.619,cs),
(207.727,606.619,o),
(238.478,556.859,o),
(305.158,556.859,cs),
(325.484,556.859,o),
(345.234,607.954,o),
(362.223,619.59,c),
(399.404,610.417,o),
(434.677,538.853,o),
(423.344,507.191,c),
(287.625,485.375,o),
(285.093,307.198,o),
(285.093,185.133,cs),
(285.093,-78.102,o),
(193.606,-171.104,o),
(70.483,-171.104,cs),
(-147.935,-171.104,o),
(-153.042,49.183,o),
(34.363,49.183,c),
(4.881,-13.286,o),
(3.957,-114.383,o),
(62.217,-114.383,cs)
);
}
);
width = 392.71;
},
{
associatedMasterId = "CDFC0212-EC7A-4000-86F8-EA19B9E6D7F9";
layerId = "14930F0A-615D-4253-8021-1889562487D2";
name = "May 25, 23, 12:38";
shapes = (
{
closed = 1;
nodes = (
(150.615,-114.383,o),
(106.371,390.371,o),
(212.462,489.191,c),
(163.278,539.002,o),
(110.812,473.408,o),
(110.812,391,c),
(-116.153,391,o),
(-15.661,737.512,o),
(264.227,548.859,c),
(429.415,728.956,o),
(480.916,359.616,o),
(305.158,454.883,c),
(259.763,391,o),
(285.093,266.248,o),
(285.093,167.133,cs),
(285.093,-96.102,o),
(193.606,-171.104,o),
(70.483,-171.104,cs),
(-147.935,-171.104,o),
(-153.042,49.183,o),
(34.363,49.183,c),
(4.881,-13.286,o),
(3.957,-114.383,o),
(45.217,-114.383,cs)
);
}
);
width = 392.71;
},
{
associatedMasterId = m002;
layerId = "9987C9FE-9145-4D3A-AF2B-66C36A6AB4EE";
name = "May 25, 23, 12:00";
shapes = (
{
closed = 1;
nodes = (
(-128.279,-151.174,o),
(-113.902,39.183,o),
(42.256,39.183,c),
(12.774,-23.286,o),
(19.029,-99.459,o),
(33.638,-99.459,cs),
(114.255,-99.459,o),
(53.437,303.945,o),
(110.969,576.906,c),
(161.375,611.33,o),
(269.135,606.31,o),
(292.135,556.338,c),
(213.917,230.018,o),
(261.084,-151.174,o),
(44.622,-151.174,cs)
);
}
);
width = 322.13;
},
{
associatedMasterId = m002;
layerId = "E6B39268-F256-4EDB-B3E5-0DE5642AEE21";
name = "May 25, 23, 12:26";
shapes = (
{
closed = 1;
nodes = (
(-92.164,-80.216,l),
(-77.981,-92.637,o),
(-64.589,-98.362,o),
(-52.151,-98.362,cs),
(5.888,-98.362,o),
(43.17,26.286,o),
(43.17,176.936,cs),
(43.17,305.223,o),
(38.134,474.903,o),
(63.849,596.906,c),
(114.255,631.33,o),
(222.015,626.31,o),
(245.015,576.338,c),
(221.609,478.692,o),
(219.431,356.132,o),
(208.057,260.344,cs),
(191.33,119.485,o),
(192.044,-150.595,o),
(-11.804,-150.595,cs),
(-39.617,-150.595,o),
(-94.972,-134.253,o),
(-100.005,-86.708,c)
);
}
);
width = 255.01;
},
{
layerId = m002;
name = Regular;
shapes = (
{
closed = 1;
nodes = (
(246,-158,o),
(314,-72,o),
(314,144,cs),
(314,209,o),
(303,307,o),
(303,368,cs),
(303,400,o),
(306,428,o),
(315.178,447.883,c),
(332,442,o),
(346,440,o),
(360,440,cs),
(415,440,o),
(440,485,o),
(440,528,cs),
(440,570,o),
(417,606,o),
(375,606,cs),
(348,606,o),
(313,600,o),
(271,555,c),
(209,592,o),
(156,607,o),
(112,607,cs),
(26,607,o),
(-21,549,o),
(-21,491,cs),
(-21,435,o),
(25,371,o),
(118,371,c),
(110,391,o),
(106,410,o),
(106,427,cs),
(106,477,o),
(137,508,o),
(176,508,cs),
(190,508,o),
(205,504,o),
(219,495,c),
(169,436,o),
(146,360,o),
(145.785,161,cs),
(146,17,o),
(112,-44,o),
(41,-44,cs),
(19,-44,o),
(-3,-32,o),
(-19.368,-11.972,c),
(-29.996,-21.75,l),
(-29.996,-96.067,o),
(22,-158,o),
(121.239,-158.16,cs)
);
}
);
width = 439.51;
},
{
associatedMasterId = m002;
layerId = "088E1F22-3580-46A3-A02A-43BD8D90928B";
name = "May 25, 23, 12:33";
shapes = (
{
closed = 1;
nodes = (
(167.615,-114.383,o),
(51.984,346.836,o),
(246.661,483.448,c),
(220.581,481.419,o),
(185.904,493.1,o),
(162.025,493.1,cs),
(114.14,493.1,o),
(82.646,439.505,o),
(134.558,374.369,c),
(43.957,324.64,o),
(-30.003,409.248,o),
(-30.003,486.683,cs),
(-30.003,547.893,o),
(13.133,606.619,o),
(111.363,606.619,cs),
(207.727,606.619,o),
(238.478,556.859,o),
(305.158,556.859,cs),
(325.484,556.859,o),
(345.234,607.954,o),
(362.223,619.59,c),
(399.404,610.417,o),
(434.677,538.853,o),
(423.344,507.191,c),
(287.625,485.375,o),
(285.093,307.198,o),
(285.093,185.133,cs),
(285.093,-78.102,o),
(193.606,-171.104,o),
(70.483,-171.104,cs),
(-147.935,-171.104,o),
(-153.042,49.183,o),
(34.363,49.183,c),
(4.881,-13.286,o),
(3.957,-114.383,o),
(62.217,-114.383,cs)
);
}
);
width = 392.71;
},
{
associatedMasterId = m002;
layerId = "19B26B82-8EF8-4B96-A7B2-9BD665360AA3";
name = "May 25, 23, 12:38";
shapes = (
{
closed = 1;
nodes = (
(150.615,-114.383,o),
(106.371,390.371,o),
(212.462,489.191,c),
(163.278,539.002,o),
(110.812,473.408,o),
(110.812,391,c),
(-116.153,391,o),
(-15.661,737.512,o),
(264.227,548.859,c),
(429.415,728.956,o),
(480.916,359.616,o),
(305.158,454.883,c),
(259.763,391,o),
(285.093,266.248,o),
(285.093,167.133,cs),
(285.093,-96.102,o),
(193.606,-171.104,o),
(70.483,-171.104,cs),
(-147.935,-171.104,o),
(-153.042,49.183,o),
(34.363,49.183,c),
(4.881,-13.286,o),
(3.957,-114.383,o),
(45.217,-114.383,cs)
);
}
);
width = 392.71;
},
{
associatedMasterId = m003;
layerId = "484F1744-FA33-4475-8A0A-C6DC237FC5FB";
name = "May 25, 23, 12:00";
shapes = (
{
closed = 1;
nodes = (
(-128.279,-151.174,o),
(-113.902,39.183,o),
(42.256,39.183,c),
(12.774,-23.286,o),
(19.029,-99.459,o),
(33.638,-99.459,cs),
(114.255,-99.459,o),
(53.437,303.945,o),
(110.969,576.906,c),
(161.375,611.33,o),
(269.135,606.31,o),
(292.135,556.338,c),
(213.917,230.018,o),
(261.084,-151.174,o),
(44.622,-151.174,cs)
);
}
);
width = 322.13;
},
{
associatedMasterId = m003;
layerId = "5729523B-E93C-4D0F-BD4B-BFAC35A0E600";
name = "May 25, 23, 12:26";
shapes = (
{
closed = 1;
nodes = (
(-92.164,-80.216,l),
(-77.981,-92.637,o),
(-64.589,-98.362,o),
(-52.151,-98.362,cs),
(5.888,-98.362,o),
(43.17,26.286,o),
(43.17,176.936,cs),
(43.17,305.223,o),
(38.134,474.903,o),
(63.849,596.906,c),
(114.255,631.33,o),
(222.015,626.31,o),
(245.015,576.338,c),
(221.609,478.692,o),
(219.431,356.132,o),
(208.057,260.344,cs),
(191.33,119.485,o),
(192.044,-150.595,o),
(-11.804,-150.595,cs),
(-39.617,-150.595,o),
(-94.972,-134.253,o),
(-100.005,-86.708,c)
);
}
);
width = 255.01;
},
{
layerId = m003;
name = Regular;
shapes = (
{
closed = 1;
nodes = (
(250,-158,o),
(325,-56,o),
(325,201,cs),
(325,279,o),
(313,395,o),
(313,468,cs),
(313,506,o),
(316,539,o),
(326,563,c),
(345,556,o),
(360,554,o),
(376,554,cs),
(437,554,o),
(464,607,o),
(464,658,cs),
(464,708,o),
(439,751,o),
(392,751,cs),
(363,751,o),
(324,744,o),
(278,690,c),
(209,734,o),
(151,752,o),
(102,752,cs),
(8,752,o),
(-44,683,o),
(-44,614,cs),
(-44,548,o),
(7,471,o),
(109,471,c),
(100,495,o),
(96,518,o),
(96,538,cs),
(96,598,o),
(130,634,o),
(173,634,cs),
(188,634,o),
(205,630,o),
(220,619,c),
(165,549,o),
(140,458,o),
(140,222,cs),
(140,50,o),
(102,-22,o),
(24,-22,cs),
(0,-22,o),
(-24,-8,o),
(-42,16,c),
(-54,4,l),
(-54,-84,o),
(3,-158,o),
(113,-158,cs)
);
}
);
width = 439.51;
},
{
associatedMasterId = m003;
layerId = "3AA43E9C-9D52-4E8C-A7E7-281876DA7F8C";
name = "May 25, 23, 12:33";
shapes = (
{
closed = 1;
nodes = (
(167.615,-114.383,o),
(51.984,346.836,o),
(246.661,483.448,c),
(220.581,481.419,o),
(185.904,493.1,o),
(162.025,493.1,cs),
(114.14,493.1,o),
(82.646,439.505,o),
(134.558,374.369,c),
(43.957,324.64,o),
(-30.003,409.248,o),
(-30.003,486.683,cs),
(-30.003,547.893,o),
(13.133,606.619,o),
(111.363,606.619,cs),
(207.727,606.619,o),
(238.478,556.859,o),
(305.158,556.859,cs),
(325.484,556.859,o),
(345.234,607.954,o),
(362.223,619.59,c),
(399.404,610.417,o),
(434.677,538.853,o),
(423.344,507.191,c),
(287.625,485.375,o),
(285.093,307.198,o),
(285.093,185.133,cs),
(285.093,-78.102,o),
(193.606,-171.104,o),
(70.483,-171.104,cs),
(-147.935,-171.104,o),
(-153.042,49.183,o),
(34.363,49.183,c),
(4.881,-13.286,o),
(3.957,-114.383,o),
(62.217,-114.383,cs)
);
}
);
width = 392.71;
},
{
associatedMasterId = m003;
layerId = "F3430126-97A0-4024-9F63-E51C894E3E12";
name = "May 25, 23, 12:38";
shapes = (
{
closed = 1;
nodes = (
(150.615,-114.383,o),
(106.371,390.371,o),
(212.462,489.191,c),
(163.278,539.002,o),
(110.812,473.408,o),
(110.812,391,c),
(-116.153,391,o),
(-15.661,737.512,o),
(264.227,548.859,c),
(429.415,728.956,o),
(480.916,359.616,o),
(305.158,454.883,c),
(259.763,391,o),
(285.093,266.248,o),
(285.093,167.133,cs),
(285.093,-96.102,o),
(193.606,-171.104,o),
(70.483,-171.104,cs),
(-147.935,-171.104,o),
(-153.042,49.183,o),
(34.363,49.183,c),
(4.881,-13.286,o),
(3.957,-114.383,o),
(45.217,-114.383,cs)
);
}
);
width = 392.71;
}
);
unicode = 74;
},
{
color = 9;
glyphname = K;
lastChange = "2023-05-26 13:34:10 +0000";
layers = (
{
layerId = "CDFC0212-EC7A-4000-86F8-EA19B9E6D7F9";
shapes = (
{
closed = 1;
nodes = (
(204,0,o),
(259,31,o),
(268,66,c),
(268,71,l),
(258,95,o),
(253,119,o),
(253,143,cs),
(253,236,o),
(309,347,o),
(309,436,cs),
(309,516,o),
(266,546,o),
(213,546,cs),
(140,546,o),
(38,479,o),
(38,416,c),
(56,403,l),
(69,428,o),
(93,442,o),
(114,442,cs),
(134,442,o),
(151,429,o),
(151,405,cs),
(151,341,o),
(68,191,o),
(68,98,cs),
(68,27,o),
(109,0,o),
(154,0,cs)
);
},
{
closed = 1;
nodes = (
(561,9,o),
(599,77,o),
(606,155,c),
(598,158,l),
(591,145,o),
(581,138,o),
(568,138,cs),
(540,138,o),
(496,164,o),
(433,247,cs),
(386,308,o),
(366,351,o),
(287,351,cs),
(228,351,o),
(224,319,o),
(234,319,cs),
(255,319,o),
(253,310,o),
(317,187,cs),
(363,98,o),
(410,9,o),
(481,9,cs)
);
},
{
closed = 1;
nodes = (
(372,362,o),
(463,391,o),
(525,391,cs),
(535,391,o),
(544,390,o),
(554,389,c),
(575,420,o),
(583,450,o),
(583,474,cs),
(583,516,o),
(565,544,o),
(519,544,cs),
(463,544,o),
(345,477,o),
(324,328,c),
(345,314,l)
);
}
);
width = 600;
},
{
layerId = m002;
shapes = (
{
closed = 1;
nodes = (
(204,0,o),
(259,34,o),
(268.1,72.956,c),
(268.109,79,l),
(258,105,o),
(253,132,o),
(253,159,cs),
(253,262,o),
(309,385,o),
(309,484,cs),
(309,573,o),
(266,607,o),
(213,607,cs),
(140,607,o),
(38,532,o),
(38,462,c),
(56,448,l),
(69,476,o),
(93,491,o),
(114,491,cs),
(134,491,o),
(151,477,o),
(151,450,cs),
(151,379,o),
(68,212,o),
(68,109,cs),
(68,30,o),
(109,0,o),
(154,0,cs)
);
},
{
closed = 1;
nodes = (
(561,10,o),
(599,85,o),
(606,172,c),
(598,175,l),
(591,161,o),
(581,153,o),
(568,153,cs),
(540,153,o),
(496,182,o),
(433,274,cs),
(386,342,o),
(366,390,o),
(287,390,cs),
(228,390,o),
(224,354,o),
(234,354,cs),
(255,354,o),
(253,344,o),
(317,208,cs),
(363,109,o),
(410,10,o),
(481,10,cs)
);
},
{
closed = 1;
nodes = (
(372,402,o),
(463,434,o),
(525,434,cs),
(535,434,o),
(544,433,o),
(554,432,c),
(575,467,o),
(583,500,o),
(583,527,cs),
(583,573,o),
(565,604,o),
(519,604,cs),
(463,604,o),
(345,530,o),
(324,364,c),
(345,349,l)
);
}
);
width = 600;
},
{
layerId = m003;
shapes = (
{
closed = 1;
nodes = (
(178,-66,o),
(239,-26,o),
(249,21,c),
(249,28,l),
(238,59,o),
(232,91,o),
(232,123,cs),
(232,245,o),
(294,392,o),
(294,510,cs),
(294,616,o),
(247,656,o),
(188,656,cs),
(108,656,o),
(-5,567,o),
(-5,483,c),
(15,467,l),
(30,500,o),
(56,518,o),
(79,518,cs),
(101,518,o),
(120,501,o),
(120,469,cs),
(120,385,o),
(28,186,o),
(28,63,cs),
(28,-31,o),
(74,-66,o),
(123,-66,cs)
);
},
{
closed = 1;
nodes = (
(572,-54,o),
(614,35,o),
(622,138,c),
(613,142,l),
(605,125,o),
(594,116,o),
(580,116,cs),
(549,116,o),
(500,150,o),
(431,260,cs),
(379,341,o),
(357,398,o),
(270,398,cs),
(205,398,o),
(200,355,o),
(212,355,cs),
(235,355,o),
(232,343,o),
(303,181,cs),
(354,63,o),
(406,-54,o),
(484,-54,cs)
);
},
{
closed = 1;
nodes = (
(364,412,o),
(464,450,o),
(532,450,cs),
(543,450,o),
(553,449,o),
(564,448,c),
(587,489,o),
(596,529,o),
(596,561,cs),
(596,616,o),
(576,652,o),
(526,652,cs),
(464,652,o),
(334,564,o),
(311,367,c),
(334,349,l)
);
}
);
width = 600;
}
);
unicode = 75;
},
{
glyphname = M;
lastChange = "2023-05-26 13:52:54 +0000";
layers = (
{
background = {
shapes = (
{
closed = 0;
nodes = (
(632.706,328.071,l),
(658,386.293,o),
(679.715,439.349,o),
(723.518,439.349,cs),
(818.375,439.349,o),
(578.93,-0.452,o),
(816.33,-0.452,cs),
(874.055,-0.452,o),
(937.654,40.367,o),
(962.704,116.992,c),
(944.797,154.419,l),
(936.44,136.512,o),
(923.309,126.961,o),
(905.402,126.961,cs),
(833.592,126.961,o),
(922.638,328.861,o),
(922.644,462.7,cs),
(922.648,555.363,o),
(879.97,595.165,o),
(824.215,595.24,cs),
(755.385,595.332,o),
(686.627,537.117,o),
(633.64,431.887,c)
);
}
);
};
layerId = "CDFC0212-EC7A-4000-86F8-EA19B9E6D7F9";
shapes = (
{
closed = 1;
nodes = (
(796,-2,o),
(877,49,o),
(877,126,c),
(870,130,l),
(862,114,o),
(845,101,o),
(827,101,cs),
(807,101,o),
(799,117,o),
(799,144,cs),
(799,209,o),
(845,347,o),
(845,433,cs),
(845,516,o),
(802,552,o),
(746,552,cs),
(677,552,o),
(565,473,o),
(542,377,c),
(559,393,l),
(561,407,o),
(562,421,o),
(562,433,cs),
(562,516,o),
(519,552,o),
(463,552,cs),
(394,552,o),
(301,473,o),
(258,379,c),
(280,391,l),
(282,404,o),
(283,417,o),
(283,429,cs),
(283,519,o),
(240,552,o),
(186,552,cs),
(114,552,o),
(34,494,o),
(34,417,c),
(43,413,l),
(54,440,o),
(75,454,o),
(93,454,cs),
(109,454,o),
(122,442,o),
(122,416,cs),
(122,354,o),
(58,201,o),
(58,109,cs),
(58,29,o),
(99,0,o),
(146,0,cs),
(195,0,o),
(247,31,o),
(247,101,cs),
(247,139,o),
(243,164,o),
(243,192,cs),
(243,219,o),
(250,248,o),
(263,295,cs),
(282,366,o),
(322,412,o),
(366,412,cs),
(383,412,o),
(389,398,o),
(389,375,cs),
(389,317,o),
(349,191,o),
(349,108,cs),
(349,28,o),
(392,0,o),
(439,0,cs),
(488,0,o),
(541,32,o),
(541,104,cs),
(541,150,o),
(531,178,o),
(531,217,cs),
(531,239,o),
(536,263,o),
(542,295,cs),
(556,368,o),
(606,412,o),
(650,412,cs),
(667,412,o),
(673,398,o),
(673,376,cs),
(673,321,o),
(636,201,o),
(636,117,cs),
(636,51,o),
(655,-2,o),
(738,-2,cs)
);
}
);
width = 904.15;
},
{
background = {
shapes = (
{
closed = 0;
nodes = (
(632.706,328.071,l),
(658,386.293,o),
(679.715,439.349,o),
(723.518,439.349,cs),
(818.375,439.349,o),
(578.93,-0.452,o),
(816.33,-0.452,cs),
(874.055,-0.452,o),
(937.654,40.367,o),
(962.704,116.992,c),
(944.797,154.419,l),
(936.44,136.512,o),
(923.309,126.961,o),
(905.402,126.961,cs),
(833.592,126.961,o),
(922.638,328.861,o),
(922.644,462.7,cs),
(922.648,555.363,o),
(879.97,595.165,o),
(824.215,595.24,cs),
(755.385,595.332,o),
(686.627,537.117,o),
(633.64,431.887,c)
);
}
);
};
layerId = m002;
shapes = (
{
closed = 1;
nodes = (
(796.055,-0.452,o),
(877.147,54.921,o),
(877.147,140.302,c),
(870.354,144.303,l),
(862.267,126.738,o),
(845.309,111.961,o),
(827.402,111.961,cs),
(807,112,o),
(799,130,o),
(799,160,cs),
(799,232,o),
(845,378,o),
(845,474,cs),
(845,566,o),
(802,606,o),
(746,606,cs),
(677,606,o),
(565,518,o),
(542,412,c),
(559,429,l),
(561,445,o),
(562,460,o),
(562,474,cs),
(562,566,o),
(519,606,o),
(463,606,cs),
(394,606,o),
(301,518,o),
(258,413,c),
(280,427,l),
(282,442,o),
(283,456,o),
(283,469,cs),
(283,569,o),
(240,606,o),
(186,606,cs),
(114,606,o),
(34,542,o),
(34,456,c),
(43,452,l),
(54,481,o),
(75,497,o),
(93,497,cs),
(109,497,o),
(122,484,o),
(122,455,cs),
(122,386,o),
(58.251,223.486,o),
(58.311,121.472,cs),
(58.363,32.077,o),
(98.916,0.468,o),
(145.845,0.468,cs),
(194.614,0.468,o),
(247.27,34.426,o),
(247.27,112,cs),
(247,154,o),
(243,182,o),
(243,213,cs),
(243,243,o),
(247,282,o),
(263,334,cs),
(283,399,o),
(322,450,o),
(366,450,cs),
(383,450,o),
(389,435,o),
(389,409,cs),
(389,345,o),
(349,212,o),
(349,120,cs),
(349,31,o),
(392,0,o),
(439,0,cs),
(488,0,o),
(541,36,o),
(541,116,cs),
(541,167,o),
(531,198,o),
(531,241,cs),
(531,265,o),
(534,298,o),
(542,334,cs),
(557,402,o),
(606,450,o),
(650,450,cs),
(667,450,o),
(673,435,o),
(673,410,cs),
(673,349,o),
(636,223,o),
(635.701,130.051,cs),
(635.701,56.71,o),
(655.018,-0.452,o),
(738.33,-0.452,cs)
);
}
);
width = 904.15;
},
{
background = {
shapes = (
{
closed = 0;
nodes = (
(632.706,328.071,l),
(658,386.293,o),
(679.715,439.349,o),
(723.518,439.349,cs),
(818.375,439.349,o),
(578.93,-0.452,o),
(816.33,-0.452,cs),
(874.055,-0.452,o),
(937.654,40.367,o),
(962.704,116.992,c),
(944.797,154.419,l),
(936.44,136.512,o),
(923.309,126.961,o),
(905.402,126.961,cs),
(833.592,126.961,o),
(922.638,328.861,o),
(922.644,462.7,cs),
(922.648,555.363,o),
(879.97,595.165,o),
(824.215,595.24,cs),
(755.385,595.332,o),
(686.627,537.117,o),
(633.64,431.887,c)
);
}
);
};
layerId = m003;
shapes = (
{
closed = 1;
nodes = (
(831,-3,o),
(920,62,o),
(920,164,c),
(913,169,l),
(904,148,o),
(885,130,o),
(866,130,cs),
(843,130,o),
(834,152,o),
(834,187,cs),
(834,273,o),
(885,443,o),
(885,557,cs),
(885,667,o),
(837,714,o),
(776,714,cs),
(700,714,o),
(576,609,o),
(551,483,c),
(569,503,l),
(572,522,o),
(573,540,o),
(573,557,cs),
(573,666,o),
(526,714,o),
(464,714,cs),
(388,714,o),
(285,610,o),
(237,485,c),
(262,501,l),
(264,519,o),
(265,536,o),
(265,551,cs),
(265,670,o),
(218,714,o),
(158,714,cs),
(79,714,o),
(-9,637,o),
(-9,536,c),
(0,530,l),
(13,565,o),
(36,584,o),
(56,584,cs),
(73,584,o),
(88,569,o),
(88,535,cs),
(88,452,o),
(18,266,o),
(18,145,cs),
(18,38,o),
(62,1,o),
(114,1,cs),
(168,1,o),
(226,41,o),
(226,133,cs),
(226,183,o),
(221,217,o),
(221,254,cs),
(221,289,o),
(226,328,o),
(243,390,cs),
(264,468,o),
(308,529,o),
(356,529,cs),
(376,528,o),
(382,511,o),
(382,480,cs),
(382,403,o),
(338,252,o),
(338,143,cs),
(338,37,o),
(385,0,o),
(437,0,cs),
(491,0,o),
(550,43,o),
(550,138,cs),
(550,199,o),
(539,236,o),
(539,287,cs),
(539,315,o),
(542,348,o),
(551,391,cs),
(567,471,o),
(621,529,o),
(669,529,cs),
(689,528,o),
(695,511,o),
(695,481,cs),
(695,408,o),
(655,262,o),
(654,152,cs),
(654,65,o),
(675,-3,o),
(767,-3,cs)
);
}
);
width = 904.15;
}
);
unicode = 77;
},
{
color = 9;
glyphname = N;
lastChange = "2023-05-26 13:34:10 +0000";
layers = (
{
background = {
shapes = (
{
closed = 1;
nodes = (
(244.246,378.628,l),
(290.921,517.302,o),
(397.318,595.346,o),
(477.005,595.24,cs),
(532.76,595.165,o),
(575.438,555.363,o),
(575.434,462.7,cs),
(575.428,328.861,o),
(486.382,126.961,o),
(558.192,126.961,c),
(576.099,126.961,o),
(589.23,136.512,o),
(597.587,154.419,c),
(615.494,116.992,l),
(590.444,40.367,o),
(526.845,-0.452,o),
(469.12,-0.452,cs),
(231.72,-0.452,o),
(471.165,439.349,o),
(376.308,439.349,cs),
(315.424,439.349,o),
(258.572,336.845,o),
(244.246,260.442,c)
);
},
{
closed = 1;
nodes = (
(2.06,455,l),
(16.833,529.734,o),
(102.801,595.149,o),
(174.441,595.157,cs),
(229.099,595.163,o),
(275.417,557.098,o),
(275.417,456.054,cs),
(275.417,333.844,o),
(202.543,194.519,o),
(255.06,79,c),
(255.365,72.956,l),
(248.738,34.426,o),
(197.404,0.468,o),
(148.635,0.468,cs),
(101.706,0.468,o),
(57.153,32.077,o),
(57.101,121.472,cs),
(57.041,223.486,o),
(110.963,374.738,o),
(110.963,444.314,cs),
(110.963,504.135,o),
(50.611,493,o),
(26.06,441,c)
);
}
);
};
layerId = "CDFC0212-EC7A-4000-86F8-EA19B9E6D7F9";
shapes = (
{
closed = 1;
nodes = (
(533,0,o),
(510,114,o),
(498,114,cs),
(378,114,o),
(319,541,o),
(182,541,cs),
(118,541,o),
(79,523,o),
(67,440,c),
(72,438,l),
(82,452,o),
(120,462,o),
(131,462,cs),
(228,462,o),
(310,0,o),
(463,0,c)
);
},
{
closed = 1;
nodes = (
(185,0,o),
(240,35,o),
(240,71,cs),
(240,75,o),
(240,77,o),
(239,81,c),
(216,81,o),
(208,102,o),
(208,133,cs),
(208,215,o),
(261,372,o),
(261,450,cs),
(261,509,o),
(219,541,o),
(169,541,cs),
(135,541,o),
(98,526,o),
(68,496,c),
(68,491,l),
(80,473,o),
(84,492,o),
(84,464,cs),
(84,371,o),
(40,192,o),
(40,116,cs),
(40,30,o),
(86,0,o),
(134,0,cs)
);
},
{
closed = 1;
nodes = (
(514,0,o),
(559,35,o),
(559,71,cs),
(559,75,o),
(559,77,o),
(558,81,c),
(535,81,o),
(537,102,o),
(537,133,cs),
(537,215,o),
(590,372,o),
(590,450,cs),
(590,509,o),
(548,541,o),
(498,541,cs),
(464,541,o),
(427,526,o),
(397,496,c),
(397,491,l),
(409,473,o),
(413,447,o),
(413,419,cs),
(413,326,o),
(369,192,o),
(369,116,cs),
(369,30,o),
(415,0,o),
(463,0,cs)
);
}
);
width = 620.86;
},
{
associatedMasterId = "CDFC0212-EC7A-4000-86F8-EA19B9E6D7F9";
background = {
shapes = (
{
closed = 1;
nodes = (
(244.246,378.628,l),
(290.921,517.302,o),
(397.318,595.346,o),
(477.005,595.24,cs),
(532.76,595.165,o),
(575.438,555.363,o),
(575.434,462.7,cs),
(575.428,328.861,o),
(486.382,126.961,o),
(558.192,126.961,c),
(576.099,126.961,o),
(589.23,136.512,o),
(597.587,154.419,c),
(615.494,116.992,l),
(590.444,40.367,o),
(526.845,-0.452,o),
(469.12,-0.452,cs),
(231.72,-0.452,o),
(471.165,439.349,o),
(376.308,439.349,cs),
(315.424,439.349,o),
(258.572,336.845,o),
(244.246,260.442,c)
);
},
{
closed = 1;
nodes = (
(2.06,455,l),
(16.833,529.734,o),
(102.801,595.149,o),
(174.441,595.157,cs),
(229.099,595.163,o),
(275.417,557.098,o),
(275.417,456.054,cs),
(275.417,333.844,o),
(202.543,194.519,o),
(255.06,79,c),
(255.365,72.956,l),
(248.738,34.426,o),
(197.404,0.468,o),
(148.635,0.468,cs),
(101.706,0.468,o),
(57.153,32.077,o),
(57.101,121.472,cs),
(57.041,223.486,o),
(110.963,374.738,o),
(110.963,444.314,cs),
(110.963,504.135,o),
(50.611,493,o),
(26.06,441,c)
);
}
);
};
layerId = "673B596C-8DC2-4FD5-9F29-B2E065A52C7D";
name = "May 25, 23, 13:23";
shapes = (
{
closed = 1;
nodes = (
(65.141,491.104,o),
(120.963,509.135,o),
(120.963,449.314,cs),
(120.963,379.738,o),
(57.041,223.486,o),
(57.101,121.472,cs),
(57.153,32.077,o),
(101.706,0.468,o),
(148.635,0.468,cs),
(197.404,0.468,o),
(248.738,34.426,o),
(255.365,72.956,c),
(255.06,79,l),
(219.88,156.384,o),
(245.455,246.695,o),
(266.175,334.625,c),
(291.533,392.233,o),
(332.895,444.349,o),
(376.308,444.349,cs),
(471.165,444.349,o),
(231.72,-0.452,o),
(469.12,-0.452,cs),
(526.845,-0.452,o),
(605.859,56.687,o),
(605.859,139.108,c),
(598.374,144.303,l),
(591.357,128.919,o),
(576.099,111.961,o),
(558.192,111.961,cs),
(486.382,111.961,o),
(575.428,333.861,o),
(575.434,467.7,cs),
(575.438,560.363,o),
(532.76,600.165,o),
(477.005,600.24,cs),
(408.175,600.332,o),
(309.417,522.117,o),
(256.43,396.887,c),
(283.106,419.534,l),
(297.028,551.834,o),
(246.029,600.164,o),
(184.441,600.157,cs),
(112.801,600.149,o),
(40.002,539.63,o),
(40.002,450.352,c),
(48.298,445.43,l)
);
}
);
width = 620.86;
},
{
background = {
shapes = (
{
closed = 1;
nodes = (
(244.246,378.628,l),
(290.921,517.302,o),
(397.318,595.346,o),
(477.005,595.24,cs),
(532.76,595.165,o),
(575.438,555.363,o),
(575.434,462.7,cs),
(575.428,328.861,o),
(486.382,126.961,o),
(558.192,126.961,c),
(576.099,126.961,o),
(589.23,136.512,o),
(597.587,154.419,c),
(615.494,116.992,l),
(590.444,40.367,o),
(526.845,-0.452,o),
(469.12,-0.452,cs),
(231.72,-0.452,o),
(471.165,439.349,o),
(376.308,439.349,cs),
(315.424,439.349,o),
(258.572,336.845,o),
(244.246,260.442,c)
);
},
{
closed = 1;
nodes = (
(2.06,455,l),
(16.833,529.734,o),
(102.801,595.149,o),
(174.441,595.157,cs),
(229.099,595.163,o),
(275.417,557.098,o),
(275.417,456.054,cs),
(275.417,333.844,o),
(202.543,194.519,o),
(255.06,79,c),
(255.365,72.956,l),
(248.738,34.426,o),
(197.404,0.468,o),
(148.635,0.468,cs),
(101.706,0.468,o),
(57.153,32.077,o),
(57.101,121.472,cs),
(57.041,223.486,o),
(110.963,374.738,o),
(110.963,444.314,cs),
(110.963,504.135,o),
(50.611,493,o),
(26.06,441,c)
);
}
);
};
layerId = m002;
shapes = (
{
closed = 1;
nodes = (
(533,0,o),
(510,127,o),
(498,127,cs),
(378,127,o),
(319,601,o),
(182,601,cs),
(118,601,o),
(79,581,o),
(67,489,c),
(72,487,l),
(82,502,o),
(120,513,o),
(131,513,cs),
(228,513,o),
(310,0,o),
(463,0,c)
);
},
{
closed = 1;
nodes = (
(185,0,o),
(240,39,o),
(240,79,cs),
(240,83,o),
(240,86,o),
(238.868,89.764,c),
(216,90,o),
(208,113,o),
(208,148,cs),
(208,239,o),
(261,413,o),
(261.01,500,cs),
(261,566,o),
(219,601,o),
(169,601,cs),
(135,601,o),
(98,584,o),
(68.01,551,c),
(68.01,545,l),
(80,525,o),
(84,547,o),
(84,515,cs),
(84,412,o),
(40,213,o),
(40.002,128.791,cs),
(40,33,o),
(86,0,o),
(134,0,cs)
);
},
{
closed = 1;
nodes = (
(514,0,o),
(559,39,o),
(559,79,cs),
(559,83,o),
(559,86,o),
(558,90,c),
(535,90,o),
(537,113,o),
(537,148,cs),
(537,239,o),
(590,413,o),
(590,500,cs),
(590,566,o),
(548,601,o),
(498,601,cs),
(464,601,o),
(427,584,o),
(397,551,c),
(397,545,l),
(409,525,o),
(413,497,o),
(413,465,cs),
(413,362,o),
(369,213,o),
(369,129,cs),
(369,33,o),
(415,0,o),
(463,0,cs)
);
}
);
width = 620.86;
},
{
associatedMasterId = m002;
background = {
shapes = (
{
closed = 1;
nodes = (
(244.246,378.628,l),
(290.921,517.302,o),
(397.318,595.346,o),
(477.005,595.24,cs),
(532.76,595.165,o),
(575.438,555.363,o),
(575.434,462.7,cs),
(575.428,328.861,o),
(486.382,126.961,o),
(558.192,126.961,c),
(576.099,126.961,o),
(589.23,136.512,o),
(597.587,154.419,c),
(615.494,116.992,l),
(590.444,40.367,o),
(526.845,-0.452,o),
(469.12,-0.452,cs),
(231.72,-0.452,o),
(471.165,439.349,o),
(376.308,439.349,cs),
(315.424,439.349,o),
(258.572,336.845,o),
(244.246,260.442,c)
);
},
{
closed = 1;
nodes = (
(2.06,455,l),
(16.833,529.734,o),
(102.801,595.149,o),
(174.441,595.157,cs),
(229.099,595.163,o),
(275.417,557.098,o),
(275.417,456.054,cs),
(275.417,333.844,o),
(202.543,194.519,o),
(255.06,79,c),
(255.365,72.956,l),
(248.738,34.426,o),
(197.404,0.468,o),
(148.635,0.468,cs),
(101.706,0.468,o),
(57.153,32.077,o),
(57.101,121.472,cs),
(57.041,223.486,o),
(110.963,374.738,o),
(110.963,444.314,cs),
(110.963,504.135,o),
(50.611,493,o),
(26.06,441,c)
);
}
);
};
layerId = "A5E0AC5D-5C10-461D-B32B-D39E0C64F12E";
name = "May 25, 23, 13:23";
shapes = (
{
closed = 1;
nodes = (
(65.141,491.104,o),
(120.963,509.135,o),
(120.963,449.314,cs),
(120.963,379.738,o),
(57.041,223.486,o),
(57.101,121.472,cs),
(57.153,32.077,o),
(101.706,0.468,o),
(148.635,0.468,cs),
(197.404,0.468,o),
(248.738,34.426,o),
(255.365,72.956,c),
(255.06,79,l),
(219.88,156.384,o),
(245.455,246.695,o),
(266.175,334.625,c),
(291.533,392.233,o),
(332.895,444.349,o),
(376.308,444.349,cs),
(471.165,444.349,o),
(231.72,-0.452,o),
(469.12,-0.452,cs),
(526.845,-0.452,o),
(605.859,56.687,o),
(605.859,139.108,c),
(598.374,144.303,l),
(591.357,128.919,o),
(576.099,111.961,o),
(558.192,111.961,cs),
(486.382,111.961,o),
(575.428,333.861,o),
(575.434,467.7,cs),
(575.438,560.363,o),
(532.76,600.165,o),
(477.005,600.24,cs),
(408.175,600.332,o),
(309.417,522.117,o),
(256.43,396.887,c),
(283.106,419.534,l),
(297.028,551.834,o),
(246.029,600.164,o),
(184.441,600.157,cs),
(112.801,600.149,o),
(40.002,539.63,o),
(40.002,450.352,c),
(48.298,445.43,l)
);
}
);
width = 620.86;
},
{
background = {
shapes = (
{
closed = 1;
nodes = (
(244.246,378.628,l),
(290.921,517.302,o),
(397.318,595.346,o),
(477.005,595.24,cs),
(532.76,595.165,o),
(575.438,555.363,o),
(575.434,462.7,cs),
(575.428,328.861,o),
(486.382,126.961,o),
(558.192,126.961,c),
(576.099,126.961,o),
(589.23,136.512,o),
(597.587,154.419,c),
(615.494,116.992,l),
(590.444,40.367,o),
(526.845,-0.452,o),
(469.12,-0.452,cs),
(231.72,-0.452,o),
(471.165,439.349,o),
(376.308,439.349,cs),
(315.424,439.349,o),
(258.572,336.845,o),
(244.246,260.442,c)
);
},
{
closed = 1;
nodes = (
(2.06,455,l),
(16.833,529.734,o),
(102.801,595.149,o),
(174.441,595.157,cs),
(229.099,595.163,o),
(275.417,557.098,o),
(275.417,456.054,cs),
(275.417,333.844,o),
(202.543,194.519,o),
(255.06,79,c),
(255.365,72.956,l),
(248.738,34.426,o),
(197.404,0.468,o),
(148.635,0.468,cs),
(101.706,0.468,o),
(57.153,32.077,o),
(57.101,121.472,cs),
(57.041,223.486,o),
(110.963,374.738,o),
(110.963,444.314,cs),
(110.963,504.135,o),
(50.611,493,o),
(26.06,441,c)
);
}
);
};
layerId = m003;
shapes = (
{
closed = 1;
nodes = (
(555,0,o),
(530,151,o),
(517,151,cs),
(384,151,o),
(319,715,o),
(168,715,cs),
(98,715,o),
(55,691,o),
(42,582,c),
(47,579,l),
(58,597,o),
(100,610,o),
(112,610,cs),
(219,610,o),
(309,0,o),
(478,0,c)
);
},
{
closed = 1;
nodes = (
(172,0,o),
(232,46,o),
(232,94,cs),
(232,99,o),
(232,102,o),
(231,107,c),
(206,107,o),
(197,134,o),
(197,176,cs),
(197,284,o),
(255,491,o),
(255,595,cs),
(255,673,o),
(209,715,o),
(154,715,cs),
(117,715,o),
(76,695,o),
(43,656,c),
(43,648,l),
(56,625,o),
(60,651,o),
(60,613,cs),
(60,490,o),
(12,253,o),
(12,153,cs),
(12,39,o),
(63,0,o),
(115,0,cs)
);
},
{
closed = 1;
nodes = (
(534,0,o),
(584,46,o),
(584,94,cs),
(584,99,o),
(584,102,o),
(583,107,c),
(558,107,o),
(560,134,o),
(560,176,cs),
(560,284,o),
(618,491,o),
(618,595,cs),
(618,673,o),
(572,715,o),
(517,715,cs),
(479,715,o),
(438,695,o),
(405,656,c),
(405,648,l),
(419,625,o),
(423,591,o),
(423,553,cs),
(423,431,o),
(375,253,o),
(375,153,cs),
(375,39,o),
(425,0,o),
(478,0,cs)
);
}
);
width = 620.86;
},
{
associatedMasterId = m003;
background = {
shapes = (
{
closed = 1;
nodes = (
(244.246,378.628,l),
(290.921,517.302,o),
(397.318,595.346,o),
(477.005,595.24,cs),
(532.76,595.165,o),
(575.438,555.363,o),
(575.434,462.7,cs),
(575.428,328.861,o),
(486.382,126.961,o),
(558.192,126.961,c),
(576.099,126.961,o),
(589.23,136.512,o),
(597.587,154.419,c),
(615.494,116.992,l),
(590.444,40.367,o),
(526.845,-0.452,o),
(469.12,-0.452,cs),
(231.72,-0.452,o),
(471.165,439.349,o),
(376.308,439.349,cs),
(315.424,439.349,o),
(258.572,336.845,o),
(244.246,260.442,c)
);
},
{
closed = 1;
nodes = (
(2.06,455,l),
(16.833,529.734,o),
(102.801,595.149,o),
(174.441,595.157,cs),
(229.099,595.163,o),
(275.417,557.098,o),
(275.417,456.054,cs),
(275.417,333.844,o),
(202.543,194.519,o),
(255.06,79,c),
(255.365,72.956,l),
(248.738,34.426,o),
(197.404,0.468,o),
(148.635,0.468,cs),
(101.706,0.468,o),
(57.153,32.077,o),
(57.101,121.472,cs),
(57.041,223.486,o),
(110.963,374.738,o),
(110.963,444.314,cs),
(110.963,504.135,o),
(50.611,493,o),
(26.06,441,c)
);
}
);
};
layerId = "BC5F7932-1C9F-4289-8EB3-42498AD89704";
name = "May 25, 23, 13:23";
shapes = (
{
closed = 1;
nodes = (
(65.141,491.104,o),
(120.963,509.135,o),
(120.963,449.314,cs),
(120.963,379.738,o),
(57.041,223.486,o),
(57.101,121.472,cs),
(57.153,32.077,o),
(101.706,0.468,o),
(148.635,0.468,cs),
(197.404,0.468,o),
(248.738,34.426,o),
(255.365,72.956,c),
(255.06,79,l),
(219.88,156.384,o),
(245.455,246.695,o),
(266.175,334.625,c),
(291.533,392.233,o),
(332.895,444.349,o),
(376.308,444.349,cs),
(471.165,444.349,o),
(231.72,-0.452,o),
(469.12,-0.452,cs),
(526.845,-0.452,o),
(605.859,56.687,o),
(605.859,139.108,c),
(598.374,144.303,l),
(591.357,128.919,o),
(576.099,111.961,o),
(558.192,111.961,cs),
(486.382,111.961,o),
(575.428,333.861,o),
(575.434,467.7,cs),
(575.438,560.363,o),
(532.76,600.165,o),
(477.005,600.24,cs),
(408.175,600.332,o),
(309.417,522.117,o),
(256.43,396.887,c),
(283.106,419.534,l),
(297.028,551.834,o),
(246.029,600.164,o),
(184.441,600.157,cs),
(112.801,600.149,o),
(40.002,539.63,o),
(40.002,450.352,c),
(48.298,445.43,l)
);
}
);
width = 620.86;
}
);
unicode = 78;
},
{
glyphname = O;
lastChange = "2023-05-26 13:34:10 +0000";
layers = (
{
background = {
shapes = (
{
closed = 1;
nodes = (
(654.908,-6,o),
(724.548,601.177,o),
(360.321,601.177,cs),
(-14.96,601.177,o),
(-94.548,-6,o),
(275.759,-6,cs)
);
},
{
closed = 1;
nodes = (
(183.107,102.341,o),
(193.603,492.822,o),
(325.4,492.822,cs),
(446.893,492.822,o),
(436.291,102.341,o),
(304.436,102.341,cs)
);
}
);
};
layerId = "CDFC0212-EC7A-4000-86F8-EA19B9E6D7F9";
shapes = (
{
closed = 1;
nodes = (
(485,-6,o),
(600,166,o),
(600,314,cs),
(600,436,o),
(524,546,o),
(360,546,cs),
(152,546,o),
(35,378,o),
(35,223,cs),
(35,103,o),
(111,-6,o),
(275.759,-6,cs)
);
},
{
closed = 1;
nodes = (
(248,91,o),
(220,169,o),
(220,251,cs),
(220,350,o),
(255,449,o),
(325,449,cs),
(382,449,o),
(410,371,o),
(410,284,cs),
(410,190,o),
(374,91,o),
(304,92,cs)
);
}
);
width = 635;
},
{
background = {
shapes = (
{
closed = 1;
nodes = (
(654.908,-6,o),
(724.548,601.177,o),
(360.321,601.177,cs),
(-14.96,601.177,o),
(-94.548,-6,o),
(275.759,-6,cs)
);
},
{
closed = 1;
nodes = (
(183.107,102.341,o),
(193.603,492.822,o),
(325.4,492.822,cs),
(446.893,492.822,o),
(436.291,102.341,o),
(304.436,102.341,cs)
);
}
);
};
layerId = m002;
shapes = (
{
closed = 1;
nodes = (
(485,-6,o),
(600,185,o),
(600,350,cs),
(600,485,o),
(524,607,o),
(360,607,cs),
(152,607,o),
(35,421,o),
(35,248,cs),
(35,115,o),
(111,-6,o),
(275.759,-6,cs)
);
},
{
closed = 1;
nodes = (
(248,102,o),
(220,188,o),
(220,279,cs),
(220,389,o),
(255,499,o),
(325,499,cs),
(382,499,o),
(410,413,o),
(410,316,cs),
(410,212,o),
(374,102,o),
(304.436,102.341,cs)
);
}
);
width = 635;
},
{
background = {
shapes = (
{
closed = 1;
nodes = (
(654.908,-6,o),
(724.548,601.177,o),
(360.321,601.177,cs),
(-14.96,601.177,o),
(-94.548,-6,o),
(275.759,-6,cs)
);
},
{
closed = 1;
nodes = (
(183.107,102.341,o),
(193.603,492.822,o),
(325.4,492.822,cs),
(446.893,492.822,o),
(436.291,102.341,o),
(304.436,102.341,cs)
);
}
);
};
layerId = m003;
shapes = (
{
closed = 1;
nodes = (
(502,-6,o),
(629,221,o),
(629,418,cs),
(629,578,o),
(545,723,o),
(364,723,cs),
(135,723,o),
(6,502,o),
(6,296,cs),
(6,138,o),
(90,-6,o),
(271,-6,cs)
);
},
{
closed = 1;
nodes = (
(241,123,o),
(210,225,o),
(210,333,cs),
(210,464,o),
(249,595,o),
(326,595,cs),
(389,595,o),
(419,493,o),
(419,377,cs),
(419,253,o),
(380,123,o),
(303,123,cs)
);
}
);
width = 635;
}
);
unicode = 79;
},
{
color = 9;
glyphname = P;
lastChange = "2023-05-26 13:34:10 +0000";
layers = (
{
layerId = "CDFC0212-EC7A-4000-86F8-EA19B9E6D7F9";
shapes = (
{
closed = 1;
nodes = (
(465,178,o),
(577,252,o),
(577,400,cs),
(577,499,o),
(520,546,o),
(420,546,cs),
(328,546,o),
(215,472,o),
(173,307,c),
(220,287,l),
(246,408,o),
(302,465,o),
(339,465,cs),
(371,465,o),
(386,433,o),
(386,393,cs),
(386,332,o),
(350,249,o),
(284,249,cs),
(248,249,o),
(216,277,o),
(214,327,c),
(183,322,l),
(182,226,o),
(255,178,o),
(335,178,cs)
);
},
{
closed = 1;
nodes = (
(185,0,o),
(240,35,o),
(240,71,cs),
(240,75,o),
(240,77,o),
(239,81,c),
(216,81,o),
(208,102,o),
(208,133,cs),
(208,215,o),
(261,372,o),
(261,450,cs),
(261,509,o),
(219,541,o),
(169,541,cs),
(135,541,o),
(98,526,o),
(68,496,c),
(68,491,l),
(80,473,o),
(84,447,o),
(84,419,cs),
(84,326,o),
(40,192,o),
(40,116,cs),
(40,30,o),
(86,0,o),
(134,0,cs)
);
}
);
width = 600;
},
{
layerId = m002;
shapes = (
{
closed = 1;
nodes = (
(465,198,o),
(577,280,o),
(577,444,cs),
(577,554,o),
(520,607,o),
(420,607,cs),
(328,607,o),
(215,524,o),
(173,341,c),
(220,319,l),
(246,453,o),
(302,517,o),
(339,517,cs),
(371,517,o),
(386,481,o),
(386,437,cs),
(386,369,o),
(350,277,o),
(284,277,cs),
(248,277,o),
(216,308,o),
(214,363,c),
(183,358,l),
(182,251,o),
(255,198,o),
(335,198,cs)
);
},
{
closed = 1;
nodes = (
(185,0,o),
(240,39,o),
(240,79,cs),
(240,83,o),
(240,86,o),
(238.868,89.764,c),
(216,90,o),
(208,113,o),
(208,148,cs),
(208,239,o),
(261,413,o),
(261.01,500,cs),
(261,566,o),
(219,601,o),
(169,601,cs),
(135,601,o),
(98,584,o),
(68.01,551,c),
(68.01,545,l),
(80,525,o),
(84,497,o),
(84,465,cs),
(84,362,o),
(40,213,o),
(40.002,128.791,cs),
(40,33,o),
(86,0,o),
(134,0,cs)
);
}
);
width = 600;
},
{
layerId = m003;
shapes = (
{
closed = 1;
nodes = (
(495,235,o),
(618,333,o),
(618,528,cs),
(618,659,o),
(556,722,o),
(446,722,cs),
(344,722,o),
(219,624,o),
(173,406,c),
(225,380,l),
(254,539,o),
(316,615,o),
(357,615,cs),
(391,615,o),
(408,572,o),
(408,520,cs),
(408,439,o),
(368,330,o),
(296,330,cs),
(256,330,o),
(220,366,o),
(218,432,c),
(184,426,l),
(183,299,o),
(263,235,o),
(351,235,cs)
);
},
{
closed = 1;
nodes = (
(187,0,o),
(247,46,o),
(247,95,cs),
(247,99,o),
(247,102,o),
(245,107,c),
(220,107,o),
(212,134,o),
(212,176,cs),
(212,285,o),
(271,491,o),
(271,595,cs),
(271,673,o),
(224,715,o),
(169,715,cs),
(131,715,o),
(90,695,o),
(57,655,c),
(57,648,l),
(71,625,o),
(75,592,o),
(75,553,cs),
(75,431,o),
(27,253,o),
(27,153,cs),
(27,39,o),
(77,0,o),
(130,0,cs)
);
}
);
width = 614;
}
);
metricLeft = I;
unicode = 80;
},
{
color = 9;
glyphname = R;
lastChange = "2023-05-26 13:51:22 +0000";
layers = (
{
layerId = "CDFC0212-EC7A-4000-86F8-EA19B9E6D7F9";
shapes = (
{
closed = 1;
nodes = (
(465,214,o),
(577,281,o),
(577,414,cs),
(577,503,o),
(520,546,o),
(420,546,cs),
(328,546,o),
(215,478,o),
(173,330,c),
(220,312,l),
(246,421,o),
(302,473,o),
(339,473,cs),
(371,473,o),
(386,444,o),
(386,408,cs),
(386,353,o),
(350,278,o),
(284,278,cs),
(248,278,o),
(216,304,o),
(214,348,c),
(183,344,l),
(182,257,o),
(255,214,o),
(335,214,cs)
);
},
{
closed = 1;
nodes = (
(185,-1,o),
(240,35,o),
(240,71,cs),
(240,74,o),
(240,77,o),
(239,80,c),
(216,80,o),
(208,101,o),
(208,133,cs),
(208,215,o),
(261,371,o),
(261,449,cs),
(261,509,o),
(219,540,o),
(169,540,cs),
(135,540,o),
(98,525,o),
(68,495,c),
(68,490,l),
(80,472,o),
(84,447,o),
(84,418,cs),
(84,325,o),
(40,191,o),
(40,115,cs),
(40,29,o),
(86,-1,o),
(134,-1,cs)
);
},
{
closed = 1;
nodes = (
(552,-6,o),
(590,61,o),
(597,139,c),
(589,142,l),
(582,129,o),
(572,123,o),
(559,122,cs),
(531,123,o),
(506,160,o),
(439,267,cs),
(434,275,o),
(430,283,o),
(425,292,c),
(261,251,l),
(274,230,o),
(289,204,o),
(306,172,cs),
(353,83,o),
(401,-6,o),
(472,-6,cs)
);
}
);
width = 600;
},
{
layerId = m002;
shapes = (
{
closed = 1;
nodes = (
(468,237,o),
(582,314,o),
(582,461,cs),
(582,559,o),
(524,607,o),
(422,607,cs),
(328,607,o),
(213,532,o),
(170,364,c),
(218,345,l),
(245,469,o),
(302,526,o),
(339,526,cs),
(372,526,o),
(387,494,o),
(387,454,cs),
(387,394,o),
(351,307,o),
(283,307,cs),
(247,307,o),
(214,336,o),
(212,384,c),
(180,380,l),
(179,284,o),
(254,237,o),
(335,237,cs)
);
},
{
closed = 1;
nodes = (
(182,0,o),
(238,39,o),
(238,79,cs),
(238,82,o),
(238,86,o),
(237,89,c),
(214,89,o),
(206,112,o),
(206,147,cs),
(206,238,o),
(260,414,o),
(260,500,cs),
(260,566,o),
(217,600,o),
(166,600,cs),
(131,600,o),
(94,583,o),
(63,550,c),
(63,545,l),
(75,525,o),
(79,497,o),
(79,465,cs),
(79,363,o),
(34,211,o),
(34,127,cs),
(34,33,o),
(81,0,o),
(130,0,cs)
);
},
{
closed = 1;
nodes = (
(557,-6,o),
(595,68,o),
(603,154,c),
(594,157,l),
(587,143,o),
(577,136,o),
(564,135,cs),
(535,136,o),
(510,177,o),
(441,295,cs),
(436,304,o),
(432,313,o),
(427,323,c),
(260,277,l),
(273,254,o),
(288,226,o),
(306,190,cs),
(354,92,o),
(403,-6,o),
(475,-6,cs)
);
}
);
width = 600;
},
{
layerId = m003;
shapes = (
{
closed = 1;
nodes = (
(477,289,o),
(598,374,o),
(598,552,cs),
(598,671,o),
(537,729,o),
(428,729,cs),
(329,729,o),
(206,638,o),
(161,444,c),
(212,420,l),
(240,561,o),
(301,631,o),
(341,631,cs),
(375,631,o),
(392,592,o),
(392,544,cs),
(392,470,o),
(353,375,o),
(281,375,cs),
(242,375,o),
(208,409,o),
(205,468,c),
(172,463,l),
(171,346,o),
(250,289,o),
(336,289,cs)
);
},
{
closed = 1;
nodes = (
(174,1,o),
(234,49,o),
(234,97,cs),
(234,101,o),
(234,105,o),
(232,109,c),
(208,109,o),
(199,137,o),
(199,180,cs),
(199,290,o),
(256,494,o),
(256,599,cs),
(256,679,o),
(211,721,o),
(157,721,cs),
(120,721,o),
(80,701,o),
(47,660,c),
(47,654,l),
(60,630,o),
(65,596,o),
(65,557,cs),
(65,433,o),
(17,258,o),
(17,156,cs),
(17,41,o),
(67,1,o),
(119,1,cs)
);
},
{
closed = 1;
nodes = (
(571,-6,o),
(612,84,o),
(620,188,c),
(611,192,l),
(604,175,o),
(593,167,o),
(579,166,cs),
(549,167,o),
(521,216,o),
(449,360,cs),
(444,371,o),
(439,381,o),
(434,393,c),
(256,338,l),
(270,310,o),
(287,275,o),
(305,233,cs),
(356,113,o),
(408,-6,o),
(485,-6,cs)
);
}
);
width = 600;
}
);
unicode = 82;
},
{
color = 9;
glyphname = S;
lastChange = "2023-05-26 13:52:17 +0000";
layers = (
{
layerId = "CDFC0212-EC7A-4000-86F8-EA19B9E6D7F9";
shapes = (
{
closed = 1;
nodes = (
(350,-6,o),
(475,79,o),
(475,170,cs),
(475,309,o),
(230,308,o),
(230,417,cs),
(230,447,o),
(249,463,o),
(281,463,cs),
(312,463,o),
(348,431,o),
(348,358,c),
(409,358,o),
(470,375,o),
(470,452,cs),
(470,516,o),
(400,546,o),
(319,546,cs),
(203,546,o),
(63,486,o),
(63,378,cs),
(63,238,o),
(306,213,o),
(306,124,cs),
(307,94,o),
(278,73,o),
(234,73,cs),
(192,73,o),
(143,110,o),
(143,221,c),
(64,221,o),
(15,171,o),
(15,117,cs),
(15,58,o),
(76,-6,o),
(221,-6,cs)
);
}
);
width = 490;
},
{
layerId = m002;
shapes = (
{
closed = 1;
nodes = (
(363,-6,o),
(493,88,o),
(493,188,cs),
(493,341,o),
(238,344,o),
(238,464,cs),
(238,497,o),
(258,515,o),
(291,515,cs),
(324,515,o),
(361,480,o),
(361,395,c),
(425,395,o),
(488,418,o),
(488,503,cs),
(488,574,o),
(415,607,o),
(331,607,cs),
(210,607,o),
(65,540,o),
(65,417,cs),
(65,263,o),
(317,235,o),
(317,137,cs),
(319,104,o),
(288,81,o),
(243,81,cs),
(199,81,o),
(148,122,o),
(148,244,c),
(66,244,o),
(15,189,o),
(15,130,cs),
(15,65,o),
(78,-6,o),
(229,-6,cs)
);
}
);
width = 508;
},
{
layerId = m003;
shapes = (
{
closed = 1;
nodes = (
(392,-6,o),
(533,108,o),
(533,230,cs),
(533,416,o),
(257,419,o),
(257,565,cs),
(257,597,o),
(278,619,o),
(314,619,cs),
(350,619,o),
(390,585,o),
(390,481,c),
(459,481,o),
(527,501,o),
(527,605,cs),
(527,691,o),
(448,731,o),
(357,731,cs),
(226,731,o),
(69,658,o),
(69,508,cs),
(69,321,o),
(342,287,o),
(342,168,cs),
(344,128,o),
(311,100,o),
(262,100,cs),
(214,100,o),
(159,150,o),
(159,298,c),
(71,298,o),
(15,231,o),
(15,159,cs),
(15,80,o),
(83,-6,o),
(247,-6,cs)
);
}
);
width = 548;
}
);
unicode = 83;
},
{
glyphname = a;
lastChange = "2023-05-26 13:34:10 +0000";
layers = (
{
background = {
shapes = (
{
closed = 1;
nodes = (
(362,160,l),
(308,-30,o),
(11,-72,o),
(11,150,cs),
(11,382,o),
(307,353,o),
(361,210,c)
);
},
{
closed = 1;
nodes = (
(338.716,170.032,l),
(292.716,266.032,o),
(172,240,o),
(172,160,cs),
(172,72,o),
(307.716,113.032,o),
(335.716,168.032,c)
);
},
{
closed = 1;
nodes = (
(188.752,288.168,l),
(41.478,469.818,o),
(610.671,692.497,o),
(516,245,cs),
(499.837,168.601,o),
(489,103,o),
(526,103,c),
(541,103,o),
(552,111,o),
(559,126,c),
(574,98,l),
(553.641,35.725,o),
(488.596,0.077,o),
(430.504,0.167,cs),
(376.216,0.252,o),
(328,31.295,o),
(328,108,cs),
(328,150,o),
(337.112,199.758,o),
(350,243,cs),
(418.978,474.445,o),
(155.897,458.005,o),
(254.481,288.168,c)
);
}
);
};
layerId = "CDFC0212-EC7A-4000-86F8-EA19B9E6D7F9";
shapes = (
{
closed = 1;
nodes = (
(244,-10,o),
(332,79,o),
(359.958,295.901,c),
(349.873,328.101,l),
(320,196,o),
(269,114,o),
(232,114,cs),
(206,114,o),
(187,148,o),
(187.078,231.485,cs),
(187,308,o),
(232,400,o),
(282,400,cs),
(305,400,o),
(330,380,o),
(352.154,326.944,c),
(368.497,346.42,l),
(364.629,451.788,o),
(309.629,500,o),
(245.048,500,cs),
(148.289,500,o),
(30,392,o),
(29.997,205.424,cs),
(30,66,o),
(94,-10,o),
(166,-10,cs)
);
},
{
closed = 1;
nodes = (
(459,-11,o),
(537,43,o),
(537,112,c),
(529,116,l),
(521,101,o),
(509,93,o),
(498,93,cs),
(485,93,o),
(474,106,o),
(474,136,cs),
(474,231,o),
(510.324,373.733,o),
(542.405,447.424,c),
(540.405,453.424,l),
(529,488,o),
(490,501,o),
(453,501,cs),
(410,501,o),
(368,484,o),
(368.497,462.227,c),
(361.436,333.436,o),
(307,180,o),
(307,87,cs),
(307,17,o),
(347,-11,o),
(394,-11,cs)
);
}
);
width = 564.4;
},
{
associatedMasterId = "CDFC0212-EC7A-4000-86F8-EA19B9E6D7F9";
background = {
shapes = (
{
closed = 1;
nodes = (
(381.91,160,l),
(327.91,-30,o),
(30.91,-72,o),
(30.91,150,cs),
(30.91,382,o),
(326.91,353,o),
(380.91,210,c)
);
},
{
closed = 1;
nodes = (
(358.626,170.032,l),
(312.626,266.032,o),
(191.91,240,o),
(191.91,160,cs),
(191.91,72,o),
(327.626,113.032,o),
(355.626,168.032,c)
);
},
{
closed = 1;
nodes = (
(208.662,288.168,l),
(61.388,469.818,o),
(630.581,692.497,o),
(535.91,245,cs),
(519.747,168.601,o),
(508.91,103,o),
(545.91,103,c),
(560.91,103,o),
(571.91,111,o),
(578.91,126,c),
(593.91,98,l),
(573.551,35.725,o),
(508.506,0.077,o),
(450.414,0.167,cs),
(396.126,0.252,o),
(347.91,31.295,o),
(347.91,108,cs),
(347.91,150,o),
(357.022,199.758,o),
(369.91,243,cs),
(438.888,474.445,o),
(175.807,458.005,o),
(274.391,288.168,c)
);
}
);
};
layerId = "B38D7E12-DD42-4464-92FF-0C47887069B2";
name = "May 24, 23, 13:29";
shapes = (
{
closed = 1;
nodes = (
(556.568,52.761,o),
(479.132,-0.611,o),
(414.131,-0.611,cs),
(367.117,-0.611,o),
(326.609,27.309,o),
(326.609,97.463,cs),
(326.609,189.869,o),
(381.346,333.436,o),
(388.407,462.227,c),
(388.407,502.728,o),
(534.79,527.944,o),
(560.315,453.424,c),
(562.315,447.424,l),
(530.234,373.733,o),
(493.602,241.231,o),
(493.602,146.418,cs),
(493.602,92.694,o),
(529.254,91.323,o),
(549.334,125.837,c),
(556.568,121.671,l)
);
},
{
closed = 1;
nodes = (
(371.827,331.687,l),
(302.381,497.914,o),
(204.362,349.13,o),
(204.36,234.845,cs),
(204.357,53.798,o),
(318.22,105.584,o),
(369.513,332.861,c),
(379.744,300.195,l),
(351.841,89.988,o),
(262.544,-0.497,o),
(183.195,-0.497,cs),
(109.839,-0.497,o),
(44.986,76.837,o),
(45.004,208.407,cs),
(45.048,523.641,o),
(378.603,618.496,o),
(388.407,351.445,c)
);
}
);
width = 584.31;
},
{
associatedMasterId = "CDFC0212-EC7A-4000-86F8-EA19B9E6D7F9";
background = {
shapes = (
{
closed = 1;
nodes = (
(381.91,160,l),
(327.91,-30,o),
(30.91,-72,o),
(30.91,150,cs),
(30.91,382,o),
(326.91,353,o),
(380.91,210,c)
);
},
{
closed = 1;
nodes = (
(358.626,170.032,l),
(312.626,266.032,o),
(191.91,240,o),
(191.91,160,cs),
(191.91,72,o),
(327.626,113.032,o),
(355.626,168.032,c)
);
},
{
closed = 1;
nodes = (
(208.662,288.168,l),
(61.388,469.818,o),
(630.581,692.497,o),
(535.91,245,cs),
(519.747,168.601,o),
(508.91,103,o),
(545.91,103,c),
(560.91,103,o),
(571.91,111,o),
(578.91,126,c),
(593.91,98,l),
(573.551,35.725,o),
(508.506,0.077,o),
(450.414,0.167,cs),
(396.126,0.252,o),
(347.91,31.295,o),
(347.91,108,cs),
(347.91,150,o),
(357.022,199.758,o),
(369.91,243,cs),
(438.888,474.445,o),
(175.807,458.005,o),
(274.391,288.168,c)
);
}
);
};
layerId = "E0872DD6-68B9-46FB-8352-459E48145BDD";
name = "May 24, 23, 13:36";
shapes = (
{
closed = 1;
nodes = (
(403.076,326.323,l),
(382.992,390.684,o),
(348.125,420.785,o),
(313.256,420.785,cs),
(243.012,420.785,o),
(205.267,309.754,o),
(205.267,224.385,cs),
(205.267,171.068,o),
(219.989,127.76,o),
(250.712,127.76,cs),
(284.105,127.76,o),
(334.439,205.561,o),
(371.25,342.06,c),
(374.621,241.543,l),
(341.381,90.999,o),
(260.741,0.105,o),
(182.669,0.194,cs),
(85.348,0.305,o),
(40.002,86.223,o),
(40.002,187.17,cs),
(40.002,331.047,o),
(132.119,505.452,o),
(297.157,505.452,cs),
(364.33,505.452,o),
(424.431,469.318,o),
(447.316,395.109,c)
);
},
{
closed = 1;
nodes = (
(479.132,-0.611,o),
(414.131,-0.611,cs),
(367.117,-0.611,o),
(326.609,27.309,o),
(326.609,97.463,cs),
(326.609,189.869,o),
(381.346,333.436,o),
(388.407,462.227,c),
(388.407,502.728,o),
(534.79,527.944,o),
(560.315,453.424,c),
(562.315,447.424,l),
(530.234,373.733,o),
(493.602,241.231,o),
(493.602,146.418,cs),
(493.602,92.694,o),
(529.254,91.323,o),
(549.334,125.837,c),
(556.568,121.671,l),
(556.568,52.761,o)
);
}
);
width = 584.31;
},
{
background = {
shapes = (
{
closed = 1;
nodes = (
(362,160,l),
(308,-30,o),
(11,-72,o),
(11,150,cs),
(11,382,o),
(307,353,o),
(361,210,c)
);
},
{
closed = 1;
nodes = (
(338.716,170.032,l),
(292.716,266.032,o),
(172,240,o),
(172,160,cs),
(172,72,o),
(307.716,113.032,o),
(335.716,168.032,c)
);
},
{
closed = 1;
nodes = (
(188.752,288.168,l),
(41.478,469.818,o),
(610.671,692.497,o),
(516,245,cs),
(499.837,168.601,o),
(489,103,o),
(526,103,c),
(541,103,o),
(552,111,o),
(559,126,c),
(574,98,l),
(553.641,35.725,o),
(488.596,0.077,o),
(430.504,0.167,cs),
(376.216,0.252,o),
(328,31.295,o),
(328,108,cs),
(328,150,o),
(337.112,199.758,o),
(350,243,cs),
(418.978,474.445,o),
(155.897,458.005,o),
(254.481,288.168,c)
);
}
);
};
layerId = m002;
shapes = (
{
closed = 1;
nodes = (
(244,-10,o),
(332,79,o),
(359.958,295.901,c),
(349.873,328.101,l),
(320,196,o),
(269,114,o),
(232,114,cs),
(206,114,o),
(187,148,o),
(187.078,231.485,cs),
(187,308,o),
(232,400,o),
(282,400,cs),
(305,400,o),
(330,380,o),
(352.154,326.944,c),
(368.497,346.42,l),
(364.629,451.788,o),
(309.629,500,o),
(245.048,500,cs),
(148.289,500,o),
(30,392,o),
(29.997,205.424,cs),
(30,66,o),
(94,-10,o),
(166,-10,cs)
);
},
{
closed = 1;
nodes = (
(459,-11,o),
(537,43,o),
(537,112,c),
(529,116,l),
(521,101,o),
(509,93,o),
(498,93,cs),
(485,93,o),
(474,106,o),
(474,136,cs),
(474,231,o),
(510.324,373.733,o),
(542.405,447.424,c),
(540.405,453.424,l),
(529,488,o),
(490,501,o),
(453,501,cs),
(410,501,o),
(368,484,o),
(368.497,462.227,c),
(361.436,333.436,o),
(307,180,o),
(307,87,cs),
(307,17,o),
(347,-11,o),
(394,-11,cs)
);
}
);
width = 564.4;
},
{
associatedMasterId = m002;
background = {
shapes = (
{
closed = 1;
nodes = (
(381.91,160,l),
(327.91,-30,o),
(30.91,-72,o),
(30.91,150,cs),
(30.91,382,o),
(326.91,353,o),
(380.91,210,c)
);
},
{
closed = 1;
nodes = (
(358.626,170.032,l),
(312.626,266.032,o),
(191.91,240,o),
(191.91,160,cs),
(191.91,72,o),
(327.626,113.032,o),
(355.626,168.032,c)
);
},
{
closed = 1;
nodes = (
(208.662,288.168,l),
(61.388,469.818,o),
(630.581,692.497,o),
(535.91,245,cs),
(519.747,168.601,o),
(508.91,103,o),
(545.91,103,c),
(560.91,103,o),
(571.91,111,o),
(578.91,126,c),
(593.91,98,l),
(573.551,35.725,o),
(508.506,0.077,o),
(450.414,0.167,cs),
(396.126,0.252,o),
(347.91,31.295,o),
(347.91,108,cs),
(347.91,150,o),
(357.022,199.758,o),
(369.91,243,cs),
(438.888,474.445,o),
(175.807,458.005,o),
(274.391,288.168,c)
);
}
);
};
layerId = "91086318-534E-40CA-B198-98CA9CE98001";
name = "May 24, 23, 13:29";
shapes = (
{
closed = 1;
nodes = (
(556.568,52.761,o),
(479.132,-0.611,o),
(414.131,-0.611,cs),
(367.117,-0.611,o),
(326.609,27.309,o),
(326.609,97.463,cs),
(326.609,189.869,o),
(381.346,333.436,o),
(388.407,462.227,c),
(388.407,502.728,o),
(534.79,527.944,o),
(560.315,453.424,c),
(562.315,447.424,l),
(530.234,373.733,o),
(493.602,241.231,o),
(493.602,146.418,cs),
(493.602,92.694,o),
(529.254,91.323,o),
(549.334,125.837,c),
(556.568,121.671,l)
);
},
{
closed = 1;
nodes = (
(371.827,331.687,l),
(302.381,497.914,o),
(204.362,349.13,o),
(204.36,234.845,cs),
(204.357,53.798,o),
(318.22,105.584,o),
(369.513,332.861,c),
(379.744,300.195,l),
(351.841,89.988,o),
(262.544,-0.497,o),
(183.195,-0.497,cs),
(109.839,-0.497,o),
(44.986,76.837,o),
(45.004,208.407,cs),
(45.048,523.641,o),
(378.603,618.496,o),
(388.407,351.445,c)
);
}
);
width = 584.31;
},
{
associatedMasterId = m002;
background = {
shapes = (
{
closed = 1;
nodes = (
(381.91,160,l),
(327.91,-30,o),
(30.91,-72,o),
(30.91,150,cs),
(30.91,382,o),
(326.91,353,o),
(380.91,210,c)
);
},
{
closed = 1;
nodes = (
(358.626,170.032,l),
(312.626,266.032,o),
(191.91,240,o),
(191.91,160,cs),
(191.91,72,o),
(327.626,113.032,o),
(355.626,168.032,c)
);
},
{
closed = 1;
nodes = (
(208.662,288.168,l),
(61.388,469.818,o),
(630.581,692.497,o),
(535.91,245,cs),
(519.747,168.601,o),
(508.91,103,o),
(545.91,103,c),
(560.91,103,o),
(571.91,111,o),
(578.91,126,c),
(593.91,98,l),
(573.551,35.725,o),
(508.506,0.077,o),
(450.414,0.167,cs),
(396.126,0.252,o),
(347.91,31.295,o),
(347.91,108,cs),
(347.91,150,o),
(357.022,199.758,o),
(369.91,243,cs),
(438.888,474.445,o),
(175.807,458.005,o),
(274.391,288.168,c)
);
}
);
};
layerId = "D675D495-3B13-481D-85EA-47E7138FC151";
name = "May 24, 23, 13:36";
shapes = (
{
closed = 1;
nodes = (
(403.076,326.323,l),
(382.992,390.684,o),
(348.125,420.785,o),
(313.256,420.785,cs),
(243.012,420.785,o),
(205.267,309.754,o),
(205.267,224.385,cs),
(205.267,171.068,o),
(219.989,127.76,o),
(250.712,127.76,cs),
(284.105,127.76,o),
(334.439,205.561,o),
(371.25,342.06,c),
(374.621,241.543,l),
(341.381,90.999,o),
(260.741,0.105,o),
(182.669,0.194,cs),
(85.348,0.305,o),
(40.002,86.223,o),
(40.002,187.17,cs),
(40.002,331.047,o),
(132.119,505.452,o),
(297.157,505.452,cs),
(364.33,505.452,o),
(424.431,469.318,o),
(447.316,395.109,c)
);
},
{
closed = 1;
nodes = (
(479.132,-0.611,o),
(414.131,-0.611,cs),
(367.117,-0.611,o),
(326.609,27.309,o),
(326.609,97.463,cs),
(326.609,189.869,o),
(381.346,333.436,o),
(388.407,462.227,c),
(388.407,502.728,o),
(534.79,527.944,o),
(560.315,453.424,c),
(562.315,447.424,l),
(530.234,373.733,o),
(493.602,241.231,o),
(493.602,146.418,cs),
(493.602,92.694,o),
(529.254,91.323,o),
(549.334,125.837,c),
(556.568,121.671,l),
(556.568,52.761,o)
);
}
);
width = 584.31;
},
{
background = {
shapes = (
{
closed = 1;
nodes = (
(362,160,l),
(308,-30,o),
(11,-72,o),
(11,150,cs),
(11,382,o),
(307,353,o),
(361,210,c)
);
},
{
closed = 1;
nodes = (
(338.716,170.032,l),
(292.716,266.032,o),
(172,240,o),
(172,160,cs),
(172,72,o),
(307.716,113.032,o),
(335.716,168.032,c)
);
},
{
closed = 1;
nodes = (
(188.752,288.168,l),
(41.478,469.818,o),
(610.671,692.497,o),
(516,245,cs),
(499.837,168.601,o),
(489,103,o),
(526,103,c),
(541,103,o),
(552,111,o),
(559,126,c),
(574,98,l),
(553.641,35.725,o),
(488.596,0.077,o),
(430.504,0.167,cs),
(376.216,0.252,o),
(328,31.295,o),
(328,108,cs),
(328,150,o),
(337.112,199.758,o),
(350,243,cs),
(418.978,474.445,o),
(155.897,458.005,o),
(254.481,288.168,c)
);
}
);
};
layerId = m003;
shapes = (
{
closed = 1;
nodes = (
(244,-10,o),
(332,79,o),
(359.958,295.901,c),
(349.873,328.101,l),
(320,196,o),
(269,114,o),
(232,114,cs),
(206,114,o),
(187,148,o),
(187.078,231.485,cs),
(187,308,o),
(232,400,o),
(282,400,cs),
(305,400,o),
(330,380,o),
(352.154,326.944,c),
(368.497,346.42,l),
(364.629,451.788,o),
(309.629,500,o),
(245.048,500,cs),
(148.289,500,o),
(30,392,o),
(29.997,205.424,cs),
(30,66,o),
(94,-10,o),
(166,-10,cs)
);
},
{
closed = 1;
nodes = (
(459,-11,o),
(537,43,o),
(537,112,c),
(529,116,l),
(521,101,o),
(509,93,o),
(498,93,cs),
(485,93,o),
(474,106,o),
(474,136,cs),
(474,231,o),
(510.324,373.733,o),
(542.405,447.424,c),
(540.405,453.424,l),
(529,488,o),
(490,501,o),
(453,501,cs),
(410,501,o),
(368,484,o),
(368.497,462.227,c),
(361.436,333.436,o),
(307,180,o),
(307,87,cs),
(307,17,o),
(347,-11,o),
(394,-11,cs)
);
}
);
width = 564.4;
},
{
associatedMasterId = m003;
background = {
shapes = (
{
closed = 1;
nodes = (
(381.91,160,l),
(327.91,-30,o),
(30.91,-72,o),
(30.91,150,cs),
(30.91,382,o),
(326.91,353,o),
(380.91,210,c)
);
},
{
closed = 1;
nodes = (
(358.626,170.032,l),
(312.626,266.032,o),
(191.91,240,o),
(191.91,160,cs),
(191.91,72,o),
(327.626,113.032,o),
(355.626,168.032,c)
);
},
{
closed = 1;
nodes = (
(208.662,288.168,l),
(61.388,469.818,o),
(630.581,692.497,o),
(535.91,245,cs),
(519.747,168.601,o),
(508.91,103,o),
(545.91,103,c),
(560.91,103,o),
(571.91,111,o),
(578.91,126,c),
(593.91,98,l),
(573.551,35.725,o),
(508.506,0.077,o),
(450.414,0.167,cs),
(396.126,0.252,o),
(347.91,31.295,o),
(347.91,108,cs),
(347.91,150,o),
(357.022,199.758,o),
(369.91,243,cs),
(438.888,474.445,o),
(175.807,458.005,o),
(274.391,288.168,c)
);
}
);
};
layerId = "1EDA0AFB-341B-429F-A04C-B8B9E51C4083";
name = "May 24, 23, 13:29";
shapes = (
{
closed = 1;
nodes = (
(556.568,52.761,o),
(479.132,-0.611,o),
(414.131,-0.611,cs),
(367.117,-0.611,o),
(326.609,27.309,o),
(326.609,97.463,cs),
(326.609,189.869,o),
(381.346,333.436,o),
(388.407,462.227,c),
(388.407,502.728,o),
(534.79,527.944,o),
(560.315,453.424,c),
(562.315,447.424,l),
(530.234,373.733,o),
(493.602,241.231,o),
(493.602,146.418,cs),
(493.602,92.694,o),
(529.254,91.323,o),
(549.334,125.837,c),
(556.568,121.671,l)
);
},
{
closed = 1;
nodes = (
(371.827,331.687,l),
(302.381,497.914,o),
(204.362,349.13,o),
(204.36,234.845,cs),
(204.357,53.798,o),
(318.22,105.584,o),
(369.513,332.861,c),
(379.744,300.195,l),
(351.841,89.988,o),
(262.544,-0.497,o),
(183.195,-0.497,cs),
(109.839,-0.497,o),
(44.986,76.837,o),
(45.004,208.407,cs),
(45.048,523.641,o),
(378.603,618.496,o),
(388.407,351.445,c)
);
}
);
width = 584.31;
},
{
associatedMasterId = m003;
background = {
shapes = (
{
closed = 1;
nodes = (
(381.91,160,l),
(327.91,-30,o),
(30.91,-72,o),
(30.91,150,cs),
(30.91,382,o),
(326.91,353,o),
(380.91,210,c)
);
},
{
closed = 1;
nodes = (
(358.626,170.032,l),
(312.626,266.032,o),
(191.91,240,o),
(191.91,160,cs),
(191.91,72,o),
(327.626,113.032,o),
(355.626,168.032,c)
);
},
{
closed = 1;
nodes = (
(208.662,288.168,l),
(61.388,469.818,o),
(630.581,692.497,o),
(535.91,245,cs),
(519.747,168.601,o),
(508.91,103,o),
(545.91,103,c),
(560.91,103,o),
(571.91,111,o),
(578.91,126,c),
(593.91,98,l),
(573.551,35.725,o),
(508.506,0.077,o),
(450.414,0.167,cs),
(396.126,0.252,o),
(347.91,31.295,o),
(347.91,108,cs),
(347.91,150,o),
(357.022,199.758,o),
(369.91,243,cs),
(438.888,474.445,o),
(175.807,458.005,o),
(274.391,288.168,c)
);
}
);
};
layerId = "522FE5F9-4A79-4308-8FC1-E72E0F13EF78";
name = "May 24, 23, 13:36";
shapes = (
{
closed = 1;
nodes = (
(403.076,326.323,l),
(382.992,390.684,o),
(348.125,420.785,o),
(313.256,420.785,cs),
(243.012,420.785,o),
(205.267,309.754,o),
(205.267,224.385,cs),
(205.267,171.068,o),
(219.989,127.76,o),
(250.712,127.76,cs),
(284.105,127.76,o),
(334.439,205.561,o),
(371.25,342.06,c),
(374.621,241.543,l),
(341.381,90.999,o),
(260.741,0.105,o),
(182.669,0.194,cs),
(85.348,0.305,o),
(40.002,86.223,o),
(40.002,187.17,cs),
(40.002,331.047,o),
(132.119,505.452,o),
(297.157,505.452,cs),
(364.33,505.452,o),
(424.431,469.318,o),
(447.316,395.109,c)
);
},
{
closed = 1;
nodes = (
(479.132,-0.611,o),
(414.131,-0.611,cs),
(367.117,-0.611,o),
(326.609,27.309,o),
(326.609,97.463,cs),
(326.609,189.869,o),
(381.346,333.436,o),
(388.407,462.227,c),
(388.407,502.728,o),
(534.79,527.944,o),
(560.315,453.424,c),
(562.315,447.424,l),
(530.234,373.733,o),
(493.602,241.231,o),
(493.602,146.418,cs),
(493.602,92.694,o),
(529.254,91.323,o),
(549.334,125.837,c),
(556.568,121.671,l),
(556.568,52.761,o)
);
}
);
width = 584.31;
}
);
unicode = 97;
},
{
glyphname = b;
lastChange = "2023-05-26 13:34:10 +0000";
layers = (
{
associatedMasterId = "CDFC0212-EC7A-4000-86F8-EA19B9E6D7F9";
layerId = "2FBC8488-6FEF-48ED-AD63-D5282019F019";
name = "May 24, 23, 19:56";
shapes = (
{
closed = 1;
nodes = (
(215.074,205.365,l),
(216.876,136.958,o),
(248.932,101.192,o),
(284.776,101.192,cs),
(350.959,101.192,o),
(386.746,206.659,o),
(386.746,289.947,cs),
(386.746,344.291,o),
(371.51,389.192,o),
(339.54,389.192,cs),
(302.361,389.192,o),
(246.489,316.102,o),
(220.451,151.628,c),
(173.496,188.272,l),
(242.38,556.339,o),
(548.12,605.691,o),
(548.12,299.513,cs),
(548.12,160.714,o),
(473.025,-0.105,o),
(332.387,-0.105,cs),
(253.316,-0.105,o),
(182.963,60.783,o),
(183.614,176.385,c)
);
},
{
closed = 1;
nodes = (
(288,528.127,o),
(270.73,413.695,o),
(255.114,331.297,c),
(216.201,139.181,l),
(210.549,139.17,o),
(209.257,133.496,o),
(209.257,124.807,cs),
(209.257,117.483,o),
(210.175,108.017,o),
(210.175,97.994,cs),
(210.175,69.018,o),
(202.501,35.385,o),
(142.786,35.385,cs),
(92.753,35.385,o),
(51.066,49.993,o),
(55.6,81.576,cs),
(70.6,186.06,o),
(125,446.957,o),
(125,558,cs),
(125,610.819,o),
(80.505,591.142,o),
(54,555,c),
(35,575,l),
(62.295,653.874,o),
(132.882,699.628,o),
(192.582,699.628,cs),
(244.391,699.628,o),
(288,665.17,o),
(288,588,c)
);
}
);
width = 573.12;
},
{
layerId = "CDFC0212-EC7A-4000-86F8-EA19B9E6D7F9";
name = Regular;
shapes = (
{
closed = 1;
nodes = (
(429,-10,o),
(505,151,o),
(504.52,299.513,cs),
(504,434,o),
(448,499,o),
(379,499,cs),
(286,499,o),
(169,372,o),
(130,148,c),
(177,142,l),
(203,306,o),
(258.761,396.192,o),
(295.94,396.192,cs),
(327.91,396.192,o),
(343,335,o),
(343.146,280.947,cs),
(343,188,o),
(307,91,o),
(241,91,cs),
(205,91,o),
(173,127,o),
(171,195,c),
(140,166,l),
(139,51,o),
(210,-10,o),
(289,-10,cs)
);
},
{
closed = 1;
nodes = (
(159,8,o),
(167,42,o),
(167,71,cs),
(167,98,o),
(166,107,o),
(166,115,cs),
(166,123,o),
(167,129,o),
(173,129,c),
(207.809,317.457,l),
(227.983,397.588,o),
(247.4,526.798,o),
(247.4,600,cs),
(247,666,o),
(211,701,o),
(165,701,cs),
(134,701,o),
(99,684,o),
(69.4,651,c),
(69.4,645,l),
(80,629,o),
(84,600,o),
(84,564,cs),
(84,425,o),
(25,163,o),
(25,55,cs),
(25,40,o),
(49,8,o),
(99,8,cs)
);
}
);
width = 529.52;
},
{
associatedMasterId = m002;
layerId = "012C6AFC-E992-43D5-8BE8-88A4297A72FC";
name = "May 24, 23, 19:56";
shapes = (
{
closed = 1;
nodes = (
(215.074,205.365,l),
(216.876,136.958,o),
(248.932,101.192,o),
(284.776,101.192,cs),
(350.959,101.192,o),
(386.746,206.659,o),
(386.746,289.947,cs),
(386.746,344.291,o),
(371.51,389.192,o),
(339.54,389.192,cs),
(302.361,389.192,o),
(246.489,316.102,o),
(220.451,151.628,c),
(173.496,188.272,l),
(242.38,556.339,o),
(548.12,605.691,o),
(548.12,299.513,cs),
(548.12,160.714,o),
(473.025,-0.105,o),
(332.387,-0.105,cs),
(253.316,-0.105,o),
(182.963,60.783,o),
(183.614,176.385,c)
);
},
{
closed = 1;
nodes = (
(288,528.127,o),
(270.73,413.695,o),
(255.114,331.297,c),
(216.201,139.181,l),
(210.549,139.17,o),
(209.257,133.496,o),
(209.257,124.807,cs),
(209.257,117.483,o),
(210.175,108.017,o),
(210.175,97.994,cs),
(210.175,69.018,o),
(202.501,35.385,o),
(142.786,35.385,cs),
(92.753,35.385,o),
(51.066,49.993,o),
(55.6,81.576,cs),
(70.6,186.06,o),
(125,446.957,o),
(125,558,cs),
(125,610.819,o),
(80.505,591.142,o),
(54,555,c),
(35,575,l),
(62.295,653.874,o),
(132.882,699.628,o),
(192.582,699.628,cs),
(244.391,699.628,o),
(288,665.17,o),
(288,588,c)
);
}
);
width = 573.12;
},
{
layerId = m002;
name = Regular;
shapes = (
{
closed = 1;
nodes = (
(429,-10,o),
(505,151,o),
(504.52,299.513,cs),
(504,434,o),
(448,499,o),
(379,499,cs),
(286,499,o),
(169,372,o),
(130,148,c),
(177,142,l),
(203,306,o),
(258.761,396.192,o),
(295.94,396.192,cs),
(327.91,396.192,o),
(343,335,o),
(343.146,280.947,cs),
(343,188,o),
(307,91,o),
(241,91,cs),
(205,91,o),
(173,127,o),
(171,195,c),
(140,166,l),
(139,51,o),
(210,-10,o),
(289,-10,cs)
);
},
{
closed = 1;
nodes = (
(159,8,o),
(167,42,o),
(167,71,cs),
(167,98,o),
(166,107,o),
(166,115,cs),
(166,123,o),
(167,129,o),
(173,129,c),
(207.809,317.457,l),
(227.983,397.588,o),
(247.4,526.798,o),
(247.4,600,cs),
(247,666,o),
(211,701,o),
(165,701,cs),
(134,701,o),
(99,684,o),
(69.4,651,c),
(69.4,645,l),
(80,629,o),
(84,600,o),
(84,564,cs),
(84,425,o),
(25,163,o),
(25,55,cs),
(25,40,o),
(49,8,o),
(99,8,cs)
);
}
);
width = 529.52;
},
{
associatedMasterId = m003;
layerId = "660A4B0B-AD4A-4FB4-B3DE-A8AEB3E588C0";
name = "May 24, 23, 19:56";
shapes = (
{
closed = 1;
nodes = (
(215.074,205.365,l),
(216.876,136.958,o),
(248.932,101.192,o),
(284.776,101.192,cs),
(350.959,101.192,o),
(386.746,206.659,o),
(386.746,289.947,cs),
(386.746,344.291,o),
(371.51,389.192,o),
(339.54,389.192,cs),
(302.361,389.192,o),
(246.489,316.102,o),
(220.451,151.628,c),
(173.496,188.272,l),
(242.38,556.339,o),
(548.12,605.691,o),
(548.12,299.513,cs),
(548.12,160.714,o),
(473.025,-0.105,o),
(332.387,-0.105,cs),
(253.316,-0.105,o),
(182.963,60.783,o),
(183.614,176.385,c)
);
},
{
closed = 1;
nodes = (
(288,528.127,o),
(270.73,413.695,o),
(255.114,331.297,c),
(216.201,139.181,l),
(210.549,139.17,o),
(209.257,133.496,o),
(209.257,124.807,cs),
(209.257,117.483,o),
(210.175,108.017,o),
(210.175,97.994,cs),
(210.175,69.018,o),
(202.501,35.385,o),
(142.786,35.385,cs),
(92.753,35.385,o),
(51.066,49.993,o),
(55.6,81.576,cs),
(70.6,186.06,o),
(125,446.957,o),
(125,558,cs),
(125,610.819,o),
(80.505,591.142,o),
(54,555,c),
(35,575,l),
(62.295,653.874,o),
(132.882,699.628,o),
(192.582,699.628,cs),
(244.391,699.628,o),
(288,665.17,o),
(288,588,c)
);
}
);
width = 573.12;
},
{
layerId = m003;
name = Regular;
shapes = (
{
closed = 1;
nodes = (
(429,-10,o),
(505,151,o),
(504.52,299.513,cs),
(504,434,o),
(448,499,o),
(379,499,cs),
(286,499,o),
(169,372,o),
(130,148,c),
(177,142,l),
(203,306,o),
(258.761,396.192,o),
(295.94,396.192,cs),
(327.91,396.192,o),
(343,335,o),
(343.146,280.947,cs),
(343,188,o),
(307,91,o),
(241,91,cs),
(205,91,o),
(173,127,o),
(171,195,c),
(140,166,l),
(139,51,o),
(210,-10,o),
(289,-10,cs)
);
},
{
closed = 1;
nodes = (
(159,8,o),
(167,42,o),
(167,71,cs),
(167,98,o),
(166,107,o),
(166,115,cs),
(166,123,o),
(167,129,o),
(173,129,c),
(207.809,317.457,l),
(227.983,397.588,o),
(247.4,526.798,o),
(247.4,600,cs),
(247,666,o),
(211,701,o),
(165,701,cs),
(134,701,o),
(99,684,o),
(69.4,651,c),
(69.4,645,l),
(80,629,o),
(84,600,o),
(84,564,cs),
(84,425,o),
(25,163,o),
(25,55,cs),
(25,40,o),
(49,8,o),
(99,8,cs)
);
}
);
width = 529.52;
}
);
unicode = 98;
},
{
glyphname = c;
lastChange = "2023-05-26 13:34:10 +0000";
layers = (
{
associatedMasterId = "CDFC0212-EC7A-4000-86F8-EA19B9E6D7F9";
layerId = "63C5EAEA-0896-4C8C-AD05-D769F2488A99";
name = "May 24, 23, 19:45";
shapes = (
{
closed = 1;
nodes = (
(533.687,313.793,o),
(546.319,507,o),
(345.553,507,cs),
(-11.53,507,o),
(-86.972,-4.516,o),
(258.112,-4.516,cs),
(337.469,-4.516,o),
(423.079,31.016,o),
(487.524,109,c),
(465.302,141.659,l),
(445.585,121.239,o),
(386.334,92.871,o),
(330.312,92.871,cs),
(270.282,92.871,o),
(213.96,125.444,o),
(213.96,235.27,cs),
(213.96,357.357,o),
(272.641,424.16,o),
(314.702,424.16,cs),
(366.647,424.16,o),
(360.193,363.908,o),
(346.529,313.793,c)
);
}
);
width = 511.55;
},
{
layerId = "CDFC0212-EC7A-4000-86F8-EA19B9E6D7F9";
name = Regular;
shapes = (
{
closed = 1;
nodes = (
(322,-15,o),
(465,41,o),
(465,179,c),
(455,183,l),
(432,132,o),
(375,102,o),
(320,102,cs),
(258,102,o),
(199,141,o),
(198.96,242.868,cs),
(199,365,o),
(257.641,424.16,o),
(299.702,424.16,cs),
(331,424,o),
(341,402,o),
(341,374,cs),
(341,355,o),
(337,334,o),
(331.529,313.793,c),
(427,314,o),
(477,364,o),
(477,413,cs),
(477,460,o),
(429,507,o),
(330.553,507,cs),
(132,507,o),
(20,338,o),
(20,197,cs),
(20,86,o),
(90,-15,o),
(243,-15,cs)
);
}
);
width = 496.55;
},
{
associatedMasterId = m002;
layerId = "9ECCDC9C-C770-47EB-976B-A8A535D61938";
name = "May 24, 23, 19:45";
shapes = (
{
closed = 1;
nodes = (
(533.687,313.793,o),
(546.319,507,o),
(345.553,507,cs),
(-11.53,507,o),
(-86.972,-4.516,o),
(258.112,-4.516,cs),
(337.469,-4.516,o),
(423.079,31.016,o),
(487.524,109,c),
(465.302,141.659,l),
(445.585,121.239,o),
(386.334,92.871,o),
(330.312,92.871,cs),
(270.282,92.871,o),
(213.96,125.444,o),
(213.96,235.27,cs),
(213.96,357.357,o),
(272.641,424.16,o),
(314.702,424.16,cs),
(366.647,424.16,o),
(360.193,363.908,o),
(346.529,313.793,c)
);
}
);
width = 511.55;
},
{
layerId = m002;
name = Regular;
shapes = (
{
closed = 1;
nodes = (
(322,-15,o),
(465,41,o),
(465,179,c),
(455,183,l),
(432,132,o),
(375,102,o),
(320,102,cs),
(258,102,o),
(199,141,o),
(198.96,242.868,cs),
(199,365,o),
(257.641,424.16,o),
(299.702,424.16,cs),
(331,424,o),
(341,402,o),
(341,374,cs),
(341,355,o),
(337,334,o),
(331.529,313.793,c),
(427,314,o),
(477,364,o),
(477,413,cs),
(477,460,o),
(429,507,o),
(330.553,507,cs),
(132,507,o),
(20,338,o),
(20,197,cs),
(20,86,o),
(90,-15,o),
(243,-15,cs)
);
}
);
width = 496.55;
},
{
associatedMasterId = m003;
layerId = "2D38C33C-0989-4FBF-B91C-515DDFF2270F";
name = "May 24, 23, 19:45";
shapes = (
{
closed = 1;
nodes = (
(533.687,313.793,o),
(546.319,507,o),
(345.553,507,cs),
(-11.53,507,o),
(-86.972,-4.516,o),
(258.112,-4.516,cs),
(337.469,-4.516,o),
(423.079,31.016,o),
(487.524,109,c),
(465.302,141.659,l),
(445.585,121.239,o),
(386.334,92.871,o),
(330.312,92.871,cs),
(270.282,92.871,o),
(213.96,125.444,o),
(213.96,235.27,cs),
(213.96,357.357,o),
(272.641,424.16,o),
(314.702,424.16,cs),
(366.647,424.16,o),
(360.193,363.908,o),
(346.529,313.793,c)
);
}
);
width = 511.55;
},
{
layerId = m003;
name = Regular;
shapes = (
{
closed = 1;
nodes = (
(322,-15,o),
(465,41,o),
(465,179,c),
(455,183,l),
(432,132,o),
(375,102,o),
(320,102,cs),
(258,102,o),
(199,141,o),
(198.96,242.868,cs),
(199,365,o),
(257.641,424.16,o),
(299.702,424.16,cs),
(331,424,o),
(341,402,o),
(341,374,cs),
(341,355,o),
(337,334,o),
(331.529,313.793,c),
(427,314,o),
(477,364,o),
(477,413,cs),
(477,460,o),
(429,507,o),
(330.553,507,cs),
(132,507,o),
(20,338,o),
(20,197,cs),
(20,86,o),
(90,-15,o),
(243,-15,cs)
);
}
);
width = 496.55;
}
);
unicode = 99;
},
{
glyphname = d;
lastChange = "2023-05-26 13:34:10 +0000";
layers = (
{
background = {
shapes = (
{
closed = 1;
nodes = (
(353.825,354.581,o),
(412.01,555.966,o),
(375.39,617,c),
(375.39,623,l),
(448.39,705,o),
(566.39,684,o),
(566.39,572,cs),
(566.39,450.833,o),
(441.537,98.503,o),
(521.248,98.503,cs),
(532.549,98.503,o),
(545.794,108.394,o),
(558.39,126,c),
(573.39,98,l),
(554.935,41.55,o),
(489.15,0.26,o),
(429.626,0.257,cs),
(319.418,0.253,o),
(314.918,124.382,o),
(328.509,204.794,cs)
);
},
{
closed = 1;
nodes = (
(353.93,335.02,l),
(286.381,496.914,o),
(188.362,348.13,o),
(188.36,233.845,cs),
(188.357,52.798,o),
(302.22,104.584,o),
(353.513,331.861,c),
(367.39,226.794,l),
(334.15,76.25,o),
(245.831,0.105,o),
(167.759,0.194,cs),
(93.77,0.278,o),
(28.985,68.829,o),
(29.004,207.407,cs),
(29.024,347.649,o),
(106.144,507.185,o),
(249.91,507.191,cs),
(305.927,507.194,o),
(367.896,471.019,o),
(385.39,384,c)
);
}
);
};
layerId = "CDFC0212-EC7A-4000-86F8-EA19B9E6D7F9";
shapes = (
{
closed = 1;
nodes = (
(248,-10,o),
(337,80,o),
(364.744,300.195,c),
(354.513,332.861,l),
(324,189,o),
(272,116,o),
(235,116,cs),
(208,116,o),
(189,150,o),
(189,223,cs),
(189,301,o),
(234,406,o),
(286,406,cs),
(309,406,o),
(335,385,o),
(356.827,331.687,c),
(373.407,351.445,l),
(369.483,458.34,o),
(313.686,507.249,o),
(248.169,507.249,cs),
(150.009,507.249,o),
(30,387,o),
(30,198,cs),
(30,67,o),
(95,-10,o),
(168,-10,cs)
);
},
{
closed = 1;
nodes = (
(489,-10,o),
(568,46,o),
(568,112,c),
(561,117,l),
(556,104,o),
(540,92,o),
(525,92,cs),
(506,92,o),
(498,118,o),
(498,158,cs),
(498,281,o),
(567,546,o),
(567.39,600,cs),
(567,666,o),
(526,701,o),
(477,701,cs),
(443,701,o),
(406,684,o),
(376.39,651,c),
(376.39,645,l),
(385,631,o),
(388,609,o),
(388,581,cs),
(388,485,o),
(348,311,o),
(329,195,cs),
(325,176,o),
(323,154,o),
(323,132,cs),
(323,62,o),
(346,-10,o),
(430,-10,cs)
);
}
);
width = 582.98;
},
{
background = {
shapes = (
{
closed = 1;
nodes = (
(353.825,354.581,o),
(412.01,555.966,o),
(375.39,617,c),
(375.39,623,l),
(448.39,705,o),
(566.39,684,o),
(566.39,572,cs),
(566.39,450.833,o),
(441.537,98.503,o),
(521.248,98.503,cs),
(532.549,98.503,o),
(545.794,108.394,o),
(558.39,126,c),
(573.39,98,l),
(554.935,41.55,o),
(489.15,0.26,o),
(429.626,0.257,cs),
(319.418,0.253,o),
(314.918,124.382,o),
(328.509,204.794,cs)
);
},
{
closed = 1;
nodes = (
(353.93,335.02,l),
(286.381,496.914,o),
(188.362,348.13,o),
(188.36,233.845,cs),
(188.357,52.798,o),
(302.22,104.584,o),
(353.513,331.861,c),
(367.39,226.794,l),
(334.15,76.25,o),
(245.831,0.105,o),
(167.759,0.194,cs),
(93.77,0.278,o),
(28.985,68.829,o),
(29.004,207.407,cs),
(29.024,347.649,o),
(106.144,507.185,o),
(249.91,507.191,cs),
(305.927,507.194,o),
(367.896,471.019,o),
(385.39,384,c)
);
}
);
};
layerId = m002;
shapes = (
{
closed = 1;
nodes = (
(248,-10,o),
(337,80,o),
(364.744,300.195,c),
(354.513,332.861,l),
(324,189,o),
(272,116,o),
(235,116,cs),
(208,116,o),
(189,150,o),
(189,223,cs),
(189,301,o),
(234,406,o),
(286,406,cs),
(309,406,o),
(335,385,o),
(356.827,331.687,c),
(373.407,351.445,l),
(369.483,458.34,o),
(313.686,507.249,o),
(248.169,507.249,cs),
(150.009,507.249,o),
(30,387,o),
(30,198,cs),
(30,67,o),
(95,-10,o),
(168,-10,cs)
);
},
{
closed = 1;
nodes = (
(489,-10,o),
(568,46,o),
(568,112,c),
(561,117,l),
(556,104,o),
(540,92,o),
(525,92,cs),
(506,92,o),
(498,118,o),
(498,158,cs),
(498,281,o),
(567,546,o),
(567.39,600,cs),
(567,666,o),
(526,701,o),
(477,701,cs),
(443,701,o),
(406,684,o),
(376.39,651,c),
(376.39,645,l),
(385,631,o),
(388,609,o),
(388,581,cs),
(388,485,o),
(348,311,o),
(329,195,cs),
(325,176,o),
(323,154,o),
(323,132,cs),
(323,62,o),
(346,-10,o),
(430,-10,cs)
);
}
);
width = 582.98;
},
{
background = {
shapes = (
{
closed = 1;
nodes = (
(353.825,354.581,o),
(412.01,555.966,o),
(375.39,617,c),
(375.39,623,l),
(448.39,705,o),
(566.39,684,o),
(566.39,572,cs),
(566.39,450.833,o),
(441.537,98.503,o),
(521.248,98.503,cs),
(532.549,98.503,o),
(545.794,108.394,o),
(558.39,126,c),
(573.39,98,l),
(554.935,41.55,o),
(489.15,0.26,o),
(429.626,0.257,cs),
(319.418,0.253,o),
(314.918,124.382,o),
(328.509,204.794,cs)
);
},
{
closed = 1;
nodes = (
(353.93,335.02,l),
(286.381,496.914,o),
(188.362,348.13,o),
(188.36,233.845,cs),
(188.357,52.798,o),
(302.22,104.584,o),
(353.513,331.861,c),
(367.39,226.794,l),
(334.15,76.25,o),
(245.831,0.105,o),
(167.759,0.194,cs),
(93.77,0.278,o),
(28.985,68.829,o),
(29.004,207.407,cs),
(29.024,347.649,o),
(106.144,507.185,o),
(249.91,507.191,cs),
(305.927,507.194,o),
(367.896,471.019,o),
(385.39,384,c)
);
}
);
};
layerId = m003;
shapes = (
{
closed = 1;
nodes = (
(248,-10,o),
(337,80,o),
(364.744,300.195,c),
(354.513,332.861,l),
(324,189,o),
(272,116,o),
(235,116,cs),
(208,116,o),
(189,150,o),
(189,223,cs),
(189,301,o),
(234,406,o),
(286,406,cs),
(309,406,o),
(335,385,o),
(356.827,331.687,c),
(373.407,351.445,l),
(369.483,458.34,o),
(313.686,507.249,o),
(248.169,507.249,cs),
(150.009,507.249,o),
(30,387,o),
(30,198,cs),
(30,67,o),
(95,-10,o),
(168,-10,cs)
);
},
{
closed = 1;
nodes = (
(489,-10,o),
(568,46,o),
(568,112,c),
(561,117,l),
(556,104,o),
(540,92,o),
(525,92,cs),
(506,92,o),
(498,118,o),
(498,158,cs),
(498,281,o),
(567,546,o),
(567.39,600,cs),
(567,666,o),
(526,701,o),
(477,701,cs),
(443,701,o),
(406,684,o),
(376.39,651,c),
(376.39,645,l),
(385,631,o),
(388,609,o),
(388,581,cs),
(388,485,o),
(348,311,o),
(329,195,cs),
(325,176,o),
(323,154,o),
(323,132,cs),
(323,62,o),
(346,-10,o),
(430,-10,cs)
);
}
);
width = 582.98;
}
);
unicode = 100;
},
{
color = 0;
glyphname = e;
lastChange = "2023-05-26 13:34:10 +0000";
layers = (
{
background = {
shapes = (
{
closed = 1;
nodes = (
(125.253,507,o),
(20.857,349.48,o),
(20.744,209.012,cs),
(20.627,63.825,o),
(119.449,-4.541,o),
(230.294,-4.597,cs),
(313.063,-4.638,o),
(402.535,33.408,o),
(462.524,106,c),
(440.302,138.659,l),
(437.402,129.841,o),
(369.186,88.344,o),
(306.022,88.436,cs),
(250.542,88.518,o),
(198.96,120.686,o),
(198.96,235.27,cs),
(198.96,348.007,o),
(246.75,415.051,o),
(283.68,415.014,cs),
(351.149,414.947,o),
(366.991,165.871,o),
(115.72,278.752,c),
(116.088,230.197,l),
(453.919,23.727,o),
(611.401,507,o),
(310.553,507,cs)
);
}
);
};
layerId = "CDFC0212-EC7A-4000-86F8-EA19B9E6D7F9";
name = Regular;
shapes = (
{
closed = 1;
nodes = (
(345,-13,o),
(474,41,o),
(474,179,c),
(467,184,l),
(439,141,o),
(371,103,o),
(311,103,cs),
(252,103,o),
(202,138,o),
(202,233,cs),
(202,373,o),
(262.821,423.133,o),
(309.06,423.133,cs),
(334.027,423.133,o),
(351.596,398.513,o),
(351.596,366.471,cs),
(352,327,o),
(322,250,o),
(253,250,cs),
(226,250,o),
(193,260,o),
(154,286,c),
(153,260,l),
(201,208,o),
(256,186,o),
(308,186,cs),
(407,186,o),
(493,266,o),
(492.803,376.274,cs),
(493,446,o),
(440.772,507,o),
(333.553,507,cs),
(134,507,o),
(20,338,o),
(20,198,cs),
(20,86,o),
(92,-13,o),
(248,-13,cs)
);
}
);
width = 518;
},
{
associatedMasterId = "CDFC0212-EC7A-4000-86F8-EA19B9E6D7F9";
background = {
shapes = (
{
closed = 1;
nodes = (
(140.253,507,o),
(35.857,349.48,o),
(35.744,209.012,cs),
(35.627,63.825,o),
(134.449,-4.541,o),
(245.294,-4.597,cs),
(328.063,-4.638,o),
(417.535,33.408,o),
(477.524,106,c),
(455.302,138.659,l),
(452.402,129.841,o),
(384.186,88.344,o),
(321.022,88.436,cs),
(265.542,88.518,o),
(213.96,120.686,o),
(213.96,235.27,cs),
(213.96,348.007,o),
(261.75,415.051,o),
(298.68,415.014,cs),
(366.149,414.947,o),
(381.991,165.871,o),
(130.72,278.752,c),
(131.088,230.197,l),
(468.919,23.727,o),
(626.401,507,o),
(325.553,507,cs)
);
}
);
};
layerId = "AA4A2CC7-01E9-4C40-A9F2-ED0EBF682B93";
name = "May 25, 23, 11:30";
shapes = (
{
closed = 1;
nodes = (
(316.271,236.759,o),
(366.596,312.244,o),
(366.596,366.471,cs),
(366.596,398.513,o),
(349.027,423.133,o),
(324.06,423.133,cs),
(277.821,423.133,o),
(216.96,383.29,o),
(216.96,242.868,cs),
(216.96,148.053,o),
(267.498,113.131,o),
(325.523,113.131,cs),
(385.775,113.131,o),
(454.101,150.706,o),
(482.302,193.659,c),
(489.228,188.963,l),
(489.228,50.687,o),
(359.519,-3.456,o),
(263.28,-3.456,cs),
(-91.12,-3.456,o),
(-9.847,507,o),
(348.553,507,cs),
(455.772,507,o),
(507.803,446.005,o),
(507.803,376.274,cs),
(507.803,283.233,o),
(415.17,174.64,o),
(237.406,174.64,cs),
(215.539,174.64,o),
(192.384,176.283,o),
(167.954,179.801,c),
(166.309,223.394,l)
);
}
);
width = 542.8;
},
{
associatedMasterId = "CDFC0212-EC7A-4000-86F8-EA19B9E6D7F9";
background = {
shapes = (
{
closed = 1;
nodes = (
(140.253,507,o),
(35.857,349.48,o),
(35.744,209.012,cs),
(35.627,63.825,o),
(134.449,-4.541,o),
(245.294,-4.597,cs),
(328.063,-4.638,o),
(417.535,33.408,o),
(477.524,106,c),
(455.302,138.659,l),
(452.402,129.841,o),
(384.186,88.344,o),
(321.022,88.436,cs),
(265.542,88.518,o),
(213.96,120.686,o),
(213.96,235.27,cs),
(213.96,348.007,o),
(261.75,415.051,o),
(298.68,415.014,cs),
(366.149,414.947,o),
(381.991,165.871,o),
(130.72,278.752,c),
(131.088,230.197,l),
(468.919,23.727,o),
(626.401,507,o),
(325.553,507,cs)
);
}
);
};
layerId = "651A776C-A8FC-4BB3-B30F-95B8C2704774";
name = "May 24, 23, 19:40";
shapes = (
{
closed = 1;
nodes = (
(316.271,236.759,o),
(366.596,312.244,o),
(366.596,366.471,cs),
(366.596,398.513,o),
(349.027,423.133,o),
(324.06,423.133,cs),
(277.821,423.133,o),
(216.96,375.692,o),
(216.96,235.27,cs),
(216.96,125.616,o),
(273.789,93.249,o),
(335.469,93.249,cs),
(397.385,93.249,o),
(464.189,125.864,o),
(483.302,145.659,c),
(505.524,113,l),
(440.939,34.847,o),
(348.548,-3.456,o),
(263.28,-3.456,cs),
(-91.12,-3.456,o),
(-9.847,507,o),
(348.553,507,cs),
(455.772,507,o),
(507.803,446.005,o),
(507.803,376.274,cs),
(507.803,283.233,o),
(415.17,174.64,o),
(237.406,174.64,cs),
(215.539,174.64,o),
(192.384,176.283,o),
(167.954,179.801,c),
(166.309,223.394,l)
);
}
);
width = 542.8;
},
{
background = {
shapes = (
{
closed = 1;
nodes = (
(125.253,507,o),
(20.857,349.48,o),
(20.744,209.012,cs),
(20.627,63.825,o),
(119.449,-4.541,o),
(230.294,-4.597,cs),
(313.063,-4.638,o),
(402.535,33.408,o),
(462.524,106,c),
(440.302,138.659,l),
(437.402,129.841,o),
(369.186,88.344,o),
(306.022,88.436,cs),
(250.542,88.518,o),
(198.96,120.686,o),
(198.96,235.27,cs),
(198.96,348.007,o),
(246.75,415.051,o),
(283.68,415.014,cs),
(351.149,414.947,o),
(366.991,165.871,o),
(115.72,278.752,c),
(116.088,230.197,l),
(453.919,23.727,o),
(611.401,507,o),
(310.553,507,cs)
);
}
);
};
layerId = m002;
name = Regular;
shapes = (
{
closed = 1;
nodes = (
(345,-13,o),
(474,41,o),
(474,179,c),
(467,184,l),
(439,141,o),
(371,103,o),
(311,103,cs),
(252,103,o),
(202,138,o),
(202,233,cs),
(202,373,o),
(262.821,423.133,o),
(309.06,423.133,cs),
(334.027,423.133,o),
(351.596,398.513,o),
(351.596,366.471,cs),
(352,327,o),
(322,250,o),
(253,250,cs),
(226,250,o),
(193,260,o),
(154,286,c),
(153,260,l),
(201,208,o),
(256,186,o),
(308,186,cs),
(407,186,o),
(493,266,o),
(492.803,376.274,cs),
(493,446,o),
(440.772,507,o),
(333.553,507,cs),
(134,507,o),
(20,338,o),
(20,198,cs),
(20,86,o),
(92,-13,o),
(248,-13,cs)
);
}
);
width = 518;
},
{
associatedMasterId = m002;
background = {
shapes = (
{
closed = 1;
nodes = (
(140.253,507,o),
(35.857,349.48,o),
(35.744,209.012,cs),
(35.627,63.825,o),
(134.449,-4.541,o),
(245.294,-4.597,cs),
(328.063,-4.638,o),
(417.535,33.408,o),
(477.524,106,c),
(455.302,138.659,l),
(452.402,129.841,o),
(384.186,88.344,o),
(321.022,88.436,cs),
(265.542,88.518,o),
(213.96,120.686,o),
(213.96,235.27,cs),
(213.96,348.007,o),
(261.75,415.051,o),
(298.68,415.014,cs),
(366.149,414.947,o),
(381.991,165.871,o),
(130.72,278.752,c),
(131.088,230.197,l),
(468.919,23.727,o),
(626.401,507,o),
(325.553,507,cs)
);
}
);
};
layerId = "49301600-FC1E-49A5-9225-C80B7F6AEE89";
name = "May 25, 23, 11:30";
shapes = (
{
closed = 1;
nodes = (
(316.271,236.759,o),
(366.596,312.244,o),
(366.596,366.471,cs),
(366.596,398.513,o),
(349.027,423.133,o),
(324.06,423.133,cs),
(277.821,423.133,o),
(216.96,383.29,o),
(216.96,242.868,cs),
(216.96,148.053,o),
(267.498,113.131,o),
(325.523,113.131,cs),
(385.775,113.131,o),
(454.101,150.706,o),
(482.302,193.659,c),
(489.228,188.963,l),
(489.228,50.687,o),
(359.519,-3.456,o),
(263.28,-3.456,cs),
(-91.12,-3.456,o),
(-9.847,507,o),
(348.553,507,cs),
(455.772,507,o),
(507.803,446.005,o),
(507.803,376.274,cs),
(507.803,283.233,o),
(415.17,174.64,o),
(237.406,174.64,cs),
(215.539,174.64,o),
(192.384,176.283,o),
(167.954,179.801,c),
(166.309,223.394,l)
);
}
);
width = 542.8;
},
{
associatedMasterId = m002;
background = {
shapes = (
{
closed = 1;
nodes = (
(140.253,507,o),
(35.857,349.48,o),
(35.744,209.012,cs),
(35.627,63.825,o),
(134.449,-4.541,o),
(245.294,-4.597,cs),
(328.063,-4.638,o),
(417.535,33.408,o),
(477.524,106,c),
(455.302,138.659,l),
(452.402,129.841,o),
(384.186,88.344,o),
(321.022,88.436,cs),
(265.542,88.518,o),
(213.96,120.686,o),
(213.96,235.27,cs),
(213.96,348.007,o),
(261.75,415.051,o),
(298.68,415.014,cs),
(366.149,414.947,o),
(381.991,165.871,o),
(130.72,278.752,c),
(131.088,230.197,l),
(468.919,23.727,o),
(626.401,507,o),
(325.553,507,cs)
);
}
);
};
layerId = "B7E485A5-0AD9-4A69-A4A1-2B01C26AEDAD";
name = "May 24, 23, 19:40";
shapes = (
{
closed = 1;
nodes = (
(316.271,236.759,o),
(366.596,312.244,o),
(366.596,366.471,cs),
(366.596,398.513,o),
(349.027,423.133,o),
(324.06,423.133,cs),
(277.821,423.133,o),
(216.96,375.692,o),
(216.96,235.27,cs),
(216.96,125.616,o),
(273.789,93.249,o),
(335.469,93.249,cs),
(397.385,93.249,o),
(464.189,125.864,o),
(483.302,145.659,c),
(505.524,113,l),
(440.939,34.847,o),
(348.548,-3.456,o),
(263.28,-3.456,cs),
(-91.12,-3.456,o),
(-9.847,507,o),
(348.553,507,cs),
(455.772,507,o),
(507.803,446.005,o),
(507.803,376.274,cs),
(507.803,283.233,o),
(415.17,174.64,o),
(237.406,174.64,cs),
(215.539,174.64,o),
(192.384,176.283,o),
(167.954,179.801,c),
(166.309,223.394,l)
);
}
);
width = 542.8;
},
{
background = {
shapes = (
{
closed = 1;
nodes = (
(125.253,507,o),
(20.857,349.48,o),
(20.744,209.012,cs),
(20.627,63.825,o),
(119.449,-4.541,o),
(230.294,-4.597,cs),
(313.063,-4.638,o),
(402.535,33.408,o),
(462.524,106,c),
(440.302,138.659,l),
(437.402,129.841,o),
(369.186,88.344,o),
(306.022,88.436,cs),
(250.542,88.518,o),
(198.96,120.686,o),
(198.96,235.27,cs),
(198.96,348.007,o),
(246.75,415.051,o),
(283.68,415.014,cs),
(351.149,414.947,o),
(366.991,165.871,o),
(115.72,278.752,c),
(116.088,230.197,l),
(453.919,23.727,o),
(611.401,507,o),
(310.553,507,cs)
);
}
);
};
layerId = m003;
name = Regular;
shapes = (
{
closed = 1;
nodes = (
(345,-13,o),
(474,41,o),
(474,179,c),
(467,184,l),
(439,141,o),
(371,103,o),
(311,103,cs),
(252,103,o),
(202,138,o),
(202,233,cs),
(202,373,o),
(262.821,423.133,o),
(309.06,423.133,cs),
(334.027,423.133,o),
(351.596,398.513,o),
(351.596,366.471,cs),
(352,327,o),
(322,250,o),
(253,250,cs),
(226,250,o),
(193,260,o),
(154,286,c),
(153,260,l),
(201,208,o),
(256,186,o),
(308,186,cs),
(407,186,o),
(493,266,o),
(492.803,376.274,cs),
(493,446,o),
(440.772,507,o),
(333.553,507,cs),
(134,507,o),
(20,338,o),
(20,198,cs),
(20,86,o),
(92,-13,o),
(248,-13,cs)
);
}
);
width = 518;
},
{
associatedMasterId = m003;
background = {
shapes = (
{
closed = 1;
nodes = (
(140.253,507,o),
(35.857,349.48,o),
(35.744,209.012,cs),
(35.627,63.825,o),
(134.449,-4.541,o),
(245.294,-4.597,cs),
(328.063,-4.638,o),
(417.535,33.408,o),
(477.524,106,c),
(455.302,138.659,l),
(452.402,129.841,o),
(384.186,88.344,o),
(321.022,88.436,cs),
(265.542,88.518,o),
(213.96,120.686,o),
(213.96,235.27,cs),
(213.96,348.007,o),
(261.75,415.051,o),
(298.68,415.014,cs),
(366.149,414.947,o),
(381.991,165.871,o),
(130.72,278.752,c),
(131.088,230.197,l),
(468.919,23.727,o),
(626.401,507,o),
(325.553,507,cs)
);
}
);
};
layerId = "543B5B2F-E787-4161-9208-5BD622763705";
name = "May 25, 23, 11:30";
shapes = (
{
closed = 1;
nodes = (
(316.271,236.759,o),
(366.596,312.244,o),
(366.596,366.471,cs),
(366.596,398.513,o),
(349.027,423.133,o),
(324.06,423.133,cs),
(277.821,423.133,o),
(216.96,383.29,o),
(216.96,242.868,cs),
(216.96,148.053,o),
(267.498,113.131,o),
(325.523,113.131,cs),
(385.775,113.131,o),
(454.101,150.706,o),
(482.302,193.659,c),
(489.228,188.963,l),
(489.228,50.687,o),
(359.519,-3.456,o),
(263.28,-3.456,cs),
(-91.12,-3.456,o),
(-9.847,507,o),
(348.553,507,cs),
(455.772,507,o),
(507.803,446.005,o),
(507.803,376.274,cs),
(507.803,283.233,o),
(415.17,174.64,o),
(237.406,174.64,cs),
(215.539,174.64,o),
(192.384,176.283,o),
(167.954,179.801,c),
(166.309,223.394,l)
);
}
);
width = 542.8;
},
{
associatedMasterId = m003;
background = {
shapes = (
{
closed = 1;
nodes = (
(140.253,507,o),
(35.857,349.48,o),
(35.744,209.012,cs),
(35.627,63.825,o),
(134.449,-4.541,o),
(245.294,-4.597,cs),
(328.063,-4.638,o),
(417.535,33.408,o),
(477.524,106,c),
(455.302,138.659,l),
(452.402,129.841,o),
(384.186,88.344,o),
(321.022,88.436,cs),
(265.542,88.518,o),
(213.96,120.686,o),
(213.96,235.27,cs),
(213.96,348.007,o),
(261.75,415.051,o),
(298.68,415.014,cs),
(366.149,414.947,o),
(381.991,165.871,o),
(130.72,278.752,c),
(131.088,230.197,l),
(468.919,23.727,o),
(626.401,507,o),
(325.553,507,cs)
);
}
);
};
layerId = "633EBDA2-2AFB-476D-BC3E-79544C24A89A";
name = "May 24, 23, 19:40";
shapes = (
{
closed = 1;
nodes = (
(316.271,236.759,o),
(366.596,312.244,o),
(366.596,366.471,cs),
(366.596,398.513,o),
(349.027,423.133,o),
(324.06,423.133,cs),
(277.821,423.133,o),
(216.96,375.692,o),
(216.96,235.27,cs),
(216.96,125.616,o),
(273.789,93.249,o),
(335.469,93.249,cs),
(397.385,93.249,o),
(464.189,125.864,o),
(483.302,145.659,c),
(505.524,113,l),
(440.939,34.847,o),
(348.548,-3.456,o),
(263.28,-3.456,cs),
(-91.12,-3.456,o),
(-9.847,507,o),
(348.553,507,cs),
(455.772,507,o),
(507.803,446.005,o),
(507.803,376.274,cs),
(507.803,283.233,o),
(415.17,174.64,o),
(237.406,174.64,cs),
(215.539,174.64,o),
(192.384,176.283,o),
(167.954,179.801,c),
(166.309,223.394,l)
);
}
);
width = 542.8;
}
);
unicode = 101;
},
{
glyphname = f;
lastChange = "2023-05-26 13:34:10 +0000";
layers = (
{
layerId = "CDFC0212-EC7A-4000-86F8-EA19B9E6D7F9";
name = Regular;
shapes = (
{
closed = 1;
nodes = (
(160,-13,o),
(190,-6,o),
(211,9,c),
(243,107,o),
(250,228,o),
(250,330,cs),
(250,416,o),
(245,496,o),
(245,557,cs),
(245,625,o),
(251,668,o),
(278.493,668.285,cs),
(286,668,o),
(291,660,o),
(291,644,cs),
(291,627,o),
(285,602,o),
(269.875,569.643,c),
(348,570,o),
(384,607,o),
(384,644,cs),
(384,682,o),
(347,720,o),
(277.509,720,cs),
(61.047,720,o),
(148,356,o),
(40,29,c),
(53,1,o),
(91,-13,o),
(131,-13,cs)
);
},
{
closed = 1;
nodes = (
(77,413,o),
(112,419,o),
(166,419,cs),
(205,419,o),
(254,415,o),
(323.185,407.905,c),
(331,427,o),
(338,452,o),
(338,474,cs),
(338,483,o),
(336,492,o),
(333.616,499.905,c),
(297,503,o),
(265,505,o),
(237,505,cs),
(141,505,o),
(90,483,o),
(30.001,411.22,c),
(32.293,403.59,l)
);
}
);
width = 338.86;
},
{
associatedMasterId = "CDFC0212-EC7A-4000-86F8-EA19B9E6D7F9";
layerId = "15B0D16C-E193-47BD-BBB4-D0195F04BE99";
name = "{LONG}May 24, 23, 15:07";
shapes = (
{
closed = 1;
nodes = (
(415.136,677,o),
(426.033,526.643,o),
(269.875,526.643,c),
(299.357,589.112,o),
(293.102,625.285,o),
(278.493,625.285,cs),
(197.876,625.285,o),
(278.694,244.881,o),
(181.162,-178.08,c),
(130.756,-212.504,o),
(32.996,-207.484,o),
(9.996,-157.512,c),
(128.214,318.808,o),
(61.047,677,o),
(277.509,677,cs)
);
},
{
closed = 1;
nodes = (
(30.001,411.22,l),
(107.901,504.266,o),
(169.666,512.905,o),
(333.616,499.905,c),
(343.139,472.572,o),
(333.662,435.238,o),
(323.185,407.905,c),
(159.235,425.905,o),
(109.017,419.266,o),
(32.293,403.59,c)
);
}
);
visible = 1;
width = 338.86;
},
{
associatedMasterId = "CDFC0212-EC7A-4000-86F8-EA19B9E6D7F9";
layerId = "5C991851-B402-4C40-9516-0357264299C7";
name = "May 22, 23, 23:48";
shapes = (
{
closed = 1;
nodes = (
(46.523,437.238,o),
(47,454.572,o),
(52.477,481.905,c),
(144.658,497.905,o),
(217.696,502.905,o),
(331.646,499.905,c),
(341.169,472.572,o),
(340.692,445.238,o),
(330.215,417.905,c),
(216.265,425.905,o),
(143.227,415.905,o),
(51.046,409.905,c)
);
},
{
closed = 1;
nodes = (
(455.136,677,o),
(466.033,526.643,o),
(309.875,526.643,c),
(339.709,589.859,o),
(339.719,616.031,o),
(319.875,616.031,cs),
(257.723,616.031,o),
(194.458,109.884,o),
(181.162,-171.08,c),
(130.756,-205.504,o),
(32.996,-200.484,o),
(9.996,-150.512,c),
(72.595,500,o),
(151.047,677,o),
(317.509,677,cs)
);
}
);
width = 338.37;
},
{
associatedMasterId = "CDFC0212-EC7A-4000-86F8-EA19B9E6D7F9";
layerId = "F6F0FCBA-36B1-42E2-BD10-2B4804F95C4E";
name = "May 23, 23, 08:51";
shapes = (
{
closed = 1;
nodes = (
(58.523,437.238,o),
(59,454.572,o),
(64.477,481.905,c),
(156.658,497.905,o),
(229.696,502.905,o),
(343.646,499.905,c),
(353.169,472.572,o),
(352.692,445.238,o),
(342.215,417.905,c),
(228.265,425.905,o),
(155.227,415.905,o),
(63.046,409.905,c)
);
},
{
closed = 1;
nodes = (
(475.136,677,o),
(486.033,526.643,o),
(329.875,526.643,c),
(359.709,589.859,o),
(359.719,616.031,o),
(339.875,616.031,cs),
(277.723,616.031,o),
(214.458,299.884,o),
(201.162,18.92,c),
(150.756,-15.504,o),
(52.996,-10.484,o),
(29.996,39.488,c),
(83.179,592.146,o),
(171.047,677,o),
(337.509,677,cs)
);
}
);
width = 363.86;
},
{
associatedMasterId = "CDFC0212-EC7A-4000-86F8-EA19B9E6D7F9";
layerId = "5E294A60-9976-40B6-8F3F-1390044053C1";
name = "May 23, 23, 08:56";
shapes = (
{
closed = 1;
nodes = (
(53.543,437.238,o),
(54.02,454.572,o),
(59.497,481.905,c),
(151.678,497.905,o),
(218.716,502.905,o),
(332.666,499.905,c),
(342.189,472.572,o),
(341.712,445.238,o),
(331.235,417.905,c),
(217.285,425.905,o),
(150.247,415.905,o),
(58.066,409.905,c)
);
},
{
closed = 1;
nodes = (
(470.156,737,o),
(477.053,546.643,o),
(310.895,546.643,c),
(340.729,609.859,o),
(330.739,676.031,o),
(310.895,676.031,cs),
(248.743,676.031,o),
(229.76,322.166,o),
(236.464,41.202,c),
(194.522,-11.222,o),
(122.957,-13.646,o),
(61.016,11.93,c),
(86.106,629.859,o),
(162.067,737,o),
(322.529,737,cs)
);
}
);
visible = 1;
width = 339.39;
},
{
associatedMasterId = "CDFC0212-EC7A-4000-86F8-EA19B9E6D7F9";
layerId = "72FE70C1-02A2-46BB-A5B9-4A12DADA2462";
name = "May 24, 23, 15:13";
shapes = (
{
closed = 1;
nodes = (
(39.523,437.238,o),
(40,454.572,o),
(45.477,481.905,c),
(137.658,497.905,o),
(222.696,502.905,o),
(336.646,499.905,c),
(346.169,472.572,o),
(345.692,445.238,o),
(335.215,417.905,c),
(221.265,425.905,o),
(136.227,415.905,o),
(44.046,409.905,c)
);
},
{
closed = 1;
nodes = (
(475.136,677,o),
(486.033,526.643,o),
(329.875,526.643,c),
(359.709,589.859,o),
(359.719,616.031,o),
(339.875,616.031,cs),
(277.723,616.031,o),
(214.458,299.884,o),
(201.162,18.92,c),
(150.756,-15.504,o),
(52.996,-10.484,o),
(29.996,39.488,c),
(83.179,592.146,o),
(171.047,677,o),
(337.509,677,cs)
);
}
);
visible = 1;
width = 363.86;
},
{
associatedMasterId = "CDFC0212-EC7A-4000-86F8-EA19B9E6D7F9";
layerId = "38E79F88-18FD-4A50-A47C-7BF8D78C5373";
name = "May 24, 23, 19:28";
shapes = (
{
closed = 1;
nodes = (
(49.523,437.238,o),
(50,454.572,o),
(55.477,481.905,c),
(147.658,497.905,o),
(232.696,502.905,o),
(346.646,499.905,c),
(356.169,472.572,o),
(355.692,445.238,o),
(345.215,417.905,c),
(231.265,425.905,o),
(146.227,415.905,o),
(54.046,409.905,c)
);
},
{
closed = 1;
nodes = (
(415.136,677,o),
(426.033,526.643,o),
(269.875,526.643,c),
(299.357,589.112,o),
(293.102,625.285,o),
(278.493,625.285,cs),
(197.876,625.285,o),
(298.694,291.881,o),
(211.162,18.92,c),
(160.756,-15.504,o),
(62.996,-10.484,o),
(39.996,39.488,c),
(148.214,365.808,o),
(61.047,677,o),
(277.509,677,cs)
);
}
);
width = 338.86;
},
{
associatedMasterId = "CDFC0212-EC7A-4000-86F8-EA19B9E6D7F9";
layerId = "49CAB618-CC80-4A1C-A408-59982D47F1AE";
name = "May 24, 23, 19:31";
shapes = (
{
closed = 1;
nodes = (
(39.523,437.238,o),
(40,454.572,o),
(45.477,481.905,c),
(137.658,497.905,o),
(222.696,502.905,o),
(336.646,499.905,c),
(346.169,472.572,o),
(345.692,445.238,o),
(335.215,417.905,c),
(221.265,425.905,o),
(136.227,415.905,o),
(44.046,409.905,c)
);
},
{
closed = 1;
nodes = (
(475.136,677,o),
(486.033,526.643,o),
(329.875,526.643,c),
(359.709,589.859,o),
(359.719,616.031,o),
(339.875,616.031,cs),
(208.949,616.031,o),
(247.789,-77.834,o),
(131.162,-181.08,c),
(80.756,-215.504,o),
(-17.004,-210.484,o),
(-40.004,-160.512,c),
(123.396,129.198,o),
(44.046,677,o),
(337.509,677,cs)
);
}
);
width = 363.86;
},
{
layerId = m002;
name = Regular;
shapes = (
{
closed = 1;
nodes = (
(160,-13,o),
(190,-6,o),
(211,9,c),
(243,107,o),
(250,228,o),
(250,330,cs),
(250,416,o),
(245,496,o),
(245,557,cs),
(245,625,o),
(251,668,o),
(278.493,668.285,cs),
(286,668,o),
(291,660,o),
(291,644,cs),
(291,627,o),
(285,602,o),
(269.875,569.643,c),
(348,570,o),
(384,607,o),
(384,644,cs),
(384,682,o),
(347,720,o),
(277.509,720,cs),
(61.047,720,o),
(148,356,o),
(40,29,c),
(53,1,o),
(91,-13,o),
(131,-13,cs)
);
},
{
closed = 1;
nodes = (
(77,413,o),
(112,419,o),
(166,419,cs),
(205,419,o),
(254,415,o),
(323.185,407.905,c),
(331,427,o),
(338,452,o),
(338,474,cs),
(338,483,o),
(336,492,o),
(333.616,499.905,c),
(297,503,o),
(265,505,o),
(237,505,cs),
(141,505,o),
(90,483,o),
(30.001,411.22,c),
(32.293,403.59,l)
);
}
);
width = 338.86;
},
{
associatedMasterId = m002;
layerId = "065C8B37-C13E-4B20-BFAC-CF795375CCD1";
name = "{LONG}May 24, 23, 15:07";
shapes = (
{
closed = 1;
nodes = (
(415.136,677,o),
(426.033,526.643,o),
(269.875,526.643,c),
(299.357,589.112,o),
(293.102,625.285,o),
(278.493,625.285,cs),
(197.876,625.285,o),
(278.694,244.881,o),
(181.162,-178.08,c),
(130.756,-212.504,o),
(32.996,-207.484,o),
(9.996,-157.512,c),
(128.214,318.808,o),
(61.047,677,o),
(277.509,677,cs)
);
},
{
closed = 1;
nodes = (
(30.001,411.22,l),
(107.901,504.266,o),
(169.666,512.905,o),
(333.616,499.905,c),
(343.139,472.572,o),
(333.662,435.238,o),
(323.185,407.905,c),
(159.235,425.905,o),
(109.017,419.266,o),
(32.293,403.59,c)
);
}
);
width = 338.86;
},
{
associatedMasterId = m002;
layerId = "BF1D1D8E-3642-4562-BA98-5FA54A57E723";
name = "May 22, 23, 23:48";
shapes = (
{
closed = 1;
nodes = (
(46.523,437.238,o),
(47,454.572,o),
(52.477,481.905,c),
(144.658,497.905,o),
(217.696,502.905,o),
(331.646,499.905,c),
(341.169,472.572,o),
(340.692,445.238,o),
(330.215,417.905,c),
(216.265,425.905,o),
(143.227,415.905,o),
(51.046,409.905,c)
);
},
{
closed = 1;
nodes = (
(455.136,677,o),
(466.033,526.643,o),
(309.875,526.643,c),
(339.709,589.859,o),
(339.719,616.031,o),
(319.875,616.031,cs),
(257.723,616.031,o),
(194.458,109.884,o),
(181.162,-171.08,c),
(130.756,-205.504,o),
(32.996,-200.484,o),
(9.996,-150.512,c),
(72.595,500,o),
(151.047,677,o),
(317.509,677,cs)
);
}
);
width = 338.37;
},
{
associatedMasterId = m002;
layerId = "7DB47382-B010-46E3-9AB1-395093418CA1";
name = "May 23, 23, 08:51";
shapes = (
{
closed = 1;
nodes = (
(58.523,437.238,o),
(59,454.572,o),
(64.477,481.905,c),
(156.658,497.905,o),
(229.696,502.905,o),
(343.646,499.905,c),
(353.169,472.572,o),
(352.692,445.238,o),
(342.215,417.905,c),
(228.265,425.905,o),
(155.227,415.905,o),
(63.046,409.905,c)
);
},
{
closed = 1;
nodes = (
(475.136,677,o),
(486.033,526.643,o),
(329.875,526.643,c),
(359.709,589.859,o),
(359.719,616.031,o),
(339.875,616.031,cs),
(277.723,616.031,o),
(214.458,299.884,o),
(201.162,18.92,c),
(150.756,-15.504,o),
(52.996,-10.484,o),
(29.996,39.488,c),
(83.179,592.146,o),
(171.047,677,o),
(337.509,677,cs)
);
}
);
width = 363.86;
},
{
associatedMasterId = m002;
layerId = "9AA5B660-3A63-46AE-835C-FC441FD0DD40";
name = "May 23, 23, 08:56";
shapes = (
{
closed = 1;
nodes = (
(53.543,437.238,o),
(54.02,454.572,o),
(59.497,481.905,c),
(151.678,497.905,o),
(218.716,502.905,o),
(332.666,499.905,c),
(342.189,472.572,o),
(341.712,445.238,o),
(331.235,417.905,c),
(217.285,425.905,o),
(150.247,415.905,o),
(58.066,409.905,c)
);
},
{
closed = 1;
nodes = (
(470.156,737,o),
(477.053,546.643,o),
(310.895,546.643,c),
(340.729,609.859,o),
(330.739,676.031,o),
(310.895,676.031,cs),
(248.743,676.031,o),
(229.76,322.166,o),
(236.464,41.202,c),
(194.522,-11.222,o),
(122.957,-13.646,o),
(61.016,11.93,c),
(86.106,629.859,o),
(162.067,737,o),
(322.529,737,cs)
);
}
);
width = 339.39;
},
{
associatedMasterId = m002;
layerId = "926B1B13-5F98-4578-8921-E9D374B4C1DF";
name = "May 24, 23, 15:13";
shapes = (
{
closed = 1;
nodes = (
(39.523,437.238,o),
(40,454.572,o),
(45.477,481.905,c),
(137.658,497.905,o),
(222.696,502.905,o),
(336.646,499.905,c),
(346.169,472.572,o),
(345.692,445.238,o),
(335.215,417.905,c),
(221.265,425.905,o),
(136.227,415.905,o),
(44.046,409.905,c)
);
},
{
closed = 1;
nodes = (
(475.136,677,o),
(486.033,526.643,o),
(329.875,526.643,c),
(359.709,589.859,o),
(359.719,616.031,o),
(339.875,616.031,cs),
(277.723,616.031,o),
(214.458,299.884,o),
(201.162,18.92,c),
(150.756,-15.504,o),
(52.996,-10.484,o),
(29.996,39.488,c),
(83.179,592.146,o),
(171.047,677,o),
(337.509,677,cs)
);
}
);
width = 363.86;
},
{
associatedMasterId = m002;
layerId = "31BB0552-4054-4DE9-9008-A8A14E877768";
name = "May 24, 23, 19:28";
shapes = (
{
closed = 1;
nodes = (
(49.523,437.238,o),
(50,454.572,o),
(55.477,481.905,c),
(147.658,497.905,o),
(232.696,502.905,o),
(346.646,499.905,c),
(356.169,472.572,o),
(355.692,445.238,o),
(345.215,417.905,c),
(231.265,425.905,o),
(146.227,415.905,o),
(54.046,409.905,c)
);
},
{
closed = 1;
nodes = (
(415.136,677,o),
(426.033,526.643,o),
(269.875,526.643,c),
(299.357,589.112,o),
(293.102,625.285,o),
(278.493,625.285,cs),
(197.876,625.285,o),
(298.694,291.881,o),
(211.162,18.92,c),
(160.756,-15.504,o),
(62.996,-10.484,o),
(39.996,39.488,c),
(148.214,365.808,o),
(61.047,677,o),
(277.509,677,cs)
);
}
);
width = 338.86;
},
{
associatedMasterId = m002;
layerId = "7F7D8DEE-1A1A-47E9-B233-4D5DD715489F";
name = "May 24, 23, 19:31";
shapes = (
{
closed = 1;
nodes = (
(39.523,437.238,o),
(40,454.572,o),
(45.477,481.905,c),
(137.658,497.905,o),
(222.696,502.905,o),
(336.646,499.905,c),
(346.169,472.572,o),
(345.692,445.238,o),
(335.215,417.905,c),
(221.265,425.905,o),
(136.227,415.905,o),
(44.046,409.905,c)
);
},
{
closed = 1;
nodes = (
(475.136,677,o),
(486.033,526.643,o),
(329.875,526.643,c),
(359.709,589.859,o),
(359.719,616.031,o),
(339.875,616.031,cs),
(208.949,616.031,o),
(247.789,-77.834,o),
(131.162,-181.08,c),
(80.756,-215.504,o),
(-17.004,-210.484,o),
(-40.004,-160.512,c),
(123.396,129.198,o),
(44.046,677,o),
(337.509,677,cs)
);
}
);
width = 363.86;
},
{
layerId = m003;
name = Regular;
shapes = (
{
closed = 1;
nodes = (
(160,-13,o),
(190,-6,o),
(211,9,c),
(243,107,o),
(250,228,o),
(250,330,cs),
(250,416,o),
(245,496,o),
(245,557,cs),
(245,625,o),
(251,668,o),
(278.493,668.285,cs),
(286,668,o),
(291,660,o),
(291,644,cs),
(291,627,o),
(285,602,o),
(269.875,569.643,c),
(348,570,o),
(384,607,o),
(384,644,cs),
(384,682,o),
(347,720,o),
(277.509,720,cs),
(61.047,720,o),
(148,356,o),
(40,29,c),
(53,1,o),
(91,-13,o),
(131,-13,cs)
);
},
{
closed = 1;
nodes = (
(77,413,o),
(112,419,o),
(166,419,cs),
(205,419,o),
(254,415,o),
(323.185,407.905,c),
(331,427,o),
(338,452,o),
(338,474,cs),
(338,483,o),
(336,492,o),
(333.616,499.905,c),
(297,503,o),
(265,505,o),
(237,505,cs),
(141,505,o),
(90,483,o),
(30.001,411.22,c),
(32.293,403.59,l)
);
}
);
width = 338.86;
},
{
associatedMasterId = m003;
layerId = "ED02F3F7-E1D2-4E1D-99C7-ECF2B272EA0D";
name = "{LONG}May 24, 23, 15:07";
shapes = (
{
closed = 1;
nodes = (
(415.136,677,o),
(426.033,526.643,o),
(269.875,526.643,c),
(299.357,589.112,o),
(293.102,625.285,o),
(278.493,625.285,cs),
(197.876,625.285,o),
(278.694,244.881,o),
(181.162,-178.08,c),
(130.756,-212.504,o),
(32.996,-207.484,o),
(9.996,-157.512,c),
(128.214,318.808,o),
(61.047,677,o),
(277.509,677,cs)
);
},
{
closed = 1;
nodes = (
(30.001,411.22,l),
(107.901,504.266,o),
(169.666,512.905,o),
(333.616,499.905,c),
(343.139,472.572,o),
(333.662,435.238,o),
(323.185,407.905,c),
(159.235,425.905,o),
(109.017,419.266,o),
(32.293,403.59,c)
);
}
);
width = 338.86;
},
{
associatedMasterId = m003;
layerId = "A50EA394-6E66-4AA0-B037-06E475197A1B";
name = "May 22, 23, 23:48";
shapes = (
{
closed = 1;
nodes = (
(46.523,437.238,o),
(47,454.572,o),
(52.477,481.905,c),
(144.658,497.905,o),
(217.696,502.905,o),
(331.646,499.905,c),
(341.169,472.572,o),
(340.692,445.238,o),
(330.215,417.905,c),
(216.265,425.905,o),
(143.227,415.905,o),
(51.046,409.905,c)
);
},
{
closed = 1;
nodes = (
(455.136,677,o),
(466.033,526.643,o),
(309.875,526.643,c),
(339.709,589.859,o),
(339.719,616.031,o),
(319.875,616.031,cs),
(257.723,616.031,o),
(194.458,109.884,o),
(181.162,-171.08,c),
(130.756,-205.504,o),
(32.996,-200.484,o),
(9.996,-150.512,c),
(72.595,500,o),
(151.047,677,o),
(317.509,677,cs)
);
}
);
width = 338.37;
},
{
associatedMasterId = m003;
layerId = "91CD7212-D04F-45DF-8C10-47281D1F38E3";
name = "May 23, 23, 08:51";
shapes = (
{
closed = 1;
nodes = (
(58.523,437.238,o),
(59,454.572,o),
(64.477,481.905,c),
(156.658,497.905,o),
(229.696,502.905,o),
(343.646,499.905,c),
(353.169,472.572,o),
(352.692,445.238,o),
(342.215,417.905,c),
(228.265,425.905,o),
(155.227,415.905,o),
(63.046,409.905,c)
);
},
{
closed = 1;
nodes = (
(475.136,677,o),
(486.033,526.643,o),
(329.875,526.643,c),
(359.709,589.859,o),
(359.719,616.031,o),
(339.875,616.031,cs),
(277.723,616.031,o),
(214.458,299.884,o),
(201.162,18.92,c),
(150.756,-15.504,o),
(52.996,-10.484,o),
(29.996,39.488,c),
(83.179,592.146,o),
(171.047,677,o),
(337.509,677,cs)
);
}
);
width = 363.86;
},
{
associatedMasterId = m003;
layerId = "9CE9FBDB-1485-4C77-8C2C-A37E27B1629B";
name = "May 23, 23, 08:56";
shapes = (
{
closed = 1;
nodes = (
(53.543,437.238,o),
(54.02,454.572,o),
(59.497,481.905,c),
(151.678,497.905,o),
(218.716,502.905,o),
(332.666,499.905,c),
(342.189,472.572,o),
(341.712,445.238,o),
(331.235,417.905,c),
(217.285,425.905,o),
(150.247,415.905,o),
(58.066,409.905,c)
);
},
{
closed = 1;
nodes = (
(470.156,737,o),
(477.053,546.643,o),
(310.895,546.643,c),
(340.729,609.859,o),
(330.739,676.031,o),
(310.895,676.031,cs),
(248.743,676.031,o),
(229.76,322.166,o),
(236.464,41.202,c),
(194.522,-11.222,o),
(122.957,-13.646,o),
(61.016,11.93,c),
(86.106,629.859,o),
(162.067,737,o),
(322.529,737,cs)
);
}
);
width = 339.39;
},
{
associatedMasterId = m003;
layerId = "666C3E77-C4DE-4918-B5B0-FF450079F418";
name = "May 24, 23, 15:13";
shapes = (
{
closed = 1;
nodes = (
(39.523,437.238,o),
(40,454.572,o),
(45.477,481.905,c),
(137.658,497.905,o),
(222.696,502.905,o),
(336.646,499.905,c),
(346.169,472.572,o),
(345.692,445.238,o),
(335.215,417.905,c),
(221.265,425.905,o),
(136.227,415.905,o),
(44.046,409.905,c)
);
},
{
closed = 1;
nodes = (
(475.136,677,o),
(486.033,526.643,o),
(329.875,526.643,c),
(359.709,589.859,o),
(359.719,616.031,o),
(339.875,616.031,cs),
(277.723,616.031,o),
(214.458,299.884,o),
(201.162,18.92,c),
(150.756,-15.504,o),
(52.996,-10.484,o),
(29.996,39.488,c),
(83.179,592.146,o),
(171.047,677,o),
(337.509,677,cs)
);
}
);
width = 363.86;
},
{
associatedMasterId = m003;
layerId = "95D1F27E-AD75-42DA-99A6-FA2F92A71E79";
name = "May 24, 23, 19:28";
shapes = (
{
closed = 1;
nodes = (
(49.523,437.238,o),
(50,454.572,o),
(55.477,481.905,c),
(147.658,497.905,o),
(232.696,502.905,o),
(346.646,499.905,c),
(356.169,472.572,o),
(355.692,445.238,o),
(345.215,417.905,c),
(231.265,425.905,o),
(146.227,415.905,o),
(54.046,409.905,c)
);
},
{
closed = 1;
nodes = (
(415.136,677,o),
(426.033,526.643,o),
(269.875,526.643,c),
(299.357,589.112,o),
(293.102,625.285,o),
(278.493,625.285,cs),
(197.876,625.285,o),
(298.694,291.881,o),
(211.162,18.92,c),
(160.756,-15.504,o),
(62.996,-10.484,o),
(39.996,39.488,c),
(148.214,365.808,o),
(61.047,677,o),
(277.509,677,cs)
);
}
);
width = 338.86;
},
{
associatedMasterId = m003;
layerId = "C58D82FE-6E81-48C5-8FF2-DA4991AF3F6D";
name = "May 24, 23, 19:31";
shapes = (
{
closed = 1;
nodes = (
(39.523,437.238,o),
(40,454.572,o),
(45.477,481.905,c),
(137.658,497.905,o),
(222.696,502.905,o),
(336.646,499.905,c),
(346.169,472.572,o),
(345.692,445.238,o),
(335.215,417.905,c),
(221.265,425.905,o),
(136.227,415.905,o),
(44.046,409.905,c)
);
},
{
closed = 1;
nodes = (
(475.136,677,o),
(486.033,526.643,o),
(329.875,526.643,c),
(359.709,589.859,o),
(359.719,616.031,o),
(339.875,616.031,cs),
(208.949,616.031,o),
(247.789,-77.834,o),
(131.162,-181.08,c),
(80.756,-215.504,o),
(-17.004,-210.484,o),
(-40.004,-160.512,c),
(123.396,129.198,o),
(44.046,677,o),
(337.509,677,cs)
);
}
);
width = 363.86;
}
);
unicode = 102;
},
{
glyphname = g;
lastChange = "2023-05-26 13:34:10 +0000";
layers = (
{
layerId = "CDFC0212-EC7A-4000-86F8-EA19B9E6D7F9";
shapes = (
{
closed = 1;
nodes = (
(448.254,-199.663,o),
(483.851,107.607,o),
(506.149,298.826,cs),
(515.241,376.8,o),
(522.122,435.809,o),
(534.495,447.424,c),
(532.495,453.424,l),
(521,488,o),
(483,501,o),
(445,501,cs),
(402,501,o),
(361,484,o),
(360.587,462.227,cs),
(360.587,413.702,o),
(355.334,302.405,o),
(343.915,186.396,cs),
(326.821,12.729,o),
(269.794,-85.497,o),
(222.006,-85.497,cs),
(213,-85,o),
(207,-80,o),
(207,-68,cs),
(207,-32,o),
(257,65,o),
(418.699,269.461,c),
(400.36,303.363,l),
(229,135,o),
(155,-1,o),
(155,-89,cs),
(155,-160,o),
(203,-200,o),
(285.744,-199.663,cs)
);
},
{
closed = 1;
nodes = (
(239.286,40.808,o),
(341.09,123.7,o),
(366.651,316.266,c),
(357.279,346.191,l),
(330,223,o),
(275,156,o),
(235,156,cs),
(207,156,o),
(186,188,o),
(185.985,256.4,cs),
(186,326,o),
(231,412,o),
(282,412,cs),
(308,412,o),
(335,390,o),
(359.398,332.115,c),
(384.587,330.215,l),
(372.874,455.341,o),
(315.857,506.744,o),
(232.117,506.744,cs),
(138.346,506.744,o),
(30.025,394.325,o),
(30.002,232.181,cs),
(29.986,111.652,o),
(89.397,40.808,o),
(166.596,40.808,cs)
);
}
);
width = 554.5;
},
{
associatedMasterId = "CDFC0212-EC7A-4000-86F8-EA19B9E6D7F9";
layerId = "BCED0DF1-3607-4ED8-89D2-CCAFA0AD4CB6";
name = "May 24, 23, 13:55";
shapes = (
{
closed = 1;
nodes = (
(502.122,435.809,o),
(495.241,376.8,o),
(486.149,298.826,cs),
(463.851,107.607,o),
(428.254,-199.663,o),
(265.744,-199.663,cs),
(79.849,-199.663,o),
(70.623,-0.896,o),
(380.36,303.363,c),
(398.699,269.461,l),
(181.17,-5.769,o),
(185.979,-85.497,o),
(222.006,-85.497,cs),
(269.794,-85.497,o),
(306.821,12.729,o),
(323.915,186.396,cs),
(335.334,302.405,o),
(340.587,413.702,o),
(340.587,462.227,cs),
(340.587,502.728,o),
(486.97,527.944,o),
(512.495,453.424,c),
(514.495,447.424,l)
);
},
{
closed = 1;
nodes = (
(339.398,332.115,l),
(267.721,503.684,o),
(185.987,361.094,o),
(185.985,256.4,cs),
(185.983,90.547,o),
(290.29,137.987,o),
(337.279,346.191,c),
(346.651,316.266,l),
(321.09,123.7,o),
(239.286,40.808,o),
(166.596,40.808,cs),
(89.397,40.808,o),
(29.986,111.652,o),
(30.002,232.181,cs),
(30.025,394.325,o),
(138.346,506.744,o),
(232.117,506.744,cs),
(295.857,506.744,o),
(352.874,455.341,o),
(364.587,330.215,c)
);
}
);
width = 534.49;
},
{
associatedMasterId = "CDFC0212-EC7A-4000-86F8-EA19B9E6D7F9";
layerId = "849B38DA-8EA4-453B-8327-2DB1EE0831CE";
name = "May 24, 23, 14:15";
shapes = (
{
closed = 1;
nodes = (
(354.93,335.02,l),
(287.381,496.914,o),
(189.362,348.13,o),
(189.36,233.845,cs),
(189.357,52.798,o),
(303.22,104.584,o),
(354.513,331.861,c),
(368.39,226.794,l),
(335.15,76.25,o),
(246.831,0.105,o),
(168.759,0.194,cs),
(94.77,0.278,o),
(29.985,68.829,o),
(30.004,207.407,cs),
(30.024,347.649,o),
(107.144,507.185,o),
(250.91,507.191,cs),
(306.927,507.194,o),
(368.896,471.019,o),
(386.39,384,c)
);
},
{
closed = 1;
nodes = (
(490.189,407.326,o),
(512.931,-283.663,o),
(284.154,-283.663,cs),
(98.259,-283.663,o),
(26.795,-83.281,o),
(336.532,134.978,c),
(354.871,101.076,l),
(137.342,-88.154,o),
(201.677,-171.497,o),
(226.532,-171.497,cs),
(274.32,-171.497,o),
(325.231,12.729,o),
(342.325,186.396,cs),
(353.744,302.405,o),
(358.997,413.702,o),
(358.997,462.227,cs),
(358.997,502.728,o),
(505.38,527.944,o),
(530.905,453.424,c),
(532.905,447.424,l)
);
}
);
width = 552.9;
},
{
layerId = m002;
shapes = (
{
closed = 1;
nodes = (
(448.254,-199.663,o),
(483.851,107.607,o),
(506.149,298.826,cs),
(515.241,376.8,o),
(522.122,435.809,o),
(534.495,447.424,c),
(532.495,453.424,l),
(521,488,o),
(483,501,o),
(445,501,cs),
(402,501,o),
(361,484,o),
(360.587,462.227,cs),
(360.587,413.702,o),
(355.334,302.405,o),
(343.915,186.396,cs),
(326.821,12.729,o),
(269.794,-85.497,o),
(222.006,-85.497,cs),
(213,-85,o),
(207,-80,o),
(207,-68,cs),
(207,-32,o),
(257,65,o),
(418.699,269.461,c),
(400.36,303.363,l),
(229,135,o),
(155,-1,o),
(155,-89,cs),
(155,-160,o),
(203,-200,o),
(285.744,-199.663,cs)
);
},
{
closed = 1;
nodes = (
(239.286,40.808,o),
(341.09,123.7,o),
(366.651,316.266,c),
(357.279,346.191,l),
(330,223,o),
(275,156,o),
(235,156,cs),
(207,156,o),
(186,188,o),
(185.985,256.4,cs),
(186,326,o),
(231,412,o),
(282,412,cs),
(308,412,o),
(335,390,o),
(359.398,332.115,c),
(384.587,330.215,l),
(372.874,455.341,o),
(315.857,506.744,o),
(232.117,506.744,cs),
(138.346,506.744,o),
(30.025,394.325,o),
(30.002,232.181,cs),
(29.986,111.652,o),
(89.397,40.808,o),
(166.596,40.808,cs)
);
}
);
width = 554.5;
},
{
associatedMasterId = m002;
layerId = "807052B0-2BA7-4AC8-A2D9-B6908A8F0824";
name = "May 24, 23, 13:55";
shapes = (
{
closed = 1;
nodes = (
(502.122,435.809,o),
(495.241,376.8,o),
(486.149,298.826,cs),
(463.851,107.607,o),
(428.254,-199.663,o),
(265.744,-199.663,cs),
(79.849,-199.663,o),
(70.623,-0.896,o),
(380.36,303.363,c),
(398.699,269.461,l),
(181.17,-5.769,o),
(185.979,-85.497,o),
(222.006,-85.497,cs),
(269.794,-85.497,o),
(306.821,12.729,o),
(323.915,186.396,cs),
(335.334,302.405,o),
(340.587,413.702,o),
(340.587,462.227,cs),
(340.587,502.728,o),
(486.97,527.944,o),
(512.495,453.424,c),
(514.495,447.424,l)
);
},
{
closed = 1;
nodes = (
(339.398,332.115,l),
(267.721,503.684,o),
(185.987,361.094,o),
(185.985,256.4,cs),
(185.983,90.547,o),
(290.29,137.987,o),
(337.279,346.191,c),
(346.651,316.266,l),
(321.09,123.7,o),
(239.286,40.808,o),
(166.596,40.808,cs),
(89.397,40.808,o),
(29.986,111.652,o),
(30.002,232.181,cs),
(30.025,394.325,o),
(138.346,506.744,o),
(232.117,506.744,cs),
(295.857,506.744,o),
(352.874,455.341,o),
(364.587,330.215,c)
);
}
);
width = 534.49;
},
{
associatedMasterId = m002;
layerId = "587802DD-6893-4452-B006-8007357FBD79";
name = "May 24, 23, 14:15";
shapes = (
{
closed = 1;
nodes = (
(354.93,335.02,l),
(287.381,496.914,o),
(189.362,348.13,o),
(189.36,233.845,cs),
(189.357,52.798,o),
(303.22,104.584,o),
(354.513,331.861,c),
(368.39,226.794,l),
(335.15,76.25,o),
(246.831,0.105,o),
(168.759,0.194,cs),
(94.77,0.278,o),
(29.985,68.829,o),
(30.004,207.407,cs),
(30.024,347.649,o),
(107.144,507.185,o),
(250.91,507.191,cs),
(306.927,507.194,o),
(368.896,471.019,o),
(386.39,384,c)
);
},
{
closed = 1;
nodes = (
(490.189,407.326,o),
(512.931,-283.663,o),
(284.154,-283.663,cs),
(98.259,-283.663,o),
(26.795,-83.281,o),
(336.532,134.978,c),
(354.871,101.076,l),
(137.342,-88.154,o),
(201.677,-171.497,o),
(226.532,-171.497,cs),
(274.32,-171.497,o),
(325.231,12.729,o),
(342.325,186.396,cs),
(353.744,302.405,o),
(358.997,413.702,o),
(358.997,462.227,cs),
(358.997,502.728,o),
(505.38,527.944,o),
(530.905,453.424,c),
(532.905,447.424,l)
);
}
);
width = 552.9;
},
{
layerId = m003;
shapes = (
{
closed = 1;
nodes = (
(448.254,-199.663,o),
(483.851,107.607,o),
(506.149,298.826,cs),
(515.241,376.8,o),
(522.122,435.809,o),
(534.495,447.424,c),
(532.495,453.424,l),
(521,488,o),
(483,501,o),
(445,501,cs),
(402,501,o),
(361,484,o),
(360.587,462.227,cs),
(360.587,413.702,o),
(355.334,302.405,o),
(343.915,186.396,cs),
(326.821,12.729,o),
(269.794,-85.497,o),
(222.006,-85.497,cs),
(213,-85,o),
(207,-80,o),
(207,-68,cs),
(207,-32,o),
(257,65,o),
(418.699,269.461,c),
(400.36,303.363,l),
(229,135,o),
(155,-1,o),
(155,-89,cs),
(155,-160,o),
(203,-200,o),
(285.744,-199.663,cs)
);
},
{
closed = 1;
nodes = (
(239.286,40.808,o),
(341.09,123.7,o),
(366.651,316.266,c),
(357.279,346.191,l),
(330,223,o),
(275,156,o),
(235,156,cs),
(207,156,o),
(186,188,o),
(185.985,256.4,cs),
(186,326,o),
(231,412,o),
(282,412,cs),
(308,412,o),
(335,390,o),
(359.398,332.115,c),
(384.587,330.215,l),
(372.874,455.341,o),
(315.857,506.744,o),
(232.117,506.744,cs),
(138.346,506.744,o),
(30.025,394.325,o),
(30.002,232.181,cs),
(29.986,111.652,o),
(89.397,40.808,o),
(166.596,40.808,cs)
);
}
);
width = 554.5;
},
{
associatedMasterId = m003;
layerId = "6169A191-3CE7-409F-BD0D-86C232405391";
name = "May 24, 23, 13:55";
shapes = (
{
closed = 1;
nodes = (
(502.122,435.809,o),
(495.241,376.8,o),
(486.149,298.826,cs),
(463.851,107.607,o),
(428.254,-199.663,o),
(265.744,-199.663,cs),
(79.849,-199.663,o),
(70.623,-0.896,o),
(380.36,303.363,c),
(398.699,269.461,l),
(181.17,-5.769,o),
(185.979,-85.497,o),
(222.006,-85.497,cs),
(269.794,-85.497,o),
(306.821,12.729,o),
(323.915,186.396,cs),
(335.334,302.405,o),
(340.587,413.702,o),
(340.587,462.227,cs),
(340.587,502.728,o),
(486.97,527.944,o),
(512.495,453.424,c),
(514.495,447.424,l)
);
},
{
closed = 1;
nodes = (
(339.398,332.115,l),
(267.721,503.684,o),
(185.987,361.094,o),
(185.985,256.4,cs),
(185.983,90.547,o),
(290.29,137.987,o),
(337.279,346.191,c),
(346.651,316.266,l),
(321.09,123.7,o),
(239.286,40.808,o),
(166.596,40.808,cs),
(89.397,40.808,o),
(29.986,111.652,o),
(30.002,232.181,cs),
(30.025,394.325,o),
(138.346,506.744,o),
(232.117,506.744,cs),
(295.857,506.744,o),
(352.874,455.341,o),
(364.587,330.215,c)
);
}
);
width = 534.49;
},
{
associatedMasterId = m003;
layerId = "68219356-4245-47E2-AB2C-935EC00D9148";
name = "May 24, 23, 14:15";
shapes = (
{
closed = 1;
nodes = (
(354.93,335.02,l),
(287.381,496.914,o),
(189.362,348.13,o),
(189.36,233.845,cs),
(189.357,52.798,o),
(303.22,104.584,o),
(354.513,331.861,c),
(368.39,226.794,l),
(335.15,76.25,o),
(246.831,0.105,o),
(168.759,0.194,cs),
(94.77,0.278,o),
(29.985,68.829,o),
(30.004,207.407,cs),
(30.024,347.649,o),
(107.144,507.185,o),
(250.91,507.191,cs),
(306.927,507.194,o),
(368.896,471.019,o),
(386.39,384,c)
);
},
{
closed = 1;
nodes = (
(490.189,407.326,o),
(512.931,-283.663,o),
(284.154,-283.663,cs),
(98.259,-283.663,o),
(26.795,-83.281,o),
(336.532,134.978,c),
(354.871,101.076,l),
(137.342,-88.154,o),
(201.677,-171.497,o),
(226.532,-171.497,cs),
(274.32,-171.497,o),
(325.231,12.729,o),
(342.325,186.396,cs),
(353.744,302.405,o),
(358.997,413.702,o),
(358.997,462.227,cs),
(358.997,502.728,o),
(505.38,527.944,o),
(530.905,453.424,c),
(532.905,447.424,l)
);
}
);
width = 552.9;
}
);
unicode = 103;
},
{
glyphname = h;
lastChange = "2023-05-26 13:34:30 +0000";
layers = (
{
background = {
shapes = (
{
closed = 1;
nodes = (
(202,288,l),
(218.939,366,o),
(312,500,o),
(421.579,500,cs),
(621,500,o),
(412,103,o),
(503,103,c),
(518,103,o),
(529,111,o),
(536,126,c),
(551,98,l),
(534,46,o),
(488,0,o),
(412,0,cs),
(186,0,o),
(411,363,o),
(323,363,cs),
(272,363,o),
(218.939,288.662,o),
(206.939,224.662,c)
);
},
{
closed = 1;
nodes = (
(273,488.491,o),
(225.606,368.531,o),
(209,285,cs),
(202.943,254.53,o),
(206.854,240.173,o),
(206.939,224.662,cs),
(207.341,151.718,o),
(220,151.718,o),
(220,84,cs),
(220,42.376,o),
(178.929,-0.149,o),
(128.793,-0.149,cs),
(80.462,-0.149,o),
(30,32.861,o),
(30,79,cs),
(30,203.495,o),
(130.9,535.5,o),
(82,617,c),
(82,623,l),
(155,705,o),
(273,684,o),
(273,572,cs)
);
}
);
};
layerId = "CDFC0212-EC7A-4000-86F8-EA19B9E6D7F9";
shapes = (
{
closed = 1;
nodes = (
(477,-10,o),
(543,33,o),
(543,111,c),
(536,116,l),
(531,105,o),
(518,95,o),
(503,95,cs),
(485,95,o),
(479,111,o),
(479,135,cs),
(479,192,o),
(511,307,o),
(511,388,cs),
(511,451,o),
(492,500,o),
(421.579,500,cs),
(326.786,500,o),
(244.353,399.722,o),
(212.868,322.166,c),
(216.642,318.381,l),
(236.816,398.512,o),
(273,525.798,o),
(273,599,cs),
(273,665,o),
(232,700,o),
(183,700,cs),
(149,700,o),
(112,683,o),
(82,650,c),
(82,644,l),
(92,629,o),
(95,603,o),
(95,571,cs),
(95,439,o),
(30,185,o),
(30,89,cs),
(30,31,o),
(68,-10,o),
(124,-10,cs),
(187,-10,o),
(220,37,o),
(220,84,cs),
(220,137,o),
(205,164,o),
(205,196,cs),
(205,202,o),
(206,208,o),
(207,215,cs),
(218,279,o),
(272,363,o),
(323,363,cs),
(339,363,o),
(345,351,o),
(345,332,cs),
(345,284,o),
(308,177,o),
(308,100,cs),
(308,24,o),
(360,-10,o),
(415,-10,cs)
);
}
);
width = 571;
},
{
background = {
shapes = (
{
closed = 1;
nodes = (
(202,288,l),
(218.939,366,o),
(312,500,o),
(421.579,500,cs),
(621,500,o),
(412,103,o),
(503,103,c),
(518,103,o),
(529,111,o),
(536,126,c),
(551,98,l),
(534,46,o),
(488,0,o),
(412,0,cs),
(186,0,o),
(411,363,o),
(323,363,cs),
(272,363,o),
(218.939,288.662,o),
(206.939,224.662,c)
);
},
{
closed = 1;
nodes = (
(273,488.491,o),
(225.606,368.531,o),
(209,285,cs),
(202.943,254.53,o),
(206.854,240.173,o),
(206.939,224.662,cs),
(207.341,151.718,o),
(220,151.718,o),
(220,84,cs),
(220,42.376,o),
(178.929,-0.149,o),
(128.793,-0.149,cs),
(80.462,-0.149,o),
(30,32.861,o),
(30,79,cs),
(30,203.495,o),
(130.9,535.5,o),
(82,617,c),
(82,623,l),
(155,705,o),
(273,684,o),
(273,572,cs)
);
}
);
};
layerId = m002;
shapes = (
{
closed = 1;
nodes = (
(477,-10,o),
(543,33,o),
(543,111,c),
(536,116,l),
(531,105,o),
(518,95,o),
(503,95,cs),
(485,95,o),
(479,111,o),
(479,135,cs),
(479,192,o),
(511,307,o),
(511,388,cs),
(511,451,o),
(492,500,o),
(421.579,500,cs),
(326.786,500,o),
(244.353,399.722,o),
(212.868,322.166,c),
(216.642,318.381,l),
(236.816,398.512,o),
(273,525.798,o),
(273,599,cs),
(273,665,o),
(232,700,o),
(183,700,cs),
(149,700,o),
(112,683,o),
(82,650,c),
(82,644,l),
(92,629,o),
(95,603,o),
(95,571,cs),
(95,439,o),
(30,185,o),
(30,89,cs),
(30,31,o),
(68,-10,o),
(124,-10,cs),
(187,-10,o),
(220,37,o),
(220,84,cs),
(220,137,o),
(205,164,o),
(205,196,cs),
(205,202,o),
(206,208,o),
(207,215,cs),
(218,279,o),
(272,363,o),
(323,363,cs),
(339,363,o),
(345,351,o),
(345,332,cs),
(345,284,o),
(308,177,o),
(308,100,cs),
(308,24,o),
(360,-10,o),
(415,-10,cs)
);
}
);
width = 571;
},
{
background = {
shapes = (
{
closed = 1;
nodes = (
(202,288,l),
(218.939,366,o),
(312,500,o),
(421.579,500,cs),
(621,500,o),
(412,103,o),
(503,103,c),
(518,103,o),
(529,111,o),
(536,126,c),
(551,98,l),
(534,46,o),
(488,0,o),
(412,0,cs),
(186,0,o),
(411,363,o),
(323,363,cs),
(272,363,o),
(218.939,288.662,o),
(206.939,224.662,c)
);
},
{
closed = 1;
nodes = (
(273,488.491,o),
(225.606,368.531,o),
(209,285,cs),
(202.943,254.53,o),
(206.854,240.173,o),
(206.939,224.662,cs),
(207.341,151.718,o),
(220,151.718,o),
(220,84,cs),
(220,42.376,o),
(178.929,-0.149,o),
(128.793,-0.149,cs),
(80.462,-0.149,o),
(30,32.861,o),
(30,79,cs),
(30,203.495,o),
(130.9,535.5,o),
(82,617,c),
(82,623,l),
(155,705,o),
(273,684,o),
(273,572,cs)
);
}
);
};
layerId = m003;
shapes = (
{
closed = 1;
nodes = (
(477,-10,o),
(543,33,o),
(543,111,c),
(536,116,l),
(531,105,o),
(518,95,o),
(503,95,cs),
(485,95,o),
(479,111,o),
(479,135,cs),
(479,192,o),
(511,307,o),
(511,388,cs),
(511,451,o),
(492,500,o),
(421.579,500,cs),
(326.786,500,o),
(244.353,399.722,o),
(212.868,322.166,c),
(216.642,318.381,l),
(236.816,398.512,o),
(273,525.798,o),
(273,599,cs),
(273,665,o),
(232,700,o),
(183,700,cs),
(149,700,o),
(112,683,o),
(82,650,c),
(82,644,l),
(92,629,o),
(95,603,o),
(95,571,cs),
(95,439,o),
(30,185,o),
(30,89,cs),
(30,31,o),
(68,-10,o),
(124,-10,cs),
(187,-10,o),
(220,37,o),
(220,84,cs),
(220,137,o),
(205,164,o),
(205,196,cs),
(205,202,o),
(206,208,o),
(207,215,cs),
(218,279,o),
(272,363,o),
(323,363,cs),
(339,363,o),
(345,351,o),
(345,332,cs),
(345,284,o),
(308,177,o),
(308,100,cs),
(308,24,o),
(360,-10,o),
(415,-10,cs)
);
}
);
width = 571;
}
);
unicode = 104;
},
{
glyphname = i;
lastChange = "2023-05-26 13:34:42 +0000";
layers = (
{
background = {
shapes = (
{
closed = 1;
nodes = (
(25.42,398,l),
(46.346,457.882,o),
(116.258,500.007,o),
(176.54,500.128,cs),
(228.567,500.233,o),
(273.42,469.052,o),
(273.42,391,cs),
(273.42,309,o),
(219.42,201,o),
(219.42,143,cs),
(219.42,88.87,o),
(261.687,94.43,o),
(276.42,126,c),
(291.42,98,l),
(271.065,35.737,o),
(210.051,-2.191,o),
(154.64,-2.174,cs),
(100.339,-2.158,o),
(51.42,34.297,o),
(51.42,120,cs),
(51.42,206.726,o),
(105.42,291.425,o),
(105.42,366,cs),
(105.42,420.579,o),
(68.858,411.324,o),
(44.42,378,c)
);
}
);
};
layerId = "CDFC0212-EC7A-4000-86F8-EA19B9E6D7F9";
shapes = (
{
closed = 1;
nodes = (
(213,-11,o),
(280,38,o),
(280,112,c),
(273,114,l),
(268,105,o),
(255,96,o),
(243,96,cs),
(231,96,o),
(219,106,o),
(219,132,cs),
(219,189,o),
(272,308,o),
(272,391,cs),
(272,469,o),
(228,500,o),
(176,500,cs),
(115,500,o),
(44,450,o),
(37,371,c),
(44,367,l),
(54,381,o),
(66,389,o),
(78,389,cs),
(92,389,o),
(104,376,o),
(104,346,cs),
(104,271,o),
(51,197,o),
(51,110,cs),
(51,24,o),
(100,-11,o),
(152,-11,cs)
);
},
{
closed = 1;
nodes = (
(269,535,o),
(315,579,o),
(315,633,cs),
(315,681,o),
(277,719,o),
(224.413,719,cs),
(167,719,o),
(121,674,o),
(121,620,cs),
(121,572,o),
(159,535,o),
(211.534,534.539,cs)
);
}
);
width = 312.12;
},
{
background = {
shapes = (
{
closed = 1;
nodes = (
(25.42,398,l),
(46.346,457.882,o),
(116.258,500.007,o),
(176.54,500.128,cs),
(228.567,500.233,o),
(273.42,469.052,o),
(273.42,391,cs),
(273.42,309,o),
(219.42,201,o),
(219.42,143,cs),
(219.42,88.87,o),
(261.687,94.43,o),
(276.42,126,c),
(291.42,98,l),
(271.065,35.737,o),
(210.051,-2.191,o),
(154.64,-2.174,cs),
(100.339,-2.158,o),
(51.42,34.297,o),
(51.42,120,cs),
(51.42,206.726,o),
(105.42,291.425,o),
(105.42,366,cs),
(105.42,420.579,o),
(68.858,411.324,o),
(44.42,378,c)
);
}
);
};
layerId = m002;
shapes = (
{
closed = 1;
nodes = (
(213,-11,o),
(280,38,o),
(280,112,c),
(273,114,l),
(268,105,o),
(255,96,o),
(243,96,cs),
(231,96,o),
(219,106,o),
(219,132,cs),
(219,189,o),
(272,308,o),
(272,391,cs),
(272,469,o),
(228,500,o),
(176,500,cs),
(115,500,o),
(44,450,o),
(37,371,c),
(44,367,l),
(54,381,o),
(66,389,o),
(78,389,cs),
(92,389,o),
(104,376,o),
(104,346,cs),
(104,271,o),
(51,197,o),
(51,110,cs),
(51,24,o),
(100,-11,o),
(152,-11,cs)
);
},
{
closed = 1;
nodes = (
(269,535,o),
(315,579,o),
(315,633,cs),
(315,681,o),
(277,719,o),
(224.413,719,cs),
(167,719,o),
(121,674,o),
(121,620,cs),
(121,572,o),
(159,535,o),
(211.534,534.539,cs)
);
}
);
width = 312.12;
},
{
background = {
shapes = (
{
closed = 1;
nodes = (
(25.42,398,l),
(46.346,457.882,o),
(116.258,500.007,o),
(176.54,500.128,cs),
(228.567,500.233,o),
(273.42,469.052,o),
(273.42,391,cs),
(273.42,309,o),
(219.42,201,o),
(219.42,143,cs),
(219.42,88.87,o),
(261.687,94.43,o),
(276.42,126,c),
(291.42,98,l),
(271.065,35.737,o),
(210.051,-2.191,o),
(154.64,-2.174,cs),
(100.339,-2.158,o),
(51.42,34.297,o),
(51.42,120,cs),
(51.42,206.726,o),
(105.42,291.425,o),
(105.42,366,cs),
(105.42,420.579,o),
(68.858,411.324,o),
(44.42,378,c)
);
}
);
};
layerId = m003;
shapes = (
{
closed = 1;
nodes = (
(213,-11,o),
(280,38,o),
(280,112,c),
(273,114,l),
(268,105,o),
(255,96,o),
(243,96,cs),
(231,96,o),
(219,106,o),
(219,132,cs),
(219,189,o),
(272,308,o),
(272,391,cs),
(272,469,o),
(228,500,o),
(176,500,cs),
(115,500,o),
(44,450,o),
(37,371,c),
(44,367,l),
(54,381,o),
(66,389,o),
(78,389,cs),
(92,389,o),
(104,376,o),
(104,346,cs),
(104,271,o),
(51,197,o),
(51,110,cs),
(51,24,o),
(100,-11,o),
(152,-11,cs)
);
},
{
closed = 1;
nodes = (
(269,535,o),
(315,579,o),
(315,633,cs),
(315,681,o),
(277,719,o),
(224.413,719,cs),
(167,719,o),
(121,674,o),
(121,620,cs),
(121,572,o),
(159,535,o),
(211.534,534.539,cs)
);
}
);
width = 312.12;
}
);
unicode = 105;
},
{
glyphname = j;
lastChange = "2023-05-26 13:34:10 +0000";
layers = (
{
associatedMasterId = "CDFC0212-EC7A-4000-86F8-EA19B9E6D7F9";
layerId = "DAE19937-CD30-4ED6-8CC6-263AD309B8A4";
name = "May 24, 23, 13:58";
shapes = (
{
closed = 1;
nodes = (
(238.491,563.737,o),
(283.045,606.863,o),
(283.045,658.542,cs),
(283.045,704.612,o),
(246.65,741,o),
(199.092,741,cs),
(147.316,741,o),
(102.762,697.874,o),
(102.762,646.194,cs),
(102.762,600.125,o),
(139.156,563.737,o),
(186.715,563.737,cs)
);
},
{
closed = 1;
nodes = (
(213.599,407.326,o),
(256.341,-199.663,o),
(27.564,-199.663,cs),
(-158.331,-199.663,o),
(-193.238,47.821,o),
(96.499,236.08,c),
(114.838,202.178,l),
(-151.972,-12.9,o),
(-9.588,-274.77,o),
(50.625,143.624,c),
(72.59,212.248,o),
(82.407,395.892,o),
(82.407,462.227,cs),
(82.407,502.728,o),
(228.79,527.944,o),
(254.315,453.424,c),
(256.315,447.424,l)
);
}
);
width = 288.05;
},
{
associatedMasterId = "CDFC0212-EC7A-4000-86F8-EA19B9E6D7F9";
layerId = "E7DED37A-645A-4347-ADED-DE42148B7475";
name = "May 24, 23, 13:58";
shapes = (
{
closed = 1;
nodes = (
(238.491,563.737,o),
(283.045,606.863,o),
(283.045,658.542,cs),
(283.045,704.612,o),
(246.65,741,o),
(199.092,741,cs),
(147.316,741,o),
(102.762,697.874,o),
(102.762,646.194,cs),
(102.762,600.125,o),
(139.156,563.737,o),
(186.715,563.737,cs)
);
},
{
closed = 1;
nodes = (
(-63.314,5.551,l),
(-63.314,-100.582,o),
(1.843,-128.552,o),
(50.625,143.624,cs),
(63.337,214.547,o),
(82.407,395.892,o),
(82.407,462.227,cs),
(82.407,502.728,o),
(228.79,527.944,o),
(254.315,453.424,c),
(256.315,447.424,l),
(213.599,407.326,o),
(256.341,-199.663,o),
(27.564,-199.663,cs),
(-90.906,-199.663,o),
(-138.053,-109.148,o),
(-71.098,9.254,c)
);
}
);
width = 288.05;
},
{
associatedMasterId = "CDFC0212-EC7A-4000-86F8-EA19B9E6D7F9";
layerId = "36C99FDF-C94B-42D9-9810-8642B02B25CF";
name = "May 24, 23, 14:39";
shapes = (
{
closed = 1;
nodes = (
(238.491,563.737,o),
(283.045,606.863,o),
(283.045,658.542,cs),
(283.045,704.612,o),
(246.65,741,o),
(199.092,741,cs),
(147.316,741,o),
(102.762,697.874,o),
(102.762,646.194,cs),
(102.762,600.125,o),
(139.156,563.737,o),
(186.715,563.737,cs)
);
},
{
closed = 1;
nodes = (
(213.599,407.326,o),
(256.341,-283.663,o),
(27.564,-283.663,cs),
(-158.331,-283.663,o),
(-210.574,-86.695,o),
(79.163,101.564,c),
(97.502,67.662,l),
(-169.308,-147.416,o),
(-9.588,-358.77,o),
(50.625,59.624,c),
(72.59,212.248,o),
(82.407,395.892,o),
(82.407,462.227,cs),
(82.407,502.728,o),
(228.79,527.944,o),
(254.315,453.424,c),
(256.315,447.424,l)
);
}
);
width = 288.05;
},
{
associatedMasterId = "CDFC0212-EC7A-4000-86F8-EA19B9E6D7F9";
layerId = "18F951B3-548F-4D41-ACA7-5BC367EAB04D";
name = "May 24, 23, 14:56";
shapes = (
{
closed = 1;
nodes = (
(238.491,563.737,o),
(283.045,606.863,o),
(283.045,658.542,cs),
(283.045,704.612,o),
(246.65,741,o),
(199.092,741,cs),
(147.316,741,o),
(102.762,697.874,o),
(102.762,646.194,cs),
(102.762,600.125,o),
(139.156,563.737,o),
(186.715,563.737,cs)
);
},
{
closed = 1;
nodes = (
(-63.314,5.551,l),
(-63.314,-100.582,o),
(1.843,-128.552,o),
(50.625,143.624,cs),
(63.337,214.547,o),
(82.407,395.892,o),
(82.407,462.227,cs),
(82.407,502.728,o),
(228.79,527.944,o),
(254.315,453.424,c),
(256.315,447.424,l),
(213.599,407.326,o),
(256.341,-199.663,o),
(27.564,-199.663,cs),
(-90.906,-199.663,o),
(-138.053,-109.148,o),
(-71.098,9.254,c)
);
}
);
width = 288.05;
},
{
associatedMasterId = "CDFC0212-EC7A-4000-86F8-EA19B9E6D7F9";
layerId = "E667A504-37C6-44F4-9676-A3EBD229D109";
name = "May 24, 23, 19:24";
shapes = (
{
closed = 1;
nodes = (
(-183.809,-200.174,o),
(-200.576,-5.817,o),
(-23.114,-5.817,c),
(-52.948,-69.033,o),
(-52.958,-137.205,o),
(-33.114,-137.205,cs),
(8.522,-137.205,o),
(41.448,-33.441,o),
(65.599,476.906,c),
(116.005,511.33,o),
(219.765,506.31,o),
(242.765,456.338,c),
(239.014,456.338,o),
(236.23,450.738,o),
(235.088,439.033,cs),
(185.592,-68.247,o),
(141.492,-200.174,o),
(-23.114,-200.174,cs)
);
},
{
closed = 1;
nodes = (
(214.93,521.737,o),
(257.961,561.418,o),
(261.379,610.368,cs),
(264.796,659.319,o),
(227.306,699,o),
(177.642,699,cs),
(127.977,699,o),
(84.946,659.319,o),
(81.528,610.368,cs),
(78.111,561.418,o),
(115.6,521.737,o),
(165.265,521.737,cs)
);
}
);
width = 261.6;
},
{
layerId = "CDFC0212-EC7A-4000-86F8-EA19B9E6D7F9";
name = Regular;
shapes = (
{
closed = 1;
nodes = (
(222.814,-200.174,o),
(155.647,131.018,o),
(263.865,457.338,c),
(251,486,o),
(213,500,o),
(173,500,cs),
(144,500,o),
(114,492,o),
(92.699,477.906,c),
(5.167,204.945,o),
(85.985,-148.459,o),
(5.368,-148.459,cs),
(-2,-148,o),
(-7,-133,o),
(-7,-110,cs),
(-7,-85,o),
(-1,-52,o),
(13.986,-19.817,c),
(-64,-20,o),
(-100,-64,o),
(-100,-109,cs),
(-100,-155,o),
(-63,-200,o),
(6.352,-200.174,cs)
);
},
{
closed = 1;
nodes = (
(232,522,o),
(277,565,o),
(277,617,cs),
(277,663,o),
(240,699,o),
(192.642,699,cs),
(141,699,o),
(96,656,o),
(96,604,cs),
(96,558,o),
(133,522,o),
(180.265,521.737,cs)
);
}
);
width = 276.6;
},
{
associatedMasterId = m002;
layerId = "0E015170-0A0B-4E09-BEC0-2B440190A6A6";
name = "May 24, 23, 13:58";
shapes = (
{
closed = 1;
nodes = (
(238.491,563.737,o),
(283.045,606.863,o),
(283.045,658.542,cs),
(283.045,704.612,o),
(246.65,741,o),
(199.092,741,cs),
(147.316,741,o),
(102.762,697.874,o),
(102.762,646.194,cs),
(102.762,600.125,o),
(139.156,563.737,o),
(186.715,563.737,cs)
);
},
{
closed = 1;
nodes = (
(213.599,407.326,o),
(256.341,-199.663,o),
(27.564,-199.663,cs),
(-158.331,-199.663,o),
(-193.238,47.821,o),
(96.499,236.08,c),
(114.838,202.178,l),
(-151.972,-12.9,o),
(-9.588,-274.77,o),
(50.625,143.624,c),
(72.59,212.248,o),
(82.407,395.892,o),
(82.407,462.227,cs),
(82.407,502.728,o),
(228.79,527.944,o),
(254.315,453.424,c),
(256.315,447.424,l)
);
}
);
width = 288.05;
},
{
associatedMasterId = m002;
layerId = "A07E5E16-646F-480A-BF4C-E7C374A335D3";
name = "May 24, 23, 13:58";
shapes = (
{
closed = 1;
nodes = (
(238.491,563.737,o),
(283.045,606.863,o),
(283.045,658.542,cs),
(283.045,704.612,o),
(246.65,741,o),
(199.092,741,cs),
(147.316,741,o),
(102.762,697.874,o),
(102.762,646.194,cs),
(102.762,600.125,o),
(139.156,563.737,o),
(186.715,563.737,cs)
);
},
{
closed = 1;
nodes = (
(-63.314,5.551,l),
(-63.314,-100.582,o),
(1.843,-128.552,o),
(50.625,143.624,cs),
(63.337,214.547,o),
(82.407,395.892,o),
(82.407,462.227,cs),
(82.407,502.728,o),
(228.79,527.944,o),
(254.315,453.424,c),
(256.315,447.424,l),
(213.599,407.326,o),
(256.341,-199.663,o),
(27.564,-199.663,cs),
(-90.906,-199.663,o),
(-138.053,-109.148,o),
(-71.098,9.254,c)
);
}
);
width = 288.05;
},
{
associatedMasterId = m002;
layerId = "18CD5161-AE3E-424D-8C22-D9DC3AEF1287";
name = "May 24, 23, 14:39";
shapes = (
{
closed = 1;
nodes = (
(238.491,563.737,o),
(283.045,606.863,o),
(283.045,658.542,cs),
(283.045,704.612,o),
(246.65,741,o),
(199.092,741,cs),
(147.316,741,o),
(102.762,697.874,o),
(102.762,646.194,cs),
(102.762,600.125,o),
(139.156,563.737,o),
(186.715,563.737,cs)
);
},
{
closed = 1;
nodes = (
(213.599,407.326,o),
(256.341,-283.663,o),
(27.564,-283.663,cs),
(-158.331,-283.663,o),
(-210.574,-86.695,o),
(79.163,101.564,c),
(97.502,67.662,l),
(-169.308,-147.416,o),
(-9.588,-358.77,o),
(50.625,59.624,c),
(72.59,212.248,o),
(82.407,395.892,o),
(82.407,462.227,cs),
(82.407,502.728,o),
(228.79,527.944,o),
(254.315,453.424,c),
(256.315,447.424,l)
);
}
);
width = 288.05;
},
{
associatedMasterId = m002;
layerId = "3D97FF37-A414-49BB-B4EE-399719F378F9";
name = "May 24, 23, 14:56";
shapes = (
{
closed = 1;
nodes = (
(238.491,563.737,o),
(283.045,606.863,o),
(283.045,658.542,cs),
(283.045,704.612,o),
(246.65,741,o),
(199.092,741,cs),
(147.316,741,o),
(102.762,697.874,o),
(102.762,646.194,cs),
(102.762,600.125,o),
(139.156,563.737,o),
(186.715,563.737,cs)
);
},
{
closed = 1;
nodes = (
(-63.314,5.551,l),
(-63.314,-100.582,o),
(1.843,-128.552,o),
(50.625,143.624,cs),
(63.337,214.547,o),
(82.407,395.892,o),
(82.407,462.227,cs),
(82.407,502.728,o),
(228.79,527.944,o),
(254.315,453.424,c),
(256.315,447.424,l),
(213.599,407.326,o),
(256.341,-199.663,o),
(27.564,-199.663,cs),
(-90.906,-199.663,o),
(-138.053,-109.148,o),
(-71.098,9.254,c)
);
}
);
width = 288.05;
},
{
associatedMasterId = m002;
layerId = "BAF1B9D9-F9A5-461C-89DA-E810C1C06BBD";
name = "May 24, 23, 19:24";
shapes = (
{
closed = 1;
nodes = (
(-183.809,-200.174,o),
(-200.576,-5.817,o),
(-23.114,-5.817,c),
(-52.948,-69.033,o),
(-52.958,-137.205,o),
(-33.114,-137.205,cs),
(8.522,-137.205,o),
(41.448,-33.441,o),
(65.599,476.906,c),
(116.005,511.33,o),
(219.765,506.31,o),
(242.765,456.338,c),
(239.014,456.338,o),
(236.23,450.738,o),
(235.088,439.033,cs),
(185.592,-68.247,o),
(141.492,-200.174,o),
(-23.114,-200.174,cs)
);
},
{
closed = 1;
nodes = (
(214.93,521.737,o),
(257.961,561.418,o),
(261.379,610.368,cs),
(264.796,659.319,o),
(227.306,699,o),
(177.642,699,cs),
(127.977,699,o),
(84.946,659.319,o),
(81.528,610.368,cs),
(78.111,561.418,o),
(115.6,521.737,o),
(165.265,521.737,cs)
);
}
);
width = 261.6;
},
{
layerId = m002;
name = Regular;
shapes = (
{
closed = 1;
nodes = (
(222.814,-200.174,o),
(155.647,131.018,o),
(263.865,457.338,c),
(251,486,o),
(213,500,o),
(173,500,cs),
(144,500,o),
(114,492,o),
(92.699,477.906,c),
(5.167,204.945,o),
(85.985,-148.459,o),
(5.368,-148.459,cs),
(-2,-148,o),
(-7,-133,o),
(-7,-110,cs),
(-7,-85,o),
(-1,-52,o),
(13.986,-19.817,c),
(-64,-20,o),
(-100,-64,o),
(-100,-109,cs),
(-100,-155,o),
(-63,-200,o),
(6.352,-200.174,cs)
);
},
{
closed = 1;
nodes = (
(232,522,o),
(277,565,o),
(277,617,cs),
(277,663,o),
(240,699,o),
(192.642,699,cs),
(141,699,o),
(96,656,o),
(96,604,cs),
(96,558,o),
(133,522,o),
(180.265,521.737,cs)
);
}
);
width = 276.6;
},
{
associatedMasterId = m003;
layerId = "DD2DCEE4-BD8F-44B0-A76D-B1A33F4E9A7F";
name = "May 24, 23, 13:58";
shapes = (
{
closed = 1;
nodes = (
(238.491,563.737,o),
(283.045,606.863,o),
(283.045,658.542,cs),
(283.045,704.612,o),
(246.65,741,o),
(199.092,741,cs),
(147.316,741,o),
(102.762,697.874,o),
(102.762,646.194,cs),
(102.762,600.125,o),
(139.156,563.737,o),
(186.715,563.737,cs)
);
},
{
closed = 1;
nodes = (
(213.599,407.326,o),
(256.341,-199.663,o),
(27.564,-199.663,cs),
(-158.331,-199.663,o),
(-193.238,47.821,o),
(96.499,236.08,c),
(114.838,202.178,l),
(-151.972,-12.9,o),
(-9.588,-274.77,o),
(50.625,143.624,c),
(72.59,212.248,o),
(82.407,395.892,o),
(82.407,462.227,cs),
(82.407,502.728,o),
(228.79,527.944,o),
(254.315,453.424,c),
(256.315,447.424,l)
);
}
);
width = 288.05;
},
{
associatedMasterId = m003;
layerId = "C00E4908-4060-4C71-895A-948FDDC0EC15";
name = "May 24, 23, 13:58";
shapes = (
{
closed = 1;
nodes = (
(238.491,563.737,o),
(283.045,606.863,o),
(283.045,658.542,cs),
(283.045,704.612,o),
(246.65,741,o),
(199.092,741,cs),
(147.316,741,o),
(102.762,697.874,o),
(102.762,646.194,cs),
(102.762,600.125,o),
(139.156,563.737,o),
(186.715,563.737,cs)
);
},
{
closed = 1;
nodes = (
(-63.314,5.551,l),
(-63.314,-100.582,o),
(1.843,-128.552,o),
(50.625,143.624,cs),
(63.337,214.547,o),
(82.407,395.892,o),
(82.407,462.227,cs),
(82.407,502.728,o),
(228.79,527.944,o),
(254.315,453.424,c),
(256.315,447.424,l),
(213.599,407.326,o),
(256.341,-199.663,o),
(27.564,-199.663,cs),
(-90.906,-199.663,o),
(-138.053,-109.148,o),
(-71.098,9.254,c)
);
}
);
width = 288.05;
},
{
associatedMasterId = m003;
layerId = "19827924-B5AB-4483-ABB6-0273B708B947";
name = "May 24, 23, 14:39";
shapes = (
{
closed = 1;
nodes = (
(238.491,563.737,o),
(283.045,606.863,o),
(283.045,658.542,cs),
(283.045,704.612,o),
(246.65,741,o),
(199.092,741,cs),
(147.316,741,o),
(102.762,697.874,o),
(102.762,646.194,cs),
(102.762,600.125,o),
(139.156,563.737,o),
(186.715,563.737,cs)
);
},
{
closed = 1;
nodes = (
(213.599,407.326,o),
(256.341,-283.663,o),
(27.564,-283.663,cs),
(-158.331,-283.663,o),
(-210.574,-86.695,o),
(79.163,101.564,c),
(97.502,67.662,l),
(-169.308,-147.416,o),
(-9.588,-358.77,o),
(50.625,59.624,c),
(72.59,212.248,o),
(82.407,395.892,o),
(82.407,462.227,cs),
(82.407,502.728,o),
(228.79,527.944,o),
(254.315,453.424,c),
(256.315,447.424,l)
);
}
);
width = 288.05;
},
{
associatedMasterId = m003;
layerId = "59C0186A-5455-4F98-8312-62549A54F96A";
name = "May 24, 23, 14:56";
shapes = (
{
closed = 1;
nodes = (
(238.491,563.737,o),
(283.045,606.863,o),
(283.045,658.542,cs),
(283.045,704.612,o),
(246.65,741,o),
(199.092,741,cs),
(147.316,741,o),
(102.762,697.874,o),
(102.762,646.194,cs),
(102.762,600.125,o),
(139.156,563.737,o),
(186.715,563.737,cs)
);
},
{
closed = 1;
nodes = (
(-63.314,5.551,l),
(-63.314,-100.582,o),
(1.843,-128.552,o),
(50.625,143.624,cs),
(63.337,214.547,o),
(82.407,395.892,o),
(82.407,462.227,cs),
(82.407,502.728,o),
(228.79,527.944,o),
(254.315,453.424,c),
(256.315,447.424,l),
(213.599,407.326,o),
(256.341,-199.663,o),
(27.564,-199.663,cs),
(-90.906,-199.663,o),
(-138.053,-109.148,o),
(-71.098,9.254,c)
);
}
);
width = 288.05;
},
{
associatedMasterId = m003;
layerId = "CE4F510D-FBEA-4BCC-9CC4-BD53FFC2A9B7";
name = "May 24, 23, 19:24";
shapes = (
{
closed = 1;
nodes = (
(-183.809,-200.174,o),
(-200.576,-5.817,o),
(-23.114,-5.817,c),
(-52.948,-69.033,o),
(-52.958,-137.205,o),
(-33.114,-137.205,cs),
(8.522,-137.205,o),
(41.448,-33.441,o),
(65.599,476.906,c),
(116.005,511.33,o),
(219.765,506.31,o),
(242.765,456.338,c),
(239.014,456.338,o),
(236.23,450.738,o),
(235.088,439.033,cs),
(185.592,-68.247,o),
(141.492,-200.174,o),
(-23.114,-200.174,cs)
);
},
{
closed = 1;
nodes = (
(214.93,521.737,o),
(257.961,561.418,o),
(261.379,610.368,cs),
(264.796,659.319,o),
(227.306,699,o),
(177.642,699,cs),
(127.977,699,o),
(84.946,659.319,o),
(81.528,610.368,cs),
(78.111,561.418,o),
(115.6,521.737,o),
(165.265,521.737,cs)
);
}
);
width = 261.6;
},
{
layerId = m003;
name = Regular;
shapes = (
{
closed = 1;
nodes = (
(222.814,-200.174,o),
(155.647,131.018,o),
(263.865,457.338,c),
(251,486,o),
(213,500,o),
(173,500,cs),
(144,500,o),
(114,492,o),
(92.699,477.906,c),
(5.167,204.945,o),
(85.985,-148.459,o),
(5.368,-148.459,cs),
(-2,-148,o),
(-7,-133,o),
(-7,-110,cs),
(-7,-85,o),
(-1,-52,o),
(13.986,-19.817,c),
(-64,-20,o),
(-100,-64,o),
(-100,-109,cs),
(-100,-155,o),
(-63,-200,o),
(6.352,-200.174,cs)
);
},
{
closed = 1;
nodes = (
(232,522,o),
(277,565,o),
(277,617,cs),
(277,663,o),
(240,699,o),
(192.642,699,cs),
(141,699,o),
(96,656,o),
(96,604,cs),
(96,558,o),
(133,522,o),
(180.265,521.737,cs)
);
}
);
width = 276.6;
}
);
unicode = 106;
},
{
glyphname = k;
lastChange = "2023-05-26 13:35:02 +0000";
layers = (
{
layerId = "CDFC0212-EC7A-4000-86F8-EA19B9E6D7F9";
shapes = (
{
closed = 1;
nodes = (
(454,-11,o),
(518,26,o),
(551,104,c),
(545,110,l),
(539,107,o),
(531,106,o),
(523,106,cs),
(468,106,o),
(388,162,o),
(377,238,c),
(345,190,l),
(476,232,o),
(527.363,322.676,o),
(527.363,389.803,cs),
(527.363,450.461,o),
(485.522,500,o),
(423,500,cs),
(316.922,500,o),
(251.622,393.404,o),
(207.784,329.845,c),
(216.409,317.457,l),
(236.583,397.588,o),
(273,526.798,o),
(273,600,cs),
(273,666,o),
(232,701,o),
(183,701,cs),
(149,701,o),
(112,684,o),
(82,651,c),
(82,645,l),
(92,630,o),
(95,604,o),
(95,572,cs),
(95,440,o),
(30,185,o),
(30,89,cs),
(30,31,o),
(68,-10,o),
(124,-10,cs),
(187,-10,o),
(220,37,o),
(220,84,cs),
(220,138,o),
(205,164,o),
(205,197,cs),
(205,202,o),
(206,208,o),
(207,215,cs),
(220,291,o),
(270.897,368.037,o),
(331.442,368.037,cs),
(360.515,368.037,o),
(383,352,o),
(382.884,326.826,cs),
(383,274,o),
(321,235,o),
(289,219,c),
(275,183,o),
(268,151,o),
(268,123,cs),
(268,37,o),
(328,-11,o),
(395,-11,cs)
);
}
);
width = 551.09;
},
{
associatedMasterId = "CDFC0212-EC7A-4000-86F8-EA19B9E6D7F9";
layerId = "FDAA1C4E-C784-4B4B-92E0-A5C0F57ACC25";
name = "May 25, 23, 14:31";
shapes = (
{
closed = 1;
nodes = (
(187.226,-0.149,o),
(220,47.43,o),
(220,94,cs),
(220,156.904,o),
(199.864,182.612,o),
(206.939,224.662,cs),
(219.727,300.673,o),
(270.897,368.037,o),
(331.442,368.037,cs),
(360.515,368.037,o),
(382.884,351.683,o),
(382.884,326.826,cs),
(382.884,283.729,o),
(321.048,244.743,o),
(289.468,229.43,c),
(189.596,-13.322,o),
(466.537,-83.181,o),
(551.094,113.705,c),
(545.368,119.734,l),
(494.954,98.869,o),
(389.258,159.878,o),
(376.883,248.282,c),
(344.956,199.642,l),
(476.121,241.932,o),
(527.363,322.676,o),
(527.363,389.803,cs),
(527.363,450.461,o),
(485.522,500,o),
(423,500,cs),
(316.922,500,o),
(253.622,388.404,o),
(209.784,324.845,c),
(216.409,317.457,l),
(236.583,397.588,o),
(273,526.798,o),
(273,600,cs),
(273,712,o),
(155,733,o),
(82,651,c),
(82,645,l),
(130.9,566.53,o),
(30,218.867,o),
(30,99,cs),
(30,41.202,o),
(68.414,-0.149,o),
(123.793,-0.149,cs)
);
}
);
width = 551.09;
},
{
layerId = m002;
shapes = (
{
closed = 1;
nodes = (
(454,-11,o),
(518,26,o),
(551,104,c),
(545,110,l),
(539,107,o),
(531,106,o),
(523,106,cs),
(468,106,o),
(388,162,o),
(377,238,c),
(345,190,l),
(476,232,o),
(527.363,322.676,o),
(527.363,389.803,cs),
(527.363,450.461,o),
(485.522,500,o),
(423,500,cs),
(316.922,500,o),
(251.622,393.404,o),
(207.784,329.845,c),
(216.409,317.457,l),
(236.583,397.588,o),
(273,526.798,o),
(273,600,cs),
(273,666,o),
(232,701,o),
(183,701,cs),
(149,701,o),
(112,684,o),
(82,651,c),
(82,645,l),
(92,630,o),
(95,604,o),
(95,572,cs),
(95,440,o),
(30,185,o),
(30,89,cs),
(30,31,o),
(68,-10,o),
(124,-10,cs),
(187,-10,o),
(220,37,o),
(220,84,cs),
(220,138,o),
(205,164,o),
(205,197,cs),
(205,202,o),
(206,208,o),
(207,215,cs),
(220,291,o),
(270.897,368.037,o),
(331.442,368.037,cs),
(360.515,368.037,o),
(383,352,o),
(382.884,326.826,cs),
(383,274,o),
(321,235,o),
(289,219,c),
(275,183,o),
(268,151,o),
(268,123,cs),
(268,37,o),
(328,-11,o),
(395,-11,cs)
);
}
);
width = 551.09;
},
{
associatedMasterId = m002;
layerId = "8906359C-B475-411F-94B5-924DCC7AB538";
name = "May 25, 23, 14:31";
shapes = (
{
closed = 1;
nodes = (
(187.226,-0.149,o),
(220,47.43,o),
(220,94,cs),
(220,156.904,o),
(199.864,182.612,o),
(206.939,224.662,cs),
(219.727,300.673,o),
(270.897,368.037,o),
(331.442,368.037,cs),
(360.515,368.037,o),
(382.884,351.683,o),
(382.884,326.826,cs),
(382.884,283.729,o),
(321.048,244.743,o),
(289.468,229.43,c),
(189.596,-13.322,o),
(466.537,-83.181,o),
(551.094,113.705,c),
(545.368,119.734,l),
(494.954,98.869,o),
(389.258,159.878,o),
(376.883,248.282,c),
(344.956,199.642,l),
(476.121,241.932,o),
(527.363,322.676,o),
(527.363,389.803,cs),
(527.363,450.461,o),
(485.522,500,o),
(423,500,cs),
(316.922,500,o),
(253.622,388.404,o),
(209.784,324.845,c),
(216.409,317.457,l),
(236.583,397.588,o),
(273,526.798,o),
(273,600,cs),
(273,712,o),
(155,733,o),
(82,651,c),
(82,645,l),
(130.9,566.53,o),
(30,218.867,o),
(30,99,cs),
(30,41.202,o),
(68.414,-0.149,o),
(123.793,-0.149,cs)
);
}
);
width = 551.09;
},
{
layerId = m003;
shapes = (
{
closed = 1;
nodes = (
(454,-11,o),
(518,26,o),
(551,104,c),
(545,110,l),
(539,107,o),
(531,106,o),
(523,106,cs),
(468,106,o),
(388,162,o),
(377,238,c),
(345,190,l),
(476,232,o),
(527.363,322.676,o),
(527.363,389.803,cs),
(527.363,450.461,o),
(485.522,500,o),
(423,500,cs),
(316.922,500,o),
(251.622,393.404,o),
(207.784,329.845,c),
(216.409,317.457,l),
(236.583,397.588,o),
(273,526.798,o),
(273,600,cs),
(273,666,o),
(232,701,o),
(183,701,cs),
(149,701,o),
(112,684,o),
(82,651,c),
(82,645,l),
(92,630,o),
(95,604,o),
(95,572,cs),
(95,440,o),
(30,185,o),
(30,89,cs),
(30,31,o),
(68,-10,o),
(124,-10,cs),
(187,-10,o),
(220,37,o),
(220,84,cs),
(220,138,o),
(205,164,o),
(205,197,cs),
(205,202,o),
(206,208,o),
(207,215,cs),
(220,291,o),
(270.897,368.037,o),
(331.442,368.037,cs),
(360.515,368.037,o),
(383,352,o),
(382.884,326.826,cs),
(383,274,o),
(321,235,o),
(289,219,c),
(275,183,o),
(268,151,o),
(268,123,cs),
(268,37,o),
(328,-11,o),
(395,-11,cs)
);
}
);
width = 551.09;
},
{
associatedMasterId = m003;
layerId = "E4BD8D8F-BF17-4BA6-A0DE-5F1A3C0B9C8D";
name = "May 25, 23, 14:31";
shapes = (
{
closed = 1;
nodes = (
(187.226,-0.149,o),
(220,47.43,o),
(220,94,cs),
(220,156.904,o),
(199.864,182.612,o),
(206.939,224.662,cs),
(219.727,300.673,o),
(270.897,368.037,o),
(331.442,368.037,cs),
(360.515,368.037,o),
(382.884,351.683,o),
(382.884,326.826,cs),
(382.884,283.729,o),
(321.048,244.743,o),
(289.468,229.43,c),
(189.596,-13.322,o),
(466.537,-83.181,o),
(551.094,113.705,c),
(545.368,119.734,l),
(494.954,98.869,o),
(389.258,159.878,o),
(376.883,248.282,c),
(344.956,199.642,l),
(476.121,241.932,o),
(527.363,322.676,o),
(527.363,389.803,cs),
(527.363,450.461,o),
(485.522,500,o),
(423,500,cs),
(316.922,500,o),
(253.622,388.404,o),
(209.784,324.845,c),
(216.409,317.457,l),
(236.583,397.588,o),
(273,526.798,o),
(273,600,cs),
(273,712,o),
(155,733,o),
(82,651,c),
(82,645,l),
(130.9,566.53,o),
(30,218.867,o),
(30,99,cs),
(30,41.202,o),
(68.414,-0.149,o),
(123.793,-0.149,cs)
);
}
);
width = 551.09;
}
);
unicode = 107;
},
{
glyphname = l;
lastChange = "2023-05-26 13:35:17 +0000";
layers = (
{
background = {
shapes = (
{
closed = 1;
nodes = (
(76.165,354.581,o),
(108.35,478.966,o),
(71.73,540,c),
(71.73,546,l),
(144.73,628,o),
(265.73,607,o),
(265.73,495,cs),
(265.73,373.833,o),
(163.877,98.503,o),
(243.588,98.503,cs),
(254.889,98.503,o),
(268.134,108.394,o),
(280.73,126,c),
(295.73,98,l),
(277.275,41.55,o),
(211.49,0.26,o),
(151.966,0.257,cs),
(41.758,0.253,o),
(37.258,124.382,o),
(50.849,204.794,cs)
);
},
{
pos = (10.4,0);
ref = h;
}
);
};
layerId = "CDFC0212-EC7A-4000-86F8-EA19B9E6D7F9";
shapes = (
{
closed = 1;
nodes = (
(207,-12,o),
(273,40,o),
(275,112,c),
(267,114,l),
(263,104,o),
(248,90,o),
(233,90,cs),
(220,90,o),
(207,102,o),
(207,139,cs),
(207,228,o),
(284,476,o),
(284.4,589,c),
(284,668,o),
(240,700,o),
(194,700,cs),
(153,700,o),
(111,675,o),
(95.869,632.359,c),
(96.869,628.89,l),
(104.942,615.258,o),
(107.4,606.579,o),
(107.4,559,cs),
(107.4,447.957,o),
(34,234,o),
(34,131,cs),
(34,27,o),
(89,-12,o),
(149,-12,cs)
);
}
);
width = 306.05;
},
{
background = {
shapes = (
{
closed = 1;
nodes = (
(76.165,354.581,o),
(108.35,478.966,o),
(71.73,540,c),
(71.73,546,l),
(144.73,628,o),
(265.73,607,o),
(265.73,495,cs),
(265.73,373.833,o),
(163.877,98.503,o),
(243.588,98.503,cs),
(254.889,98.503,o),
(268.134,108.394,o),
(280.73,126,c),
(295.73,98,l),
(277.275,41.55,o),
(211.49,0.26,o),
(151.966,0.257,cs),
(41.758,0.253,o),
(37.258,124.382,o),
(50.849,204.794,cs)
);
},
{
pos = (10.4,0);
ref = h;
}
);
};
layerId = m002;
shapes = (
{
closed = 1;
nodes = (
(207,-12,o),
(273,40,o),
(275,112,c),
(267,114,l),
(263,104,o),
(248,90,o),
(233,90,cs),
(220,90,o),
(207,102,o),
(207,139,cs),
(207,228,o),
(284,476,o),
(284.4,589,c),
(284,668,o),
(240,700,o),
(194,700,cs),
(153,700,o),
(111,675,o),
(95.869,632.359,c),
(96.869,628.89,l),
(104.942,615.258,o),
(107.4,606.579,o),
(107.4,559,cs),
(107.4,447.957,o),
(34,234,o),
(34,131,cs),
(34,27,o),
(89,-12,o),
(149,-12,cs)
);
}
);
width = 306.05;
},
{
background = {
shapes = (
{
closed = 1;
nodes = (
(76.165,354.581,o),
(108.35,478.966,o),
(71.73,540,c),
(71.73,546,l),
(144.73,628,o),
(265.73,607,o),
(265.73,495,cs),
(265.73,373.833,o),
(163.877,98.503,o),
(243.588,98.503,cs),
(254.889,98.503,o),
(268.134,108.394,o),
(280.73,126,c),
(295.73,98,l),
(277.275,41.55,o),
(211.49,0.26,o),
(151.966,0.257,cs),
(41.758,0.253,o),
(37.258,124.382,o),
(50.849,204.794,cs)
);
},
{
pos = (10.4,0);
ref = h;
}
);
};
layerId = m003;
shapes = (
{
closed = 1;
nodes = (
(207,-12,o),
(273,40,o),
(275,112,c),
(267,114,l),
(263,104,o),
(248,90,o),
(233,90,cs),
(220,90,o),
(207,102,o),
(207,139,cs),
(207,228,o),
(284,476,o),
(284.4,589,c),
(284,668,o),
(240,700,o),
(194,700,cs),
(153,700,o),
(111,675,o),
(95.869,632.359,c),
(96.869,628.89,l),
(104.942,615.258,o),
(107.4,606.579,o),
(107.4,559,cs),
(107.4,447.957,o),
(34,234,o),
(34,131,cs),
(34,27,o),
(89,-12,o),
(149,-12,cs)
);
}
);
width = 306.05;
}
);
unicode = 108;
},
{
glyphname = m;
lastChange = "2023-05-26 13:35:29 +0000";
layers = (
{
layerId = "CDFC0212-EC7A-4000-86F8-EA19B9E6D7F9";
shapes = (
{
closed = 1;
nodes = (
(458,-11,o),
(502,29,o),
(502,85,cs),
(502,131,o),
(490,165,o),
(490,201,cs),
(490,264,o),
(542,371,o),
(594,371,cs),
(613,371,o),
(619,358,o),
(619,336,cs),
(619,285,o),
(581,175,o),
(581,98,cs),
(581,22,o),
(627,-10,o),
(678,-10,cs),
(743,-10,o),
(817,40,o),
(817,114,c),
(809,117,l),
(804,105,o),
(789,95,o),
(775,95,cs),
(757,95,o),
(751,111,o),
(751,137,cs),
(751,199,o),
(787,322,o),
(786.596,389.898,cs),
(786.596,452.221,o),
(765.832,500,o),
(693,500,cs),
(597.026,500,o),
(542.979,408.651,o),
(498.217,344.176,c),
(507.78,335.282,l),
(513,355,o),
(516,376,o),
(516,396,cs),
(516,450,o),
(493,500,o),
(426,500,cs),
(330.88,500,o),
(260.452,389.18,o),
(229.218,321.958,c),
(238.238,311.706,l),
(251,339,o),
(257,368,o),
(257,394,cs),
(257,452,o),
(227,500,o),
(167.1,500,cs),
(59.1,500,o),
(16.084,413.759,o),
(18.069,370.518,c),
(24.1,367,l),
(38,381,o),
(50,387,o),
(61,387,cs),
(78,387,o),
(90,371,o),
(89.645,349.423,cs),
(89.645,293.335,o),
(50,171,o),
(50,89,cs),
(50,31,o),
(94,-10,o),
(140,-10,cs),
(193,-10,o),
(240,38,o),
(240,84,cs),
(240,140,o),
(221,166,o),
(221,200,cs),
(221,204,o),
(221,209,o),
(222,215,cs),
(233,279,o),
(277,371,o),
(328,371,cs),
(344,371,o),
(350,356,o),
(350,332,cs),
(350,271,o),
(312,144,o),
(312,89,cs),
(312,21,o),
(358,-11,o),
(404,-11,cs)
);
}
);
width = 834.81;
},
{
associatedMasterId = "CDFC0212-EC7A-4000-86F8-EA19B9E6D7F9";
layerId = "AF8EEDE7-964D-403D-8EC9-0AC3BB8BA25E";
name = "May 17, 23, 13:27";
shapes = (
{
closed = 1;
nodes = (
(5,381,l),
(12,419,o),
(69,500,o),
(177,500,cs),
(245.099,500,o),
(277.017,457.856,o),
(277.017,402.648,cs),
(277.017,370.301,o),
(266.059,333.468,o),
(245,298,cs),
(228,270,o),
(235,237,o),
(232,205,c),
(228,156,o),
(250,121,o),
(250,85,cs),
(250,42,o),
(203,0,o),
(150,0,cs),
(104,0,o),
(60,35,o),
(60,86,c),
(60,198,o),
(91,266,o),
(101,314,cs),
(104.196,328.673,o),
(105.619,341.277,o),
(105.619,351.948,cs),
(105.619,384.961,o),
(91.998,399.47,o),
(75.103,399.47,cs),
(59.867,399.47,o),
(41.97,387.67,o),
(29,367,c)
);
},
{
closed = 1;
nodes = (
(233,318,l),
(277,380,o),
(333,500,o),
(443,500,cs),
(512.731,500,o),
(532.366,451.255,o),
(532.366,387.925,cs),
(532.366,326.618,o),
(484.723,233.753,o),
(518.729,88.537,cs),
(540.165,-3,o),
(328.623,-62.442,o),
(328.623,107.683,cs),
(328.623,184.53,o),
(402.563,363,o),
(345,363,cs),
(294,363,o),
(245,283,o),
(233,219,c)
);
},
{
closed = 1;
nodes = (
(497,318,l),
(541,380,o),
(613,500,o),
(723,500,cs),
(792.731,500,o),
(812.366,451.255,o),
(812.366,387.925,cs),
(812.366,306.283,o),
(779.734,200.404,o),
(779.734,143.477,cs),
(779.734,118.543,o),
(785.994,103,o),
(804,103,c),
(819,103,o),
(830,111,o),
(837,126,c),
(852,98,l),
(835,46,o),
(789,0,o),
(713,0,cs),
(631.451,0,o),
(608.623,47.264,o),
(608.623,107.683,cs),
(608.623,184.53,o),
(686.327,363,o),
(624,363,cs),
(573,363,o),
(509.015,278.48,o),
(507.015,214.48,c)
);
}
);
width = 857;
},
{
layerId = m002;
shapes = (
{
closed = 1;
nodes = (
(458,-11,o),
(502,29,o),
(502,85,cs),
(502,131,o),
(490,165,o),
(490,201,cs),
(490,264,o),
(542,371,o),
(594,371,cs),
(613,371,o),
(619,358,o),
(619,336,cs),
(619,285,o),
(581,175,o),
(581,98,cs),
(581,22,o),
(627,-10,o),
(678,-10,cs),
(743,-10,o),
(817,40,o),
(817,114,c),
(809,117,l),
(804,105,o),
(789,95,o),
(775,95,cs),
(757,95,o),
(751,111,o),
(751,137,cs),
(751,199,o),
(787,322,o),
(786.596,389.898,cs),
(786.596,452.221,o),
(765.832,500,o),
(693,500,cs),
(597.026,500,o),
(542.979,408.651,o),
(498.217,344.176,c),
(507.78,335.282,l),
(513,355,o),
(516,376,o),
(516,396,cs),
(516,450,o),
(493,500,o),
(426,500,cs),
(330.88,500,o),
(260.452,389.18,o),
(229.218,321.958,c),
(238.238,311.706,l),
(251,339,o),
(257,368,o),
(257,394,cs),
(257,452,o),
(227,500,o),
(167.1,500,cs),
(59.1,500,o),
(16.084,413.759,o),
(18.069,370.518,c),
(24.1,367,l),
(38,381,o),
(50,387,o),
(61,387,cs),
(78,387,o),
(90,371,o),
(89.645,349.423,cs),
(89.645,293.335,o),
(50,171,o),
(50,89,cs),
(50,31,o),
(94,-10,o),
(140,-10,cs),
(193,-10,o),
(240,38,o),
(240,84,cs),
(240,140,o),
(221,166,o),
(221,200,cs),
(221,204,o),
(221,209,o),
(222,215,cs),
(233,279,o),
(277,371,o),
(328,371,cs),
(344,371,o),
(350,356,o),
(350,332,cs),
(350,271,o),
(312,144,o),
(312,89,cs),
(312,21,o),
(358,-11,o),
(404,-11,cs)
);
}
);
width = 834.81;
},
{
associatedMasterId = m002;
layerId = "D3BBBDB8-F89B-4B23-AF3E-F131E00AE50F";
name = "May 17, 23, 13:27";
shapes = (
{
closed = 1;
nodes = (
(5,381,l),
(12,419,o),
(69,500,o),
(177,500,cs),
(245.099,500,o),
(277.017,457.856,o),
(277.017,402.648,cs),
(277.017,370.301,o),
(266.059,333.468,o),
(245,298,cs),
(228,270,o),
(235,237,o),
(232,205,c),
(228,156,o),
(250,121,o),
(250,85,cs),
(250,42,o),
(203,0,o),
(150,0,cs),
(104,0,o),
(60,35,o),
(60,86,c),
(60,198,o),
(91,266,o),
(101,314,cs),
(104.196,328.673,o),
(105.619,341.277,o),
(105.619,351.948,cs),
(105.619,384.961,o),
(91.998,399.47,o),
(75.103,399.47,cs),
(59.867,399.47,o),
(41.97,387.67,o),
(29,367,c)
);
},
{
closed = 1;
nodes = (
(233,318,l),
(277,380,o),
(333,500,o),
(443,500,cs),
(512.731,500,o),
(532.366,451.255,o),
(532.366,387.925,cs),
(532.366,326.618,o),
(484.723,233.753,o),
(518.729,88.537,cs),
(540.165,-3,o),
(328.623,-62.442,o),
(328.623,107.683,cs),
(328.623,184.53,o),
(402.563,363,o),
(345,363,cs),
(294,363,o),
(245,283,o),
(233,219,c)
);
},
{
closed = 1;
nodes = (
(497,318,l),
(541,380,o),
(613,500,o),
(723,500,cs),
(792.731,500,o),
(812.366,451.255,o),
(812.366,387.925,cs),
(812.366,306.283,o),
(779.734,200.404,o),
(779.734,143.477,cs),
(779.734,118.543,o),
(785.994,103,o),
(804,103,c),
(819,103,o),
(830,111,o),
(837,126,c),
(852,98,l),
(835,46,o),
(789,0,o),
(713,0,cs),
(631.451,0,o),
(608.623,47.264,o),
(608.623,107.683,cs),
(608.623,184.53,o),
(686.327,363,o),
(624,363,cs),
(573,363,o),
(509.015,278.48,o),
(507.015,214.48,c)
);
}
);
width = 857;
},
{
layerId = m003;
shapes = (
{
closed = 1;
nodes = (
(458,-11,o),
(502,29,o),
(502,85,cs),
(502,131,o),
(490,165,o),
(490,201,cs),
(490,264,o),
(542,371,o),
(594,371,cs),
(613,371,o),
(619,358,o),
(619,336,cs),
(619,285,o),
(581,175,o),
(581,98,cs),
(581,22,o),
(627,-10,o),
(678,-10,cs),
(743,-10,o),
(817,40,o),
(817,114,c),
(809,117,l),
(804,105,o),
(789,95,o),
(775,95,cs),
(757,95,o),
(751,111,o),
(751,137,cs),
(751,199,o),
(787,322,o),
(786.596,389.898,cs),
(786.596,452.221,o),
(765.832,500,o),
(693,500,cs),
(597.026,500,o),
(542.979,408.651,o),
(498.217,344.176,c),
(507.78,335.282,l),
(513,355,o),
(516,376,o),
(516,396,cs),
(516,450,o),
(493,500,o),
(426,500,cs),
(330.88,500,o),
(260.452,389.18,o),
(229.218,321.958,c),
(238.238,311.706,l),
(251,339,o),
(257,368,o),
(257,394,cs),
(257,452,o),
(227,500,o),
(167.1,500,cs),
(59.1,500,o),
(16.084,413.759,o),
(18.069,370.518,c),
(24.1,367,l),
(38,381,o),
(50,387,o),
(61,387,cs),
(78,387,o),
(90,371,o),
(89.645,349.423,cs),
(89.645,293.335,o),
(50,171,o),
(50,89,cs),
(50,31,o),
(94,-10,o),
(140,-10,cs),
(193,-10,o),
(240,38,o),
(240,84,cs),
(240,140,o),
(221,166,o),
(221,200,cs),
(221,204,o),
(221,209,o),
(222,215,cs),
(233,279,o),
(277,371,o),
(328,371,cs),
(344,371,o),
(350,356,o),
(350,332,cs),
(350,271,o),
(312,144,o),
(312,89,cs),
(312,21,o),
(358,-11,o),
(404,-11,cs)
);
}
);
width = 834.81;
},
{
associatedMasterId = m003;
layerId = "1C39D6FC-6796-45B7-93FE-A3F246F14443";
name = "May 17, 23, 13:27";
shapes = (
{
closed = 1;
nodes = (
(5,381,l),
(12,419,o),
(69,500,o),
(177,500,cs),
(245.099,500,o),
(277.017,457.856,o),
(277.017,402.648,cs),
(277.017,370.301,o),
(266.059,333.468,o),
(245,298,cs),
(228,270,o),
(235,237,o),
(232,205,c),
(228,156,o),
(250,121,o),
(250,85,cs),
(250,42,o),
(203,0,o),
(150,0,cs),
(104,0,o),
(60,35,o),
(60,86,c),
(60,198,o),
(91,266,o),
(101,314,cs),
(104.196,328.673,o),
(105.619,341.277,o),
(105.619,351.948,cs),
(105.619,384.961,o),
(91.998,399.47,o),
(75.103,399.47,cs),
(59.867,399.47,o),
(41.97,387.67,o),
(29,367,c)
);
},
{
closed = 1;
nodes = (
(233,318,l),
(277,380,o),
(333,500,o),
(443,500,cs),
(512.731,500,o),
(532.366,451.255,o),
(532.366,387.925,cs),
(532.366,326.618,o),
(484.723,233.753,o),
(518.729,88.537,cs),
(540.165,-3,o),
(328.623,-62.442,o),
(328.623,107.683,cs),
(328.623,184.53,o),
(402.563,363,o),
(345,363,cs),
(294,363,o),
(245,283,o),
(233,219,c)
);
},
{
closed = 1;
nodes = (
(497,318,l),
(541,380,o),
(613,500,o),
(723,500,cs),
(792.731,500,o),
(812.366,451.255,o),
(812.366,387.925,cs),
(812.366,306.283,o),
(779.734,200.404,o),
(779.734,143.477,cs),
(779.734,118.543,o),
(785.994,103,o),
(804,103,c),
(819,103,o),
(830,111,o),
(837,126,c),
(852,98,l),
(835,46,o),
(789,0,o),
(713,0,cs),
(631.451,0,o),
(608.623,47.264,o),
(608.623,107.683,cs),
(608.623,184.53,o),
(686.327,363,o),
(624,363,cs),
(573,363,o),
(509.015,278.48,o),
(507.015,214.48,c)
);
}
);
width = 857;
}
);
unicode = 109;
},
{
glyphname = n;
lastChange = "2023-05-26 13:35:42 +0000";
layers = (
{
background = {
shapes = (
{
closed = 1;
nodes = (
(5.1,381,l),
(12.1,419,o),
(69.1,500,o),
(177.1,500,cs),
(285.1,500,o),
(302.1,394,o),
(245.1,298,cs),
(228.1,270,o),
(235.1,237,o),
(232.1,205,c),
(228.1,156,o),
(250.1,121,o),
(250.1,85,cs),
(250.1,42,o),
(203.1,0,o),
(150.1,0,cs),
(104.1,0,o),
(60.1,35,o),
(60.1,86,c),
(60.1,198,o),
(91.1,266,o),
(101.1,314,cs),
(123.1,415,o),
(61.1,418,o),
(29.1,367,c)
);
},
{
closed = 1;
nodes = (
(233.1,318,l),
(277.1,380,o),
(341.1,500,o),
(451.1,500,cs),
(650.1,500,o),
(441.1,103,o),
(532.1,103,c),
(547.1,103,o),
(558.1,111,o),
(565.1,126,c),
(580.1,98,l),
(563.1,46,o),
(517.1,0,o),
(441.1,0,cs),
(215.1,0,o),
(440.1,363,o),
(352.1,363,cs),
(301.1,363,o),
(245.1,283,o),
(233.1,219,c)
);
}
);
};
layerId = "CDFC0212-EC7A-4000-86F8-EA19B9E6D7F9";
shapes = (
{
closed = 1;
nodes = (
(198,-10,o),
(245,28,o),
(245,84,cs),
(245,141,o),
(226,167,o),
(226,201,cs),
(226,205,o),
(226,210,o),
(227,215,cs),
(239,295,o),
(301.1,363,o),
(347.1,363,cs),
(363,363,o),
(369,351,o),
(369,332,cs),
(369,284,o),
(332,177,o),
(332,100,cs),
(332,23,o),
(379,-10,o),
(431,-10,cs),
(495,-10,o),
(566,39,o),
(566,114,c),
(559,117,l),
(555,108,o),
(542,95,o),
(527,95,cs),
(509,95,o),
(503,111,o),
(503,136,cs),
(503,192,o),
(535,308,o),
(535,388,cs),
(535,452,o),
(516,500,o),
(446.1,500,cs),
(356.236,500,o),
(264.665,383.913,o),
(234.434,320.787,c),
(242.372,310.348,l),
(256,340,o),
(263,370,o),
(263,398,cs),
(263,455,o),
(233,500,o),
(172.1,500,cs),
(64.1,500,o),
(21.084,413.759,o),
(23.069,370.518,c),
(29.1,367,l),
(43,381,o),
(55,387,o),
(66,387,cs),
(83,387,o),
(95,371,o),
(94.645,349.423,cs),
(94.645,293.335,o),
(55,171,o),
(55,89,cs),
(55,31,o),
(99,-10,o),
(145,-10,cs)
);
}
);
width = 589.47;
},
{
background = {
shapes = (
{
closed = 1;
nodes = (
(5.1,381,l),
(12.1,419,o),
(69.1,500,o),
(177.1,500,cs),
(285.1,500,o),
(302.1,394,o),
(245.1,298,cs),
(228.1,270,o),
(235.1,237,o),
(232.1,205,c),
(228.1,156,o),
(250.1,121,o),
(250.1,85,cs),
(250.1,42,o),
(203.1,0,o),
(150.1,0,cs),
(104.1,0,o),
(60.1,35,o),
(60.1,86,c),
(60.1,198,o),
(91.1,266,o),
(101.1,314,cs),
(123.1,415,o),
(61.1,418,o),
(29.1,367,c)
);
},
{
closed = 1;
nodes = (
(233.1,318,l),
(277.1,380,o),
(341.1,500,o),
(451.1,500,cs),
(650.1,500,o),
(441.1,103,o),
(532.1,103,c),
(547.1,103,o),
(558.1,111,o),
(565.1,126,c),
(580.1,98,l),
(563.1,46,o),
(517.1,0,o),
(441.1,0,cs),
(215.1,0,o),
(440.1,363,o),
(352.1,363,cs),
(301.1,363,o),
(245.1,283,o),
(233.1,219,c)
);
}
);
};
layerId = m002;
shapes = (
{
closed = 1;
nodes = (
(198,-10,o),
(245,28,o),
(245,84,cs),
(245,141,o),
(226,167,o),
(226,201,cs),
(226,205,o),
(226,210,o),
(227,215,cs),
(239,295,o),
(301.1,363,o),
(347.1,363,cs),
(363,363,o),
(369,351,o),
(369,332,cs),
(369,284,o),
(332,177,o),
(332,100,cs),
(332,23,o),
(379,-10,o),
(431,-10,cs),
(495,-10,o),
(566,39,o),
(566,114,c),
(559,117,l),
(555,108,o),
(542,95,o),
(527,95,cs),
(509,95,o),
(503,111,o),
(503,136,cs),
(503,192,o),
(535,308,o),
(535,388,cs),
(535,452,o),
(516,500,o),
(446.1,500,cs),
(356.236,500,o),
(264.665,383.913,o),
(234.434,320.787,c),
(242.372,310.348,l),
(256,340,o),
(263,370,o),
(263,398,cs),
(263,455,o),
(233,500,o),
(172.1,500,cs),
(64.1,500,o),
(21.084,413.759,o),
(23.069,370.518,c),
(29.1,367,l),
(43,381,o),
(55,387,o),
(66,387,cs),
(83,387,o),
(95,371,o),
(94.645,349.423,cs),
(94.645,293.335,o),
(55,171,o),
(55,89,cs),
(55,31,o),
(99,-10,o),
(145,-10,cs)
);
}
);
width = 589.47;
},
{
background = {
shapes = (
{
closed = 1;
nodes = (
(5.1,381,l),
(12.1,419,o),
(69.1,500,o),
(177.1,500,cs),
(285.1,500,o),
(302.1,394,o),
(245.1,298,cs),
(228.1,270,o),
(235.1,237,o),
(232.1,205,c),
(228.1,156,o),
(250.1,121,o),
(250.1,85,cs),
(250.1,42,o),
(203.1,0,o),
(150.1,0,cs),
(104.1,0,o),
(60.1,35,o),
(60.1,86,c),
(60.1,198,o),
(91.1,266,o),
(101.1,314,cs),
(123.1,415,o),
(61.1,418,o),
(29.1,367,c)
);
},
{
closed = 1;
nodes = (
(233.1,318,l),
(277.1,380,o),
(341.1,500,o),
(451.1,500,cs),
(650.1,500,o),
(441.1,103,o),
(532.1,103,c),
(547.1,103,o),
(558.1,111,o),
(565.1,126,c),
(580.1,98,l),
(563.1,46,o),
(517.1,0,o),
(441.1,0,cs),
(215.1,0,o),
(440.1,363,o),
(352.1,363,cs),
(301.1,363,o),
(245.1,283,o),
(233.1,219,c)
);
}
);
};
layerId = m003;
shapes = (
{
closed = 1;
nodes = (
(198,-10,o),
(245,28,o),
(245,84,cs),
(245,141,o),
(226,167,o),
(226,201,cs),
(226,205,o),
(226,210,o),
(227,215,cs),
(239,295,o),
(301.1,363,o),
(347.1,363,cs),
(363,363,o),
(369,351,o),
(369,332,cs),
(369,284,o),
(332,177,o),
(332,100,cs),
(332,23,o),
(379,-10,o),
(431,-10,cs),
(495,-10,o),
(566,39,o),
(566,114,c),
(559,117,l),
(555,108,o),
(542,95,o),
(527,95,cs),
(509,95,o),
(503,111,o),
(503,136,cs),
(503,192,o),
(535,308,o),
(535,388,cs),
(535,452,o),
(516,500,o),
(446.1,500,cs),
(356.236,500,o),
(264.665,383.913,o),
(234.434,320.787,c),
(242.372,310.348,l),
(256,340,o),
(263,370,o),
(263,398,cs),
(263,455,o),
(233,500,o),
(172.1,500,cs),
(64.1,500,o),
(21.084,413.759,o),
(23.069,370.518,c),
(29.1,367,l),
(43,381,o),
(55,387,o),
(66,387,cs),
(83,387,o),
(95,371,o),
(94.645,349.423,cs),
(94.645,293.335,o),
(55,171,o),
(55,89,cs),
(55,31,o),
(99,-10,o),
(145,-10,cs)
);
}
);
width = 589.47;
}
);
unicode = 110;
},
{
glyphname = o;
lastChange = "2023-05-26 13:34:10 +0000";
layers = (
{
background = {
shapes = (
{
closed = 1;
nodes = (
(590.73,-6,o),
(653.73,507,o),
(324.23,507,cs),
(-15.27,507,o),
(-87.27,-6,o),
(247.73,-6,cs)
);
},
{
closed = 1;
nodes = (
(183.105,85.5,o),
(191.073,415.5,o),
(291.125,415.5,cs),
(383.355,415.5,o),
(375.306,85.5,o),
(275.211,85.5,cs)
);
}
);
};
layerId = "CDFC0212-EC7A-4000-86F8-EA19B9E6D7F9";
shapes = (
{
closed = 1;
nodes = (
(436.866,-6,o),
(540.865,149.983,o),
(540.865,289.926,cs),
(540.865,403.77,o),
(472.038,507,o),
(324.23,507,cs),
(136.002,507,o),
(30,349.309,o),
(30,208.783,cs),
(30,95.848,o),
(98.463,-6,o),
(247.73,-6,cs)
);
},
{
closed = 1;
nodes = (
(230.467,78.9,o),
(208.683,154.28,o),
(208.683,234.385,cs),
(208.683,325.205,o),
(236.685,422.1,o),
(291.442,422.1,cs),
(335.919,422.1,o),
(357.717,346.745,o),
(357.717,266.655,cs),
(357.717,175.823,o),
(329.68,78.9,o),
(274.891,78.9,cs)
);
}
);
width = 570.86;
},
{
background = {
shapes = (
{
closed = 1;
nodes = (
(590.73,-6,o),
(653.73,507,o),
(324.23,507,cs),
(-15.27,507,o),
(-87.27,-6,o),
(247.73,-6,cs)
);
},
{
closed = 1;
nodes = (
(183.105,85.5,o),
(191.073,415.5,o),
(291.125,415.5,cs),
(383.355,415.5,o),
(375.306,85.5,o),
(275.211,85.5,cs)
);
}
);
};
layerId = m002;
shapes = (
{
closed = 1;
nodes = (
(436.866,-6,o),
(540.865,149.983,o),
(540.865,289.926,cs),
(540.865,403.77,o),
(472.038,507,o),
(324.23,507,cs),
(136.002,507,o),
(30,349.309,o),
(30,208.783,cs),
(30,95.848,o),
(98.463,-6,o),
(247.73,-6,cs)
);
},
{
closed = 1;
nodes = (
(230.467,78.9,o),
(208.683,154.28,o),
(208.683,234.385,cs),
(208.683,325.205,o),
(236.685,422.1,o),
(291.442,422.1,cs),
(335.919,422.1,o),
(357.717,346.745,o),
(357.717,266.655,cs),
(357.717,175.823,o),
(329.68,78.9,o),
(274.891,78.9,cs)
);
}
);
width = 570.86;
},
{
background = {
shapes = (
{
closed = 1;
nodes = (
(590.73,-6,o),
(653.73,507,o),
(324.23,507,cs),
(-15.27,507,o),
(-87.27,-6,o),
(247.73,-6,cs)
);
},
{
closed = 1;
nodes = (
(183.105,85.5,o),
(191.073,415.5,o),
(291.125,415.5,cs),
(383.355,415.5,o),
(375.306,85.5,o),
(275.211,85.5,cs)
);
}
);
};
layerId = m003;
shapes = (
{
closed = 1;
nodes = (
(436.866,-6,o),
(540.865,149.983,o),
(540.865,289.926,cs),
(540.865,403.77,o),
(472.038,507,o),
(324.23,507,cs),
(136.002,507,o),
(30,349.309,o),
(30,208.783,cs),
(30,95.848,o),
(98.463,-6,o),
(247.73,-6,cs)
);
},
{
closed = 1;
nodes = (
(230.467,78.9,o),
(208.683,154.28,o),
(208.683,234.385,cs),
(208.683,325.205,o),
(236.685,422.1,o),
(291.442,422.1,cs),
(335.919,422.1,o),
(357.717,346.745,o),
(357.717,266.655,cs),
(357.717,175.823,o),
(329.68,78.9,o),
(274.891,78.9,cs)
);
}
);
width = 570.86;
}
);
unicode = 111;
},
{
glyphname = p;
lastChange = "2023-05-26 13:34:10 +0000";
layers = (
{
layerId = "CDFC0212-EC7A-4000-86F8-EA19B9E6D7F9";
shapes = (
{
closed = 1;
nodes = (
(440.801,1.018,o),
(553.12,102.451,o),
(553.12,305.513,cs),
(553.12,440.3,o),
(495.969,506.066,o),
(425.444,506.066,cs),
(333.547,506.066,o),
(220.572,403.095,o),
(178.496,178.272,c),
(225.451,151.628,l),
(251.489,316.102,o),
(307.361,395.192,o),
(344.54,395.192,cs),
(376.51,395.192,o),
(391.746,350.291,o),
(391.746,295.947,cs),
(391.746,212.659,o),
(355.959,98.192,o),
(289.776,98.192,cs),
(253.932,98.192,o),
(221.876,136.958,o),
(220.074,205.365,c),
(188.614,198.385,l),
(187.873,66.841,o),
(260.351,1.018,o),
(340.86,1.018,cs)
);
},
{
closed = 1;
nodes = (
(142.882,-199.806,o),
(176.967,-183.495,o),
(195.004,-150.06,c),
(195.004,-144.06,l),
(188,-118,o),
(184,-91,o),
(184,-62,cs),
(184,49,o),
(232,177,o),
(251.885,296.146,cs),
(255,315,o),
(257,337,o),
(257,359,cs),
(257,429,o),
(235,501,o),
(150.768,500.683,cs),
(91.244,500.68,o),
(20.77,440.359,o),
(20.77,371.206,c),
(28.004,367.04,l),
(37,378,o),
(52,387,o),
(65,387,cs),
(80,387,o),
(92,376,o),
(92,346,cs),
(92,236,o),
(10,60,o),
(10.004,-99.06,cs),
(10.004,-165.393,o),
(59.38,-199.806,o),
(108.834,-199.806,cs)
);
}
);
width = 578.12;
},
{
layerId = m002;
shapes = (
{
closed = 1;
nodes = (
(440.801,1.018,o),
(553.12,102.451,o),
(553.12,305.513,cs),
(553.12,440.3,o),
(495.969,506.066,o),
(425.444,506.066,cs),
(333.547,506.066,o),
(220.572,403.095,o),
(178.496,178.272,c),
(225.451,151.628,l),
(251.489,316.102,o),
(307.361,395.192,o),
(344.54,395.192,cs),
(376.51,395.192,o),
(391.746,350.291,o),
(391.746,295.947,cs),
(391.746,212.659,o),
(355.959,98.192,o),
(289.776,98.192,cs),
(253.932,98.192,o),
(221.876,136.958,o),
(220.074,205.365,c),
(188.614,198.385,l),
(187.873,66.841,o),
(260.351,1.018,o),
(340.86,1.018,cs)
);
},
{
closed = 1;
nodes = (
(142.882,-199.806,o),
(176.967,-183.495,o),
(195.004,-150.06,c),
(195.004,-144.06,l),
(188,-118,o),
(184,-91,o),
(184,-62,cs),
(184,49,o),
(232,177,o),
(251.885,296.146,cs),
(255,315,o),
(257,337,o),
(257,359,cs),
(257,429,o),
(235,501,o),
(150.768,500.683,cs),
(91.244,500.68,o),
(20.77,440.359,o),
(20.77,371.206,c),
(28.004,367.04,l),
(37,378,o),
(52,387,o),
(65,387,cs),
(80,387,o),
(92,376,o),
(92,346,cs),
(92,236,o),
(10,60,o),
(10.004,-99.06,cs),
(10.004,-165.393,o),
(59.38,-199.806,o),
(108.834,-199.806,cs)
);
}
);
width = 578.12;
},
{
layerId = m003;
shapes = (
{
closed = 1;
nodes = (
(440.801,1.018,o),
(553.12,102.451,o),
(553.12,305.513,cs),
(553.12,440.3,o),
(495.969,506.066,o),
(425.444,506.066,cs),
(333.547,506.066,o),
(220.572,403.095,o),
(178.496,178.272,c),
(225.451,151.628,l),
(251.489,316.102,o),
(307.361,395.192,o),
(344.54,395.192,cs),
(376.51,395.192,o),
(391.746,350.291,o),
(391.746,295.947,cs),
(391.746,212.659,o),
(355.959,98.192,o),
(289.776,98.192,cs),
(253.932,98.192,o),
(221.876,136.958,o),
(220.074,205.365,c),
(188.614,198.385,l),
(187.873,66.841,o),
(260.351,1.018,o),
(340.86,1.018,cs)
);
},
{
closed = 1;
nodes = (
(142.882,-199.806,o),
(176.967,-183.495,o),
(195.004,-150.06,c),
(195.004,-144.06,l),
(188,-118,o),
(184,-91,o),
(184,-62,cs),
(184,49,o),
(232,177,o),
(251.885,296.146,cs),
(255,315,o),
(257,337,o),
(257,359,cs),
(257,429,o),
(235,501,o),
(150.768,500.683,cs),
(91.244,500.68,o),
(20.77,440.359,o),
(20.77,371.206,c),
(28.004,367.04,l),
(37,378,o),
(52,387,o),
(65,387,cs),
(80,387,o),
(92,376,o),
(92,346,cs),
(92,236,o),
(10,60,o),
(10.004,-99.06,cs),
(10.004,-165.393,o),
(59.38,-199.806,o),
(108.834,-199.806,cs)
);
}
);
width = 578.12;
}
);
unicode = 112;
},
